<svg xmlns="http://www.w3.org/2000/svg" width="202" height="219" viewBox="0 0 202 219">
  <g fill="none" fill-rule="evenodd">
    <path stroke="#666" stroke-width="2" d="M186.817 45.108l-71.63-40.385c-8.813-4.952-19.568-4.952-28.38 0l-71.63 40.385c-8.72 4.847-14.145 14.023-14.19 24v80.772c.045 9.977 5.47 19.153 14.19 24l71.63 40.387c8.812 4.95 19.567 4.95 28.38 0l71.63-40.387c8.72-4.847 14.145-14.023 14.19-24V69.112c-.043-9.978-5.47-19.156-14.19-24.004z" opacity=".1"/>
    <path fill="#06B7C5" d="M172.493 100.265c.268.166.527.346.775.54.23.16.43.36.585.594.09.14.142.3.147.47 0 .17-.042.34-.123.49-.06.08-.124.17-.19.25l-.14.11c-.116.09-.24.18-.367.26-.2.12-.408.23-.618.34-.652.34-1.313.66-1.972.99.324.24.65.49.97.74.425.3.814.64 1.16 1.03.147.16.277.33.39.52.15.25.235.53.245.82-.126.69-.586 1.28-1.23 1.57-.503.32-1.017.62-1.542.9-1.072.58-2.156 1.13-3.22 1.72-1.064.59-2.11 1.16-3.19 1.69-1.106.54-2.206 1.1-3.3 1.66-1.13.59-2.258 1.18-3.4 1.75-1.122.55-2.256 1.08-3.393 1.6-2.296 1.05-4.61 2.06-6.938 3.04l-.945.41c-1.112.48-2.2 1.02-3.286 1.56-1.12.55-2.25 1.11-3.37 1.67-2.27 1.14-4.54 2.29-6.81 3.44-2.17 1.1-4.33 2.24-6.5 3.36-2.17 1.12-4.33 2.21-6.48 3.36-2.14 1.15-4.32 2.31-6.44 3.52-2.19 1.25-4.36 2.52-6.55 3.77-2.1 1.21-4.22 2.39-6.38 3.5-1.16.59-2.31 1.19-3.48 1.78-1.08.55-2.18 1.07-3.27 1.59-2.15 1.03-4.31 2.06-6.45 3.13-1.09.54-2.17 1.1-3.27 1.61-.63.29-1.27.57-1.93.8-.27.1-.56.19-.84.26-.26.05-.53.1-.79.14-.28.07-.58.03-.83-.11-.51-.3-.68-.94-.4-1.46-.99-.56-2-1.09-3-1.62-1.27-.67-2.52-1.38-3.8-2.04-1.01-.52-2.03-1.01-3.04-1.5-.98-.48-1.94-.98-2.9-1.47-1.95-.99-3.87-2.04-5.87-2.92-.91-.38-1.83-.75-2.73-1.13-.85-.36-1.67-.77-2.52-1.14-.99-.42-1.99-.81-2.98-1.22-1.04-.42-2.07-.86-3.11-1.28-.96-.39-1.91-.8-2.87-1.17-1.03-.4-2.06-.79-3.1-1.18-2.08-.77-4.2-1.45-6.27-2.23-1.06-.38-2.09-.86-3.06-1.45-.22-.14-.43-.29-.63-.46-.14-.12-.26-.26-.36-.42-.07-.13-.12-.26-.15-.41-.06-.21-.06-.43 0-.63 0-.03.01-.05.01-.08.05-.17.12-.32.21-.47.09-.12.18-.25.28-.36.08-.09.16-.18.25-.26.24-.23.48-.45.73-.67-.22-.09-.44-.18-.65-.28-.17-.09-.35-.16-.52-.25-.22-.13-.44-.27-.63-.44-.14-.14-.27-.29-.38-.45-.21-.38-.27-.82-.16-1.24.04-.19.12-.38.23-.54.25-.36.58-.65.95-.86.24-.16.49-.3.73-.45.12-.08.22-.16.34-.24l-.87-.39c-.31-.15-.62-.29-.93-.44-.23-.11-.44-.25-.62-.42-.24-.23-.41-.51-.51-.83-.16-.52-.08-1.09.22-1.55.25-.39.6-.69 1.01-.89.26-.12.52-.24.79-.33.31-.11.617-.2.93-.3.17-.06.35-.1.53-.16-.1-.09-.2-.17-.29-.26-.19-.19-.36-.39-.522-.6-.19-.21-.36-.45-.5-.7-.09-.18-.176-.37-.25-.56l-.05-.14-.1-.69c.02-.16.047-.32.07-.47.094-.52.37-.99.78-1.32.72-.53 1.51-.98 2.35-1.32 1.46-.69 2.94-1.35 4.41-2.04 3.04-1.42 6.12-2.76 9.21-4.07 2.81-1.2 5.6-2.436 8.35-3.76 1.535-.736 3.08-1.45 4.607-2.206 1.61-.8 3.2-1.61 4.8-2.42 3.07-1.56 6.17-3.05 9.26-4.56 1.48-.716 2.94-1.46 4.43-2.14 1.65-.75 3.3-1.48 4.96-2.2 1.5-.65 2.99-1.3 4.49-1.95.85-.376 1.7-.76 2.555-1.12.825-.34 1.645-.71 2.48-1.03 3.24-1.26 6.49-2.47 9.74-3.7 1.58-.6 3.17-1.19 4.76-1.76 1.48-.53 2.98-1.02 4.47-1.52 3.274-1.1 6.55-2.2 9.78-3.43.756-.28 1.5-.58 2.26-.85.31-.11.62-.226.93-.33.365-.14.746-.23 1.13-.26.04 0 .085 0 .12.01.47.04.94.13 1.39.27 1.55.44 3.12.84 4.68 1.244 1.6.42 3.204.8 4.81 1.2 1.68.42 3.34.89 5 1.4 1.63.5 3.24 1.07 4.84 1.68 1.61.62 3.13 1.414 4.675 2.18 1.48.74 3.01 1.4 4.48 2.18 1.52.81 3.04 1.64 4.5 2.55 1.42.88 2.83 1.76 4.3 2.56.9.44 1.74.985 2.52 1.62.39.31.71.7.94 1.14.12.23.18.49.176.75.008.254-.07.5-.22.71-.13.204-.31.375-.52.5-.07.033-.15.063-.22.1.67.3 1.33.615 1.98.97.52.253.96.643 1.27 1.13.31.52.23 1.19-.21 1.61-.25.22-.53.4-.83.53-.5.22-1.02.41-1.53.61.13.09.26.184.39.28.41.31.85.59 1.287.867zm-.734-2.538l-.02-.018.01.01zM36.58 132.62c.645.337 1.306.638 1.97.934 1.2.5 2.407.957 3.615 1.427 1.323.52 2.646 1.04 3.973 1.54 2.028.78 4.03 1.61 6.05 2.4 1.048.42 2.1.81 3.143 1.24 1.03.42 2.04.88 3.06 1.31.9.36 1.82.68 2.73 1.04.99.39 1.95.82 2.91 1.28 1.78.84 3.56 1.68 5.32 2.55 1 .5 2.02.96 3.03 1.44 1.01.48 2 1 2.99 1.53.97.5 1.95 1 2.92 1.49.48.25.96.49 1.44.73.22.11.45.21.67.31.17.08.33.18.48.31.07.07.13.15.18.23l.3-.12c1.19-.52 2.36-1.09 3.52-1.68 2.17-1.09 4.37-2.13 6.58-3.16 1.08-.5 2.17-1 3.24-1.52 1.16-.56 2.32-1.15 3.47-1.74 4.4-2.25 8.63-4.81 12.91-7.28 2.12-1.22 4.28-2.38 6.42-3.56 2.12-1.16 4.27-2.26 6.41-3.37 2.24-1.15 4.47-2.32 6.71-3.46 2.19-1.11 4.39-2.19 6.62-3.24 2.3-1.08 4.58-2.19 6.91-3.2 1.19-.51 2.39-.98 3.59-1.45 1.17-.46 2.32-.93 3.48-1.41 2.36-1.02 4.72-2.03 7.03-3.15 1.14-.55 2.28-1.11 3.42-1.65 1.15-.54 2.28-1.06 3.4-1.62 1.07-.53 2.12-1.11 3.18-1.65.52-.26 1.03-.52 1.54-.79.51-.28 1.03-.56 1.52-.88-.15-.14-.31-.27-.48-.4-.51-.39-1.02-.78-1.54-1.16-.22-.14-.38-.35-.46-.6-.68.34-1.36.68-2.04 1.01-.97.48-1.96.95-2.94 1.42-1.06.51-2.1 1.04-3.16 1.57-1.05.52-2.1 1.03-3.15 1.53-1.08.51-2.17 1.03-3.26 1.53s-2.2.98-3.29 1.47c-1.02.46-2.03.95-3.04 1.44-2.14 1.03-4.24 2.14-6.37 3.21-1.02.52-2.04 1.03-3.06 1.53-1.01.5-2.04.95-3.06 1.42-1.07.5-2.14 1-3.19 1.56-1.01.55-2 1.14-2.99 1.71-2.03 1.18-4.06 2.34-6.14 3.42s-4.17 2.15-6.24 3.24c-4.08 2.14-8.14 4.32-12.28 6.34-4.17 2.05-8.3 4.16-12.51 6.13-2.08.98-4.15 1.99-6.2 3.01-1.02.51-2.05 1.02-3.08 1.5-.51.25-1.02.5-1.53.74-.34.16-.68.31-1.02.45-.11.04-.22.08-.34.12-.06.02-.12.03-.18.03-.15.04-.31.05-.47.04-.21 0-.43-.06-.61-.17-.18-.11-.33-.26-.43-.44-.11-.2-.16-.43-.14-.65-.52-.26-1.03-.56-1.54-.84-.77-.42-1.55-.84-2.3-1.3-.58-.36-1.15-.71-1.74-1.05-.54-.3-1.08-.59-1.63-.88l-1.62-.85c-.56-.29-1.12-.6-1.69-.9-1.16-.6-2.35-1.16-3.53-1.73-.54-.26-1.08-.55-1.62-.81s-1.11-.51-1.67-.75c-.7-.29-1.41-.57-2.12-.86-.76-.31-1.52-.65-2.29-.97-1.01-.42-2.03-.82-3.05-1.23-1.05-.42-2.09-.87-3.15-1.25s-2.13-.75-3.18-1.15c-1.03-.4-2.05-.82-3.1-1.16-1.24-.4-2.51-.68-3.77-1.02-1.08-.29-2.14-.63-3.2-.99-.05.12-.12.22-.21.31-.37.34-.73.68-1.11 1 .36.25.74.48 1.12.69zm91.28-54.634l-.045.008.05-.007h-.004zm39.36 14.633c-.7-.38-1.446-.67-2.163-1.01-.8-.38-1.58-.8-2.356-1.23-1.46-.81-2.93-1.6-4.42-2.36-1.48-.76-3.01-1.4-4.53-2.07-1.39-.6-2.76-1.25-4.15-1.85-.86-.34-1.72-.66-2.6-.94-1.6-.52-3.2-1.03-4.81-1.49-1.65-.47-3.32-.87-4.99-1.27-1.62-.38-3.23-.8-4.84-1.2-.76-.2-1.53-.38-2.3-.56-.4-.1-.81-.19-1.2-.3-.15-.04-.3-.1-.45-.16-.16-.07-.33-.13-.49-.2-.57.14-1.13.3-1.69.5-.6.2-1.2.41-1.8.62-1.21.41-2.43.82-3.65 1.21-2.54.81-5.09 1.61-7.62 2.45-3.17 1.05-6.3 2.22-9.44 3.38-1.62.6-3.25 1.19-4.87 1.81-.81.31-1.63.6-2.43.93l-2.28.94c-1.23.54-2.47 1.07-3.71 1.61-1.58.68-3.17 1.35-4.75 2.03-1.55.67-3.07 1.38-4.6 2.1-1.56.74-3.11 1.5-4.67 2.26-1.44.7-2.9 1.38-4.33 2.1-3.15 1.58-6.26 3.24-9.42 4.78-2.92 1.43-5.84 2.85-8.81 4.16-1.57.7-3.15 1.38-4.73 2.08-1.54.68-3.06 1.39-4.58 2.11-1.48.7-2.95 1.44-4.42 2.17-1.05.51-2.13 1.02-3.14 1.63.16.15.32.3.49.44.51.36 1.04.68 1.58 1 1.44.86 2.92 1.63 4.4 2.4 1.41.73 2.69 1.68 4.08 2.44 1.45.79 2.92 1.52 4.38 2.28.79.41 1.57.83 2.36 1.23.6.3 1.2.57 1.82.83 1.2.48 2.39.98 3.58 1.49l.1.04c1.54.63 3.13 1.15 4.68 1.78.81.33 1.61.66 2.43.96.72.26 1.46.49 2.18.75.7.26 1.4.53 2.11.78.77.26 1.54.51 2.29.8.72.26 1.43.54 2.14.84.65.27 1.28.57 1.92.87.51.19 1.03.34 1.54.54.37.15.75.28 1.14.39.2 0 .4-.01.59-.03.25-.06.52-.06.77.01l.21.09c1.36-.91 2.72-1.82 4.11-2.69 1.12-.7 2.28-1.35 3.43-2 1.24-.7 2.5-1.36 3.76-2.02 1.13-.59 2.26-1.19 3.39-1.79 1.6-.85 3.21-1.66 4.84-2.43 1.52-.72 3.06-1.41 4.59-2.11 1.53-.71 3.07-1.45 4.6-2.16 1.45-.68 2.91-1.32 4.36-2 1.66-.77 3.31-1.55 4.96-2.33 1.45-.69 2.89-1.42 4.33-2.14 3.08-1.52 6.16-3.02 9.21-4.56 3.02-1.53 6.09-2.96 9.08-4.55 3.08-1.64 6.15-3.3 9.21-4.96 2.92-1.58 5.84-3.15 8.79-4.66 1.52-.78 3.03-1.56 4.56-2.32.73-.36 1.46-.72 2.19-1.07.18-.09.36-.17.55-.25-.12-.09-.25-.16-.39-.23zm2.972 4.51c-.685-.26-1.358-.55-2.032-.84-.306-.17-.528-.46-.616-.8v-.06c-1.56.72-3.106 1.48-4.65 2.23-2.26 1.1-4.496 2.25-6.713 3.43-3.08 1.65-6.15 3.34-9.22 5.02-1.43.78-2.86 1.58-4.31 2.34-1.61.83-3.23 1.64-4.86 2.45-3.04 1.5-6.05 3.06-9.08 4.58-3.06 1.52-6.11 3.06-9.19 4.54-2.99 1.44-6.02 2.77-9.02 4.19-3.13 1.48-6.3 2.91-9.43 4.42-1.5.71-2.96 1.52-4.43 2.3-1.55.83-3.11 1.65-4.66 2.48-1.51.81-2.99 1.67-4.46 2.55-1.65.97-3.23 2.06-4.82 3.13-.18.12-.39.18-.61.17-.17.15-.38.26-.6.33-.49.19-1.01.27-1.53.25-.24-.03-.49-.07-.73-.11-.26-.05-.51-.13-.76-.23-.7-.27-1.4-.54-2.08-.85-.27-.13-.53-.28-.8-.43-.28-.16-.57-.29-.87-.43-.54-.25-1.09-.48-1.64-.71-.33-.14-.67-.29-1.01-.42-.74-.29-1.5-.56-2.23-.86-.7-.29-1.4-.59-2.11-.84-.74-.27-1.49-.52-2.22-.81-.81-.31-1.62-.64-2.43-.95-1.55-.6-3.14-1.08-4.69-1.7-1.57-.63-3.17-1.19-4.72-1.88-1.55-.69-3.03-1.45-4.55-2.16-1.5-.71-3-1.41-4.45-2.24-.68-.39-1.36-.81-2.07-1.17-.79-.4-1.59-.79-2.39-1.17-.63-.3-1.24-.62-1.85-.95-.22.22-.49.38-.78.47-.36.1-.72.21-1.08.31.16.09.32.18.49.26.98.53 1.98 1.02 2.97 1.53.95.49 1.9.98 2.87 1.43.97.45 1.94.9 2.92 1.33 1.21.5 2.43.97 3.65 1.44 1.32.51 2.65 1.03 3.93 1.64.18.1.32.26.39.45.14-.067.29-.1.44-.108.08 0 .17.01.25.04 1.23.49 2.47.96 3.68 1.5 1.12.5 2.24 1 3.37 1.49 1.18.5 2.36 1.01 3.54 1.52l1.23.52-.25-.1c.9.37 1.79.76 2.67 1.16.4.18.79.39 1.19.57.4.19.8.37 1.21.55 1.19.5 2.39.985 3.55 1.55 1.12.54 2.23 1.08 3.37 1.57.42.18.83.35 1.25.535.21.07.4.17.59.28.22.13.41.31.55.52.02.05.04.11.06.16.47-.23.92-.49 1.37-.74 1-.56 2.01-1.1 3.03-1.63 1.06-.56 2.1-1.16 3.14-1.75 2.03-1.16 4.05-2.32 6.1-3.44 2.08-1.133 4.12-2.32 6.23-3.4 1.1-.57 2.2-1.13 3.32-1.664 1.12-.54 2.25-1.06 3.38-1.58 2.13-.99 4.27-1.97 6.42-2.92 2.24-.99 4.47-2 6.69-3.03 1.13-.53 2.256-1.06 3.356-1.64 1.07-.57 2.14-1.14 3.217-1.71 1.03-.54 2.07-1.07 3.09-1.618 1.05-.56 2.1-1.13 3.15-1.68 2.17-1.13 4.324-2.29 6.5-3.41 1.03-.538 2.08-1.047 3.11-1.587 1.08-.565 2.17-1.11 3.245-1.674 2.14-1.127 4.27-2.29 6.42-3.4 2.15-1.12 4.3-2.18 6.44-3.27 1.09-.546 2.156-1.13 3.23-1.69 1.08-.56 2.147-1.08 3.22-1.61 1.1-.53 2.23-1 3.38-1.41.62-.22 1.24-.45 1.86-.68h-.02zm-.054 3.84c-.285-.22-.586-.41-.9-.58-.13-.05-.264-.08-.4-.1h-.054c-.19-.02-.374-.08-.534-.19-.3.11-.612.22-.915.35-1.938.87-3.85 1.81-5.73 2.81-1.838.97-3.7 1.88-5.553 2.82-2.17 1.1-4.315 2.24-6.46 3.38-2.116 1.13-4.247 2.22-6.364 3.35-1.1.58-2.2 1.15-3.3 1.74l-3.062 1.65c-1.036.55-2.08 1.1-3.13 1.64-1.082.55-2.155 1.12-3.24 1.67-1.085.55-2.2 1.09-3.29 1.65-1.05.53-2.083 1.08-3.134 1.59-2.186 1.08-4.414 2.07-6.637 3.07-2.224.99-4.475 1.96-6.696 2.97-2.22 1.01-4.48 2.03-6.7 3.08-2.17 1.03-4.3 2.15-6.42 3.28-1.02.54-2.03 1.11-3.05 1.65-1.07.57-2.11 1.17-3.15 1.78-.98.58-1.95 1.18-2.94 1.75-1.04.59-2.08 1.16-3.13 1.71-1 .53-1.99 1.08-2.97 1.65-.45.26-.9.53-1.37.76-.34.17-.69.33-1.04.48-.26.21-.6.28-.92.19-.35-.1-.62-.37-.71-.71-.02-.1-.03-.21-.04-.32.01-.12.04-.24.09-.35-.1-.06-.2-.12-.31-.17-.25-.13-.49-.26-.74-.38-.5-.25-1-.5-1.5-.74-1.04-.51-2.08-1.04-3.14-1.5-1.52-.64-3.06-1.22-4.54-1.94-.98-.48-1.98-.89-2.98-1.33-.99-.44-2-.86-3-1.3-1.02-.45-2.04-.88-3.05-1.34-.94-.43-1.87-.86-2.82-1.27-.85-.35-1.71-.7-2.57-1.04-.25-.08-.46-.24-.6-.46-.02-.03-.02-.06-.03-.09-.05.03-.1.05-.15.07-.27.07-.55.03-.78-.1-.18-.09-.37-.17-.55-.26-2.7-1.12-5.5-1.99-8.19-3.13-1.36-.57-2.74-1.08-4.1-1.64-.82-.34-1.63-.68-2.44-1.02-.41.33-.81.66-1.21 1l-.25.2c.94.53 1.92 1.01 2.92 1.43 1.01.41 2.03.8 3.07 1.14 1 .33 2.02.61 3.01.99 1.01.38 2.01.81 3.02 1.2 1.06.42 2.15.8 3.23 1.19 1.18.42 2.34.93 3.52 1.39 1.17.45 2.35.9 3.52 1.37 1.16.48 2.33.89 3.49 1.37.67.28 1.34.56 2 .86.55.25 1.09.53 1.64.78 1.19.55 2.39 1.08 3.58 1.63 1.13.53 2.25 1.08 3.38 1.62.55.27 1.11.53 1.66.82.6.31 1.19.64 1.78.98 1.03.59 2.09 1.12 3.17 1.59.27.11.54.22.8.34.25.12.48.28.68.48.26-.12.53-.24.79-.37.86-.41 1.72-.82 2.58-1.24 1.66-.81 3.32-1.64 4.99-2.44 2.08-1 4.2-1.94 6.27-2.95 2.14-1.04 4.29-2.08 6.43-3.14 2.06-1.02 4.14-2.02 6.18-3.09 2.04-1.07 4.1-2.17 6.14-3.25 4.12-2.17 8.3-4.24 12.36-6.53 1.01-.568 2.01-1.137 3.02-1.71.98-.55 1.96-1.1 2.98-1.59 2.1-1.01 4.28-1.89 6.38-2.918 2.06-1.01 4.13-2.04 6.21-3.02 2.12-1 4.27-1.96 6.43-2.874.67-.287 1.34-.56 2.02-.84 1.22-.52 2.43-1.07 3.65-1.61 1.16-.52 2.32-1.04 3.48-1.58 2.13-1.01 4.3-1.936 6.43-2.95 1.01-.48 2.02-.967 3.03-1.44.5-.235 1-.47 1.49-.715.27-.14.55-.27.82-.41-.26-.13-.51-.26-.76-.4-.26-.184-.53-.365-.8-.55zm-19.34 10.48h-.01.01zm-48.595-18.3c-.484.02-.965.08-1.44.18-.423.08-.84.22-1.256.32-.37.09-.7.28-.95.56-1.22.1-2.43.29-3.62.57-1.04.22-2.06.49-3.06.82-1.01.34-1.98.81-2.87 1.39-1.007.67-1.85 1.55-2.466 2.59-.57.96-.86 2.06-.84 3.18.02.59.13 1.18.32 1.75.2.61.48 1.2.84 1.74 1.36 1.84 3.28 3.21 5.47 3.89.52.18 1.04.37 1.57.52 1.27.34 2.56.55 3.87.63.92.08 1.83.1 2.75.11.77.01 1.54 0 2.31-.06.86-.06 1.7-.16 2.56-.26.98-.12 1.95-.29 2.92-.48.34-.06.67-.13 1-.21.45-.11.92-.2 1.36-.33l1.41-.42c.41-.12.81-.28 1.21-.42.87-.31 1.72-.67 2.55-1.07.66-.3 1.3-.66 1.91-1.05 1.06-.63 1.94-1.52 2.57-2.58.3-.6.45-1.25.45-1.92l-.03-.24c-.01-.24-.05-.49-.12-.72-.26-.85-.68-1.65-1.24-2.35-.43-.51-.92-.96-1.46-1.34-.47-.35-.96-.67-1.46-.97-.71-.39-1.44-.73-2.19-1.01-.88-.35-1.79-.64-2.71-.89-.96-.28-1.93-.54-2.91-.77-1.04-.25-2.09-.5-3.14-.74-.6-.14-1.2-.25-1.81-.34-.44-.08-.89-.12-1.34-.13h-.1zm-6.463 4.13c.79-.26 1.597-.48 2.41-.65.18.39.48.72.85.94.5.28 1.08.35 1.633.21.264-.05.53-.09.793-.13.457-.04.92-.04 1.377 0 1.6.25 3.186.57 4.775.88 2.17.36 4.304.92 6.374 1.67.75.33 1.464.74 2.135 1.22.215.18.416.38.6.59.11.16.21.33.3.5.038.1.07.2.1.31l-.02.07c-.022.04-.05.09-.075.13-.17.18-.35.36-.54.52-.265.19-.53.37-.8.55-.36.22-.735.42-1.12.59-.222.1-.45.2-.675.3-.716.27-1.43.54-2.16.78-.29.1-.58.18-.874.27-.41.11-.815.25-1.23.34-.772.17-1.544.36-2.325.5-.67.12-1.337.22-2 .32-.54.06-1.08.13-1.625.16-.736.04-1.464.06-2.2.07-1.44.01-2.88-.07-4.313-.23-.91-.12-1.806-.34-2.674-.63-.417-.15-.835-.3-1.246-.46-.755-.33-1.475-.74-2.15-1.22-.32-.28-.62-.58-.9-.9-.175-.26-.333-.53-.472-.8-.085-.24-.155-.48-.21-.73-.01-.2-.007-.41.008-.61.05-.25.12-.49.2-.72.15-.31.325-.61.52-.9.274-.32.575-.61.9-.88.7-.5 1.45-.92 2.24-1.26.787-.32 1.59-.59 2.4-.85h-.01zm21.35 5.67c-.007.07-.016.14-.03.21l.03-.22zm-.075.12l-.04.09.04-.1zm9.864-17.22c-.14.03-.27.11-.37.21-.16.16-.24.37-.25.59 0 .1.01.21.03.31.07.25.26.45.52.52.35.09.7.19 1.05.3.14.04.29.03.43-.02l.04.01 1.11.25c.48.11.96.23 1.44.36 1.11.3 2.22.6 3.31.98 1.09.37 2.18.76 3.27 1.14.48.17.96.36 1.43.56l1.96.82c.67.18 1.39-.11 1.74-.71.2-.36.26-.79.15-1.19l-.16-.37c-.14-.23-.33-.42-.56-.56-.69-.3-1.39-.59-2.08-.87-.53-.22-1.08-.4-1.62-.59-.17-.06-.35-.1-.53-.15l-1.09-.3c-.55-.15-1.12-.26-1.67-.38-.51-.12-1.03-.2-1.55-.29-.5-.1-.99-.17-1.49-.24-.59-.08-1.19-.18-1.78-.24l-1.86-.17c-.31-.06-.62-.1-.93-.12-.21-.01-.42.03-.61.11zm-64 31.07c-.16.59.19 1.2.78 1.37 1.54.56 3.11 1.01 4.68 1.48 1.37.41 2.75.76 4.13 1.13l1.98.53c.67.18 1.33.4 2 .6.62.18 1.23.4 1.85.6.7.22 1.4.44 2.1.68.77.21 1.57-.25 1.79-1.03.11-.38.05-.78-.14-1.13-.2-.32-.51-.56-.87-.67-.7-.22-1.39-.46-2.08-.7-.61-.21-1.22-.43-1.83-.61l-1.09-.33c-.3-.09-.6-.2-.9-.27-.66-.16-1.31-.33-1.97-.48-1.41-.31-2.82-.61-4.24-.9-1.61-.34-3.22-.7-4.83-1.06-.09-.02-.18-.03-.27-.03-.51-.02-.96.32-1.1.81l.01-.01zm7.54-48.08c-.27.39-.59.74-.96 1.03-.46.35-.95.64-1.48.87-.47.2-.94.4-1.42.57-.98.32-1.99.56-3.01.72l-.05.01c0 .05 0 .11.01.17.06 1.44.14 2.88.23 4.33-.01.4-.18.77-.47 1.04s-.67.41-1.06.39c-.39-.02-.76-.19-1.02-.47-.25-.29-.39-.66-.39-1.04-.08-1.37-.2-2.75-.26-4.12-.66.04-1.32.08-1.98.06l-.1.98c-.01.33-.15.64-.39.86-.23.22-.55.34-.87.32-.32-.01-.63-.15-.84-.39-.21-.24-.33-.54-.33-.86-.03-.39-.03-.78-.04-1.17-1.26-.17-2.5-.43-3.72-.77-.45-.13-.9-.25-1.35-.4-.53-.17-1.05-.37-1.55-.61-.41-.21-.79-.48-1.12-.8-.46-.5-.43-1.28.06-1.74.41-.38 1.02-.44 1.49-.14.23.16.48.31.74.43.83.35 1.7.62 2.56.89.96.31 1.94.55 2.93.73.01-.13.01-.27.02-.4.04-.47.05-.95.11-1.41.15-1.28.25-2.57.44-3.85l.06-.4c-.13-.06-.26-.11-.38-.17-.35-.19-.7-.38-1.03-.6-.38-.24-.74-.53-1.06-.84-.72-.71-1.16-1.65-1.25-2.66-.02-1 .31-1.98.95-2.76.62-.76 1.32-1.44 2.1-2.03.72-.54 1.46-1.07 2.21-1.56.09-.06.19-.11.28-.17.29-1.53.57-3.06.87-4.58.1-.35.33-.64.65-.8.31-.17.68-.21 1.02-.1.34.1.63.34.8.65.15.32.19.68.1 1.02-.15.76-.29 1.52-.43 2.27.31-.12.63-.22.95-.33.21-1.07.41-2.14.63-3.21.09-.31.3-.57.59-.72.28-.16.62-.19.93-.1.31.09.57.3.72.59.14.29.17.62.09.93-.12.6-.22 1.21-.33 1.82 1.22-.21 2.46-.31 3.7-.29.14 0 .27.02.4.06.73.22 1.19.95 1.07 1.71-.12.75-.78 1.31-1.54 1.29-.62 0-1.23.03-1.84.08-.71.08-1.4.2-2.09.38-.1.03-.19.06-.28.09l-.27 1.59c-.1 1.1-.21 2.2-.32 3.3l-.25 2.61c-.05.47-.06.94-.08 1.4 0 .06-.01.11-.01.17.46.16.91.32 1.37.49.42.16.85.31 1.27.47.45.17.9.39 1.33.59.47.21.91.46 1.34.75.2.14.39.28.58.44.15.12.3.24.44.36l.16.15c.15.19.29.4.4.62.1.22.17.46.21.7.09.53-.02 1.08-.33 1.53zM56.71 58.57c-.08.114-.157.23-.227.35-.03.09-.058.177-.083.267v.085c.04.08.083.16.13.238.093.117.193.228.3.334.13.1.274.18.412.272l.158-1.066c.07-.468.16-.932.25-1.4-.33.292-.644.6-.94.926v-.004zm2.65 6.224c-.05.436-.112.87-.16 1.31-.14 1.28-.27 2.56-.385 3.84l-.012.126c.126 0 .25.02.376.02.43 0 .86-.04 1.28-.06 0-.1-.01-.21-.01-.312l.08-2.623c.02-.5.05-.995.09-1.493l.04-.412c-.43-.128-.87-.243-1.29-.39v-.005zm1.96-6.394l.348-2.84c.04-.272.09-.538.14-.8-.24.12-.48.24-.71.376-.09.052-.17.114-.258.167-.23 1.3-.46 2.6-.7 3.9-.1.723-.2 1.446-.306 2.168.37.15.75.28 1.123.42.11-1.13.244-2.25.382-3.39zm5.845 8.893c-1.207-.493-2.442-.912-3.7-1.254-.015.41-.04.82-.04 1.24 0 .56 0 1.12-.008 1.68 0 .25-.01.5 0 .75.93-.16 1.85-.4 2.74-.7.554-.22 1.09-.49 1.592-.8.15-.12.28-.25.41-.38-.32-.2-.66-.37-1-.53v-.01zm1 .4l.05.072-.048-.065-.01-.007zm90.26 89.806c.8-.17 1.6-.32 2.394-.51.42-.12.87-.06 1.25.16.56.33.87.96.79 1.61-.09.64-.55 1.18-1.17 1.35-1.4.31-2.77.71-4.16 1.01-1 .21-1.99.42-3 .56-1.03.16-2.06.26-3.11.29-1.04.02-2.08-.04-3.12-.17-1.02-.12-2.03-.33-3.02-.62-1.78-.53-3.43-1.45-4.81-2.7-.17-.16-.31-.35-.47-.52l-.18.05c-.4.11-.8.22-1.2.3-.28.04-.56.06-.84.05h-.25c-.4-.01-.71-.33-.72-.72 0-.32.21-.6.52-.69l1.3-.5c.06-.02.12-.03.19-.03-.03-.05-.07-.1-.09-.15-.47-.8-.7-1.72-.68-2.65.03-.38.11-.76.23-1.13-.39-.02-.78-.05-1.17-.1-.33-.03-.66-.09-.98-.19-.23-.09-.46-.2-.68-.31-.32-.18-.47-.55-.37-.9.09-.35.41-.59.77-.59.28.01.56.02.84.06l.16.02c.27.01.54.01.81-.01.59-.03 1.18-.08 1.76-.15.4-.56.84-1.08 1.3-1.58 1.21-1.31 2.57-2.47 4.06-3.46 2.99-1.99 6.39-3.28 9.94-3.8.78-.12 1.57-.19 2.35-.2.2 0 .4 0 .6.02.46.03.92.07 1.37.14.43.05.85.13 1.27.23.43.11.85.27 1.24.48.29.14.53.35.72.61.09.14.14.3.16.46.01.15-.01.29-.05.44-.1.28-.28.53-.53.7-.24.25-.64.25-.89.01s-.25-.64-.01-.89l-.05-.02c-.38-.14-.78-.25-1.18-.31-.6-.08-1.21-.12-1.81-.11-.56.01-1.11.05-1.66.12-1.86.29-3.67.79-5.4 1.51-1.84.8-3.58 1.81-5.18 3.02-.66.53-1.29 1.11-1.88 1.73.27-.07.54-.13.81-.19.91-.22 1.83-.42 2.75-.62.91-.2 1.82-.38 2.74-.55 1.01-.19 2.04-.31 3.07-.41.03-.01.06-.01.09 0 .38.02.73.18 1 .45.6.61.6 1.58 0 2.19-.19.19-.42.33-.68.4l-.41.05c-.49.05-.97.11-1.46.17-1.67.23-3.34.45-5 .71-1.18.18-2.36.37-3.54.53-.54.07-1.08.13-1.62.18-.08.15-.17.29-.24.44-.08.2-.14.41-.18.63-.01.13-.01.25-.01.38.03.13.07.26.11.4.16.33.36.65.57.95.05.06.1.1.15.15.31-.11.61-.23.92-.33 1.4-.46 2.84-.82 4.29-1.08 1.46-.27 2.91-.55 4.38-.75.22-.06.45-.06.67 0l.3.12c.6.35.8 1.12.45 1.72-.16.29-.43.5-.75.58-.99.16-1.99.27-2.98.39l-2.1.27c-.82.13-1.64.26-2.46.43-.28.06-.56.14-.83.21.36.22.74.41 1.12.59 1.11.43 2.26.73 3.44.89 1.95.2 3.92.16 5.86-.13l-.46.06.46-.06c1.38-.2 2.75-.5 4.12-.78v-.01z"/>
  </g>
</svg>
