<svg xmlns="http://www.w3.org/2000/svg" viewBox="0 0 1123.5 640">
  <title>clipping-bg-01</title>
  <g style="isolation: isolate">
    <g style="opacity: 0.7000000000000001">
      <g style="opacity: 0.22;mix-blend-mode: multiply">
        <path d="M1042.3-330.2L641.2-557.3a161.6,161.6,0,0,0-158.9,0L81.2-330.2C32-302.3,1.7-250.9,1.7-195.2V259.2c0,55.7,30.3,107.2,79.5,135L482.3,621.3a161.6,161.6,0,0,0,158.9,0l401.1-227.2c49.2-27.8,79.5-79.3,79.5-135V-195.2C1121.7-250.9,1091.4-302.3,1042.3-330.2Z"/>
      </g>
      <path d="M1042.3-332.2L641.2-559.3a161.6,161.6,0,0,0-158.9,0L81.2-332.2C32-304.3,1.7-252.9,1.7-197.2V257.2c0,55.7,30.3,107.2,79.5,135L482.3,619.3a161.6,161.6,0,0,0,158.9,0l401.1-227.2c49.2-27.8,79.5-79.3,79.5-135V-197.2C1121.7-252.9,1091.4-304.3,1042.3-332.2Z" style="fill: #09afbc"/>
    </g>
  </g>
</svg>
