<svg xmlns="http://www.w3.org/2000/svg" xmlns:xlink="http://www.w3.org/1999/xlink" viewBox="0 0 1164.2 751">
  <defs>
    <clipPath id="a">
      <path d="M1045.6-242.4l-402-227.2a162.3,162.3,0,0,0-159.3,0L82.3-242.4C33-214.5,2.6-163.1,2.6-107.4V346.9c0,55.7,30.4,107.2,79.6,135l402,227.2a162.3,162.3,0,0,0,159.3,0l402-227.2c49.3-27.8,79.6-79.3,79.6-135V-107.4C1125.2-163.1,1094.9-214.5,1045.6-242.4Z" style="fill: none"/>
    </clipPath>
  </defs>
  <title>clipping-bg</title>
  <g style="clip-path: url(#a)">
    <path d="M1084.6-221.4l-402-227.2a162.3,162.3,0,0,0-159.3,0l-402,227.2C72-193.5,41.6-142.1,41.6-86.4V367.9c0,55.7,30.4,107.2,79.6,135l402,227.2a162.3,162.3,0,0,0,159.3,0l402-227.2c49.3-27.8,79.6-79.3,79.6-135V-86.4C1164.2-142.1,1133.9-193.5,1084.6-221.4Z" style="fill: #09afbc"/>
  </g>
</svg>
