<svg xmlns="http://www.w3.org/2000/svg" viewBox="0 0 1121.8 640">
  <title>clipping-bg-01-01</title>
  <g style="isolation: isolate">
    <g>
      <g>
        <g style="opacity: 0.22;mix-blend-mode: multiply">
          <path d="M1040.5-330.4L639.5-557.5a161.6,161.6,0,0,0-158.9,0L79.5-330.4C30.3-302.5,0-251.1,0-195.4V258.9c0,55.7,30.3,107.2,79.5,135L480.5,621.1a161.6,161.6,0,0,0,158.9,0L1040.5,394c49.2-27.8,79.5-79.3,79.5-135V-195.4C1120-251.1,1089.7-302.5,1040.5-330.4Z"/>
        </g>
        <path d="M1040.5-332.4L639.5-559.5a161.6,161.6,0,0,0-158.9,0L79.5-332.4C30.3-304.5,0-253.1,0-197.4V256.9c0,55.7,30.3,107.2,79.5,135L480.5,619.1a161.6,161.6,0,0,0,158.9,0L1040.5,392c49.2-27.8,79.5-79.3,79.5-135V-197.4C1120-253.1,1089.7-304.5,1040.5-332.4Z" style="fill: #09afbc"/>
      </g>
      <rect x="4.8" y="-1" width="1118" height="684" style="fill: none"/>
    </g>
  </g>
</svg>
