<svg xmlns="http://www.w3.org/2000/svg" viewBox="0 0 1120 1222.4">
  <title>clipping-bg-01-01</title>
  <g style="isolation: isolate">
    <g>
      <g>
        <g style="opacity: 0.22;mix-blend-mode: multiply">
          <path d="M1038.8,249.8L637.7,22.7a161.6,161.6,0,0,0-158.9,0L77.7,249.8c-49.2,27.8-79.5,79.3-79.5,135V839.2c0,55.7,30.3,107.2,79.5,135l401.1,227.2a161.6,161.6,0,0,0,158.9,0l401.1-227.2c49.2-27.8,79.5-79.3,79.5-135V384.8C1118.3,329.1,1088,277.7,1038.8,249.8Z"/>
        </g>
        <path d="M1038.8,247.8L637.7,20.7a161.6,161.6,0,0,0-158.9,0L77.7,247.8c-49.2,27.8-79.5,79.3-79.5,135V837.2c0,55.7,30.3,107.2,79.5,135l401.1,227.2a161.6,161.6,0,0,0,158.9,0l401.1-227.2c49.2-27.8,79.5-79.3,79.5-135V382.8C1118.3,327.1,1088,275.7,1038.8,247.8Z" style="fill: #09afbc"/>
      </g>
      <rect x="3.1" y="579.2" width="1118" height="684" style="fill: none"/>
    </g>
  </g>
</svg>
