<svg xmlns="http://www.w3.org/2000/svg" xmlns:xlink="http://www.w3.org/1999/xlink" viewBox="0 0 1161.6 1241.4">
	<defs>
		<linearGradient id="a" x1="943" y1="-331.97" x2="184.86" y2="571.55" gradientUnits="userSpaceOnUse">
			<stop offset="0" stop-opacity="0"/>
			<stop offset="1"/>
		</linearGradient>
	</defs>
	<title>clip</title>
	<g style="isolation: isolate">
		<path d="M1084.6-221.4l-402-227.2a162.3,162.3,0,0,0-159.3,0l-402,227.2C72-193.5,41.6-142.1,41.6-86.4V367.9c0,55.7,30.4,107.2,79.6,135l402,227.2a162.3,162.3,0,0,0,159.3,0l402-227.2c49.3-27.8,79.6-79.3,79.6-135V-86.4C1164.2-142.1,1133.9-193.5,1084.6-221.4Z" transform="translate(-2.6 490.4)" style="fill: #09afbc"/>
		<g style="opacity: 0.7000000000000001">
			<g style="opacity: 0.22;mix-blend-mode: multiply">
				<path d="M1045.6-240.4l-402-227.2a162.3,162.3,0,0,0-159.3,0L82.3-240.4C33-212.5,2.6-161.1,2.6-105.4V348.9c0,55.7,30.4,107.2,79.6,135l402,227.2a162.3,162.3,0,0,0,159.3,0l402-227.2c49.3-27.8,79.6-79.3,79.6-135V-105.4C1125.2-161.1,1094.9-212.5,1045.6-240.4Z" transform="translate(-2.6 490.4)"/>
			</g>
			<path d="M1045.6-242.4l-402-227.2a162.3,162.3,0,0,0-159.3,0L82.3-242.4C33-214.5,2.6-163.1,2.6-107.4V346.9c0,55.7,30.4,107.2,79.6,135l402,227.2a162.3,162.3,0,0,0,159.3,0l402-227.2c49.3-27.8,79.6-79.3,79.6-135V-107.4C1125.2-163.1,1094.9-214.5,1045.6-242.4Z" transform="translate(-2.6 490.4)" style="fill: url(#a)"/>
		</g>
	</g>
</svg>
