<?xml version="1.0" encoding="UTF-8" standalone="no"?>
<svg width="32px" height="36px" viewBox="0 0 32 36" version="1.1" xmlns="http://www.w3.org/2000/svg" xmlns:xlink="http://www.w3.org/1999/xlink" xmlns:sketch="http://www.bohemiancoding.com/sketch/ns">
    <!-- Generator: Sketch 3.2.2 (9983) - http://www.bohemiancoding.com/sketch -->
    <title>Slice 1</title>
    <desc>Created with Sketch.</desc>
    <defs></defs>
    <g id="Page-1" stroke="none" stroke-width="1" fill="none" fill-rule="evenodd" sketch:type="MSPage">
        <path d="M28.87,7.798 L18.127,1.578 C16.811,0.814 15.187,0.814 13.871,1.578 L3.13,7.798 C1.81,8.56 1,9.97 1,11.495 L1,23.937 C1,25.463 1.81,26.872 3.128,27.635 L13.871,33.855 C15.191,34.619 16.811,34.619 18.131,33.855 L28.874,27.635 C30.192,26.872 31.004,25.463 31.004,23.937 L31.004,11.497 C31.004,9.97 30.194,8.561 28.874,7.797 L28.87,7.798 L28.87,7.798 Z" id="Shape" fill="#000000" sketch:type="MSShapeGroup"></path>
        <path d="M20.303,17.91 C19.838,17.389 19.22,17.044 18.448,16.876 L18.448,16.806 C18.985,16.573 19.406,16.209 19.711,15.714 C20.016,15.22 20.169,14.655 20.169,14.021 C20.169,13.474 20.058,12.991 19.837,12.571 C19.616,12.152 19.282,11.818 18.834,11.567 C18.419,11.335 17.976,11.182 17.503,11.109 C17.03,11.036 16.335,11 15.416,11 L11,11 L11,24 L16.004,24 C16.872,24 17.587,23.918 18.149,23.755 C18.712,23.593 19.228,23.319 19.699,22.935 C20.096,22.615 20.412,22.21 20.647,21.721 C20.882,21.232 21,20.665 21,20.019 C21,19.134 20.768,18.431 20.303,17.91 L20.303,17.91 L20.303,17.91 Z M14.124,13.383 L14.342,13.383 C14.902,13.383 15.323,13.388 15.605,13.396 C15.888,13.405 16.133,13.456 16.34,13.549 C16.559,13.648 16.719,13.808 16.823,14.029 C16.926,14.251 16.978,14.466 16.978,14.675 C16.978,14.961 16.93,15.211 16.836,15.426 C16.74,15.642 16.567,15.811 16.315,15.933 C16.085,16.043 15.863,16.104 15.648,16.116 C15.432,16.128 15.056,16.133 14.518,16.133 L14.124,16.133 L14.124,13.383 L14.124,13.383 Z M17.57,20.8 C17.439,21.047 17.23,21.235 16.945,21.363 C16.62,21.509 16.301,21.587 15.988,21.599 C15.674,21.611 15.109,21.617 14.292,21.617 L14.124,21.617 L14.124,18.36 L14.703,18.36 C15.263,18.36 15.709,18.364 16.042,18.373 C16.375,18.382 16.637,18.424 16.827,18.5 C17.141,18.616 17.375,18.788 17.532,19.015 C17.689,19.242 17.768,19.556 17.768,19.957 C17.768,20.272 17.702,20.553 17.57,20.8 L17.57,20.8 L17.57,20.8 Z" id="Shape" fill="#FFFFFF" sketch:type="MSShapeGroup"></path>
    </g>
</svg>