<svg id="Button" xmlns="http://www.w3.org/2000/svg" width="264" height="40" viewBox="0 0 264 40">
  <defs>
    <style>
      .cls-1 {
        fill: #06b7c5;
        fill-rule: evenodd;
      }

      .cls-2 {
        font-size: 20.7px;
        fill: #fff;
        font-family: "Roboto Condensed";
      }
    </style>
  </defs>
  <path id="Shape_2_copy_23" data-name="Shape 2 copy 23" class="cls-1" d="M31.536,1H241.8a3,3,0,0,1,3,3V38a3,3,0,0,1-3,3H31.536a3,3,0,0,1-3-3V4A3,3,0,0,1,31.536,1ZM39.2,38.162l8.688-14.325a5.441,5.441,0,0,0,0-5.675L39.2,3.836A6.023,6.023,0,0,0,34.034,1H16.658a6.024,6.024,0,0,0-5.163,2.838L2.807,18.161a5.441,5.441,0,0,0,0,5.675l8.688,14.325A6.024,6.024,0,0,0,16.658,41H34.034A6.023,6.023,0,0,0,39.2,38.162Zm217.322,0,8.688-14.325a5.44,5.44,0,0,0,0-5.675L256.519,3.836A6.023,6.023,0,0,0,251.356,1H233.98a6.023,6.023,0,0,0-5.163,2.838l-8.688,14.325a5.44,5.44,0,0,0,0,5.675l8.688,14.325A6.023,6.023,0,0,0,233.98,41h17.376A6.023,6.023,0,0,0,256.519,38.162Z" transform="translate(-2.031 -1)"/>
  <text id="Получить_финансирование" data-name="Получить финансирование" class="cls-2" transform="translate(15.547 26.115) scale(1 0.87)">Получить финансирование</text>
</svg>
