<?xml version="1.0" encoding="UTF-8" standalone="no"?>
<svg width="74px" height="82px" viewBox="0 0 74 82" version="1.1" xmlns="http://www.w3.org/2000/svg" xmlns:xlink="http://www.w3.org/1999/xlink" xmlns:sketch="http://www.bohemiancoding.com/sketch/ns">
    <!-- Generator: Sketch 3.2.2 (9983) - http://www.bohemiancoding.com/sketch -->
    <title>Slice 1</title>
    <desc>Created with Sketch.</desc>
    <defs></defs>
    <g id="Page-1" stroke="none" stroke-width="1" fill="none" fill-rule="evenodd" sketch:type="MSPage">
        <path d="M68.754,17.25775 L42.252,2.36875 C39.003,0.54375 35,0.54375 31.752,2.36875 L5.25,17.25775 C2.001,19.08275 0,22.45475 0,26.10675 L0,55.88475 C0,59.53575 2.001,62.90975 5.25,64.73475 L31.752,79.62375 C35,81.44875 39.003,81.44875 42.252,79.62375 L68.754,64.73475 C72.003,62.90975 74.003,59.53575 74.003,55.88475 L74.003,26.10675 C74.003,22.45475 72.003,19.08275 68.754,17.25775 L68.754,17.25775 Z" id="Shape" fill="#FF0044" sketch:type="MSShapeGroup"></path>
        <text id="322" sketch:type="MSTextLayer" font-family="Open Sans" font-size="14" font-weight="normal" sketch:alignment="middle" fill="#FFFFFF">
            <tspan x="24.9926758" y="63">322</tspan>
        </text>
        <path d="M42.7215,22 C40.3815,22 38.3015,23.182 37.0015,25.02 C35.7015,23.182 33.6215,22 31.2815,22 C27.2515,22 24.0015,25.283 24.0015,29.353 C24.0015,35.131 37.0015,45.636 37.0015,45.636 C37.0015,45.636 50.0015,35.131 50.0015,29.353 C50.0015,25.283 46.7515,22 42.7215,22 L42.7215,22 Z" id="Shape" fill="#FFFFFF" sketch:type="MSShapeGroup"></path>
    </g>
</svg>