<svg xmlns="http://www.w3.org/2000/svg" xmlns:xlink="http://www.w3.org/1999/xlink" preserveAspectRatio="xMidYMid" width="10.188" height="23.063" viewBox="0 0 10.188 23.063">
  <defs>
    <style>
      .cls-1 {
        fill: #fff;
        fill-rule: evenodd;
      }
    </style>
  </defs>
  <path d="M9.076,20.848 C8.705,20.951 8.374,21.002 8.081,21.002 C7.457,21.002 7.018,20.900 6.764,20.695 C6.511,20.490 6.384,20.104 6.384,19.537 C6.384,19.313 6.423,18.981 6.502,18.541 C6.580,18.102 6.668,17.711 6.766,17.369 L7.971,13.107 C8.088,12.716 8.169,12.286 8.213,11.818 C8.256,11.349 8.278,11.022 8.278,10.836 C8.278,9.938 7.963,9.208 7.333,8.646 C6.702,8.085 5.805,7.804 4.642,7.804 C3.996,7.804 3.312,7.919 2.588,8.148 C1.865,8.378 1.107,8.654 0.315,8.976 L-0.007,10.294 C0.227,10.206 0.509,10.114 0.837,10.016 C1.165,9.918 1.486,9.869 1.799,9.869 C2.436,9.869 2.867,9.977 3.092,10.192 C3.317,10.407 3.430,10.787 3.430,11.334 C3.430,11.637 3.393,11.971 3.320,12.338 C3.246,12.704 3.156,13.092 3.048,13.502 L1.838,17.780 C1.731,18.229 1.653,18.632 1.604,18.988 C1.555,19.345 1.531,19.694 1.531,20.035 C1.531,20.914 1.855,21.639 2.505,22.211 C3.154,22.782 4.065,23.068 5.237,23.068 C5.999,23.068 6.667,22.967 7.244,22.767 C7.820,22.567 8.591,22.277 9.558,21.896 L9.880,20.577 C9.714,20.656 9.446,20.746 9.076,20.848 ZM9.346,0.787 C8.784,0.260 8.108,-0.004 7.317,-0.004 C6.526,-0.004 5.847,0.260 5.281,0.787 C4.714,1.315 4.431,1.950 4.431,2.692 C4.431,3.434 4.714,4.066 5.281,4.589 C5.847,5.111 6.526,5.372 7.317,5.372 C8.108,5.372 8.784,5.111 9.346,4.589 C9.907,4.066 10.188,3.434 10.188,2.692 C10.188,1.950 9.907,1.315 9.346,0.787 Z" class="cls-1"/>
</svg>
