<svg xmlns="http://www.w3.org/2000/svg" xmlns:xlink="http://www.w3.org/1999/xlink" preserveAspectRatio="xMidYMid" width="20" height="16" viewBox="0 0 20 16">
  <defs>
    <style>
      .cls-1 {
        fill: #fff;
        fill-rule: evenodd;
      }
    </style>
  </defs>
  <path d="M20.000,1.895 C19.264,2.215 18.474,2.433 17.643,2.530 C18.490,2.030 19.141,1.239 19.448,0.295 C18.655,0.759 17.777,1.095 16.842,1.276 C16.093,0.491 15.027,0.000 13.847,0.000 C11.581,0.000 9.743,1.808 9.743,4.039 C9.743,4.355 9.779,4.664 9.850,4.960 C6.439,4.791 3.416,3.183 1.392,0.739 C1.039,1.336 0.837,2.030 0.837,2.771 C0.837,4.171 1.561,5.408 2.662,6.133 C1.990,6.111 1.356,5.930 0.803,5.627 C0.803,5.644 0.803,5.661 0.803,5.678 C0.803,7.635 2.218,9.268 4.094,9.639 C3.751,9.731 3.388,9.780 3.013,9.780 C2.750,9.780 2.492,9.755 2.241,9.708 C2.764,11.313 4.279,12.481 6.074,12.513 C4.671,13.596 2.901,14.242 0.978,14.242 C0.648,14.242 0.320,14.222 -0.000,14.185 C1.816,15.331 3.973,16.000 6.290,16.000 C13.837,16.000 17.964,9.845 17.964,4.508 C17.964,4.332 17.960,4.159 17.953,3.985 C18.754,3.415 19.450,2.704 20.000,1.895 Z" class="cls-1"/>
</svg>
