<svg xmlns="http://www.w3.org/2000/svg" xmlns:xlink="http://www.w3.org/1999/xlink" preserveAspectRatio="xMidYMid" width="25" height="14.125" viewBox="0 0 25 14.125">
  <defs>
    <style>
      .cls-1 {
        fill: #fff;
        fill-rule: evenodd;
      }
    </style>
  </defs>
  <path d="M12.233,13.936 L13.726,13.936 C13.726,13.936 14.177,13.886 14.408,13.643 C14.619,13.419 14.613,12.999 14.613,12.999 C14.613,12.999 14.584,11.032 15.513,10.742 C16.432,10.457 17.608,12.645 18.858,13.486 C19.802,14.123 20.520,13.983 20.520,13.983 L23.858,13.936 C23.858,13.936 25.605,13.831 24.777,12.483 C24.707,12.372 24.296,11.486 22.293,9.666 C20.199,7.759 20.479,8.067 23.004,4.770 C24.539,2.762 25.150,1.535 24.961,1.011 C24.777,0.510 23.647,0.641 23.647,0.641 L19.889,0.665 C19.889,0.665 19.609,0.628 19.402,0.748 C19.202,0.867 19.071,1.144 19.071,1.144 C19.071,1.144 18.477,2.699 17.684,4.021 C16.009,6.809 15.340,6.959 15.067,6.784 C14.432,6.378 14.590,5.163 14.590,4.296 C14.590,1.595 15.007,0.467 13.776,0.176 C13.367,0.078 13.066,0.014 12.020,0.004 C10.681,-0.010 9.545,0.009 8.904,0.317 C8.474,0.522 8.145,0.980 8.346,1.006 C8.593,1.038 9.156,1.156 9.456,1.553 C9.841,2.069 9.828,3.223 9.828,3.223 C9.828,3.223 10.051,6.404 9.311,6.798 C8.805,7.071 8.110,6.518 6.617,3.987 C5.853,2.691 5.277,1.258 5.277,1.258 C5.277,1.258 5.164,0.991 4.966,0.847 C4.726,0.674 4.388,0.618 4.388,0.618 L0.815,0.641 C0.815,0.641 0.281,0.658 0.083,0.887 C-0.092,1.088 0.069,1.509 0.069,1.509 C0.069,1.509 2.866,7.930 6.032,11.163 C8.935,14.130 12.233,13.936 12.233,13.936 L12.233,13.936 L12.233,13.936 L12.233,13.936 L12.233,13.936 Z" class="cls-1"/>
</svg>
