<?xml version="1.0" encoding="utf-8"?>
<!-- Generator: Adobe Illustrator 19.2.0, SVG Export Plug-In . SVG Version: 6.00 Build 0)  -->
<svg version="1.1" xmlns="http://www.w3.org/2000/svg" xmlns:xlink="http://www.w3.org/1999/xlink" x="0px" y="0px"
	 viewBox="0 0 1164.2 751" style="enable-background:new 0 0 1164.2 751;" xml:space="preserve">
<style type="text/css">
	.st0{fill:#09AFBC;}
	.st1{opacity:0.7;}
	.st2{opacity:0.22;}
	.st3{fill:url(#SVGID_1_);}
</style>
<g id="Layer_1">
	<path class="st0" d="M1084.6-221.4l-402-227.2c-49.3-27.8-110-27.8-159.3,0l-402,227.2c-49.3,27.8-79.6,79.3-79.6,135v454.3
		c0,55.7,30.4,107.2,79.6,135l402,227.2c49.3,27.8,110,27.8,159.3,0l402-227.2c49.3-27.8,79.6-79.3,79.6-135V-86.4
		C1164.2-142.1,1133.9-193.5,1084.6-221.4z"/>
</g>
<g id="Layer_2">
	<g class="st1">
		<g class="st2">
			<path d="M1045.6-240.4l-402-227.2c-49.3-27.8-110-27.8-159.3,0l-402,227.2C33-212.5,2.6-161.1,2.6-105.4v454.3
				c0,55.7,30.4,107.2,79.6,135l402,227.2c49.3,27.8,110,27.8,159.3,0l402-227.2c49.3-27.8,79.6-79.3,79.6-135v-454.3
				C1125.2-161.1,1094.9-212.5,1045.6-240.4z"/>
		</g>
		<g>
			<linearGradient id="SVGID_1_" gradientUnits="userSpaceOnUse" x1="942.9956" y1="-331.9664" x2="184.8576" y2="571.5473">
				<stop  offset="0" style="stop-color:#000000;stop-opacity:0"/>
				<stop  offset="1" style="stop-color:#000000"/>
			</linearGradient>
			<path class="st3" d="M1045.6-242.4l-402-227.2c-49.3-27.8-110-27.8-159.3,0l-402,227.2C33-214.5,2.6-163.1,2.6-107.4v454.3
				c0,55.7,30.4,107.2,79.6,135l402,227.2c49.3,27.8,110,27.8,159.3,0l402-227.2c49.3-27.8,79.6-79.3,79.6-135v-454.3
				C1125.2-163.1,1094.9-214.5,1045.6-242.4z"/>
		</g>
	</g>
</g>
</svg>
