<svg xmlns="http://www.w3.org/2000/svg" xmlns:xlink="http://www.w3.org/1999/xlink" preserveAspectRatio="xMidYMid" width="10" height="13" viewBox="0 0 10 13">
  <defs>
    <style>
      .cls-1 {
        fill: #fff;
        fill-rule: evenodd;
      }
    </style>
  </defs>
  <path d="M9.303,6.910 C8.838,6.389 8.220,6.044 7.448,5.876 L7.448,5.806 C7.985,5.573 8.406,5.209 8.711,4.714 C9.016,4.220 9.169,3.655 9.169,3.021 C9.169,2.474 9.058,1.991 8.837,1.571 C8.616,1.152 8.282,0.818 7.834,0.567 C7.419,0.335 6.976,0.182 6.503,0.109 C6.030,0.036 5.335,-0.000 4.416,-0.000 L0.000,-0.000 L0.000,13.000 L5.004,13.000 C5.872,13.000 6.587,12.918 7.149,12.755 C7.712,12.593 8.228,12.319 8.699,11.935 C9.096,11.615 9.412,11.210 9.647,10.721 C9.882,10.232 10.000,9.665 10.000,9.019 C10.000,8.134 9.768,7.431 9.303,6.910 L9.303,6.910 ZM3.124,2.383 L3.342,2.383 C3.902,2.383 4.323,2.388 4.605,2.396 C4.888,2.405 5.133,2.456 5.340,2.549 C5.559,2.648 5.719,2.808 5.823,3.029 C5.926,3.251 5.978,3.466 5.978,3.675 C5.978,3.961 5.930,4.211 5.836,4.426 C5.740,4.642 5.567,4.811 5.315,4.933 C5.085,5.043 4.863,5.104 4.648,5.116 C4.432,5.128 4.056,5.133 3.518,5.133 L3.124,5.133 L3.124,2.383 L3.124,2.383 ZM6.570,9.800 C6.439,10.047 6.230,10.235 5.945,10.363 C5.620,10.509 5.301,10.587 4.988,10.599 C4.674,10.611 4.109,10.617 3.292,10.617 L3.124,10.617 L3.124,7.360 L3.703,7.360 C4.263,7.360 4.709,7.364 5.042,7.373 C5.375,7.382 5.637,7.424 5.827,7.500 C6.141,7.616 6.375,7.788 6.532,8.015 C6.689,8.242 6.768,8.556 6.768,8.957 C6.768,9.272 6.702,9.553 6.570,9.800 L6.570,9.800 Z" class="cls-1"/>
</svg>
