<svg xmlns="http://www.w3.org/2000/svg" width="186" height="40" viewBox="0 0 186 40">
  <g fill="none" fill-rule="evenodd">
    <path fill="#16BB7F" d="M184.283 22.838l-8.195 14.326c-.505.882-1.226 1.594-2.072 2.084-.53.468-1.223.754-1.985.754H13.83c-2.01 0-3.866-1.082-4.87-2.838L.76 22.838c-1.004-1.756-1.004-3.92 0-5.675L8.957 2.838C9.96 1.082 11.817 0 13.827 0h16.39l.03.002h124.55l.03-.002h16.39l.03.002h.784c.76 0 1.45.284 1.98.748.85.49 1.574 1.203 2.08 2.088l8.195 14.325c1.004 1.756 1.004 3.92 0 5.675z"/>
    <text fill="#FFF" font-family="Roboto Condensed" font-size="18" font-style="condensed" font-weight="260" letter-spacing=".5">
      <tspan x="19" y="26">Заявить о себе</tspan>
    </text>
    <path fill="#FFF" d="M158.227 21.58l6.364 5.093c-.23.202-.54.327-.882.327h-15.412c-.344 0-.656-.124-.888-.325l6.367-5.094L156 23.4l2.227-1.82zM156 22.2l-8.59-6.873c.23-.202.542-.327.884-.327h15.412c.344 0 .656.123.888.325L156 22.2zm9 3.823l-6.213-4.928L165 16.05v9.973zm-18 0v-9.97l6.213 5.042L147 26.023z"/>
  </g>
</svg>
