<svg xmlns="http://www.w3.org/2000/svg" xmlns:xlink="http://www.w3.org/1999/xlink" preserveAspectRatio="xMidYMid" width="18" height="12" viewBox="0 0 18 12">
  <defs>
    <style>
      .cls-1 {
        fill: #fff;
        fill-rule: evenodd;
      }
    </style>
  </defs>
  <path d="M11.227,6.581 L17.591,11.673 C17.359,11.875 17.048,12.000 16.706,12.000 L1.294,12.000 C0.950,12.000 0.638,11.876 0.406,11.675 L6.773,6.581 L9.000,8.400 L11.227,6.581 ZM9.000,7.200 L0.409,0.327 C0.641,0.125 0.952,0.000 1.294,0.000 L16.706,0.000 C17.050,0.000 17.362,0.123 17.594,0.325 L9.000,7.200 ZM18.000,11.023 L11.787,6.095 L18.000,1.050 L18.000,11.023 L18.000,11.023 ZM0.000,11.023 L0.000,1.054 L6.213,6.095 L0.000,11.023 L0.000,11.023 Z" class="cls-1"/>
</svg>
