<svg xmlns="http://www.w3.org/2000/svg" xmlns:xlink="http://www.w3.org/1999/xlink" preserveAspectRatio="xMidYMid" width="185.031" height="40" viewBox="0 0 185.031 40">
  <defs>
    <style>
      .cls-1 {
        fill: #16bb7f;
        fill-rule: evenodd;
      }
    </style>
  </defs>
  <path d="M184.283,22.836 L176.088,37.162 C175.583,38.044 174.862,38.756 174.016,39.246 C173.487,39.714 172.793,40.000 172.031,40.000 L28.031,40.000 C28.027,40.000 28.023,39.999 28.019,39.999 L13.827,39.999 C11.818,39.999 9.961,38.918 8.956,37.162 L0.761,22.836 C-0.244,21.080 -0.244,18.917 0.761,17.161 L8.956,2.836 C9.961,1.080 11.818,-0.002 13.827,-0.002 L30.217,-0.002 C30.227,-0.002 30.237,-0.000 30.247,0.000 L154.797,0.000 C154.807,-0.000 154.817,-0.002 154.827,-0.002 L171.217,-0.002 C171.227,-0.002 171.237,-0.000 171.247,0.000 L172.031,0.000 C172.790,0.000 173.481,0.284 174.009,0.748 C174.859,1.239 175.582,1.951 176.088,2.836 L184.283,17.161 C185.287,18.917 185.287,21.080 184.283,22.836 Z" class="cls-1"/>
</svg>
