<svg xmlns="http://www.w3.org/2000/svg" style="width:0; height:0; visibility:hidden;">
    <symbol id="icon_belgazprombank" viewBox="0 0 190 54">
       <path fill="currentColor" fill-rule="evenodd" d="M186.526,32.512 L181.002,32.512 L179.795,26.891 L183.487,22.244 L189.035,22.244 L184.813,26.891 L186.526,32.512 ZM172.557,32.511 L176.611,18.911 L181.798,18.911 L177.767,32.511 L172.557,32.511 ZM166.140,32.511 L167.323,28.521 L164.476,28.521 L163.293,32.511 L158.106,32.511 L161.146,22.244 L166.309,22.244 L165.343,25.553 L168.238,25.553 L169.227,22.244 L174.368,22.244 L171.351,32.511 L166.140,32.511 ZM156.729,32.512 L151.687,32.511 C151.638,32.511 150.360,32.681 150.312,32.681 C149.829,32.753 149.323,32.803 148.816,32.803 C147.514,32.803 146.572,32.511 145.993,31.951 C145.413,31.391 145.245,30.662 145.438,29.810 C145.704,29.032 146.065,28.424 146.548,27.962 C147.005,27.524 147.537,27.183 148.139,26.963 C148.743,26.745 149.467,26.575 150.310,26.429 C151.156,26.306 151.928,26.186 152.603,26.112 C152.845,26.089 153.085,26.015 153.302,25.895 C153.494,25.747 153.641,25.626 153.665,25.505 C153.713,25.358 153.641,25.237 153.447,25.141 C153.280,25.018 152.990,24.969 152.579,24.969 C151.517,24.969 149.972,25.309 147.922,25.943 L149.225,22.707 C151.493,22.342 153.302,22.172 154.630,22.172 C156.126,22.172 157.284,22.366 158.080,22.780 C158.876,23.169 159.216,23.802 159.046,24.678 L156.729,32.512 ZM151.397,29.008 C151.181,29.057 151.012,29.153 150.866,29.251 C150.722,29.373 150.625,29.494 150.602,29.591 C150.602,29.738 150.602,29.859 150.722,29.982 C150.844,30.103 151.013,30.175 151.204,30.175 C151.397,30.175 151.591,30.127 151.833,30.006 C151.857,29.981 152.483,29.711 152.532,29.688 L152.846,28.618 C152.387,28.763 151.857,28.886 151.397,29.008 ZM142.424,20.831 C141.555,20.831 140.711,20.904 139.866,21.050 C139.021,21.195 138.346,21.415 137.790,21.658 C137.235,21.926 136.922,22.193 136.825,22.509 C136.825,22.534 136.825,22.557 136.825,22.606 C136.825,22.681 136.825,22.706 136.825,22.706 C138.851,22.146 140.565,21.855 141.916,21.855 C143.388,21.855 144.449,22.195 145.100,22.876 C145.753,23.582 146.067,24.579 146.042,25.868 C145.994,26.282 145.899,26.720 145.777,27.134 C145.584,27.766 145.294,28.374 144.933,28.958 C144.545,29.542 144.064,30.077 143.485,30.563 C142.931,31.050 142.254,31.488 141.507,31.806 C140.758,32.145 139.914,32.389 139.021,32.511 C138.443,32.608 137.743,32.657 136.899,32.657 C135.910,32.657 135.041,32.511 134.317,32.241 L135.233,38.472 L130.746,38.472 L130.649,33.411 L128.116,38.472 L123.628,38.472 L122.808,33.411 L120.925,38.472 L116.438,38.472 L120.661,28.958 L125.655,28.958 L126.693,33.558 L128.743,28.958 L131.759,28.958 C131.735,28.497 131.783,28.009 131.927,27.498 L133.278,22.900 C133.736,21.440 134.533,20.321 135.620,19.542 C136.704,18.788 137.911,18.301 139.190,18.057 C140.468,17.815 141.940,17.668 143.653,17.620 C145.365,17.572 146.428,17.498 146.862,17.425 L145.729,21.245 C144.763,20.978 143.653,20.831 142.424,20.831 ZM137.187,28.618 C137.331,29.105 137.621,29.346 138.055,29.346 C138.419,29.346 138.851,29.129 139.383,28.714 C139.793,28.398 140.082,27.936 140.251,27.328 C140.372,26.963 140.396,26.622 140.372,26.306 C140.372,25.966 140.275,25.698 140.131,25.479 C139.962,25.260 139.768,25.162 139.480,25.162 C139.116,25.162 138.683,25.334 138.200,25.698 C137.718,26.233 137.355,26.794 137.187,27.426 C137.042,27.862 137.042,28.253 137.187,28.618 ZM116.703,35.259 C116.461,35.771 116.099,36.257 115.665,36.719 C115.208,37.158 114.677,37.547 114.075,37.839 C113.445,38.155 112.771,38.349 111.974,38.472 C111.251,38.569 110.648,38.594 110.164,38.594 C108.934,38.594 107.897,38.375 107.077,37.913 C106.232,37.449 105.604,36.842 105.244,36.087 C104.857,35.358 104.736,34.553 104.832,33.702 C104.955,32.657 105.436,31.658 106.257,30.758 C107.076,29.836 108.137,29.129 109.538,28.787 C110.503,28.569 111.275,28.544 111.854,28.544 C112.650,28.544 113.375,28.642 114.025,28.861 C114.652,29.056 115.208,29.346 115.641,29.688 C116.099,30.055 116.461,30.467 116.727,30.954 C116.992,31.414 117.161,31.926 117.209,32.411 C117.258,32.803 117.258,33.215 117.185,33.630 C117.136,34.189 116.968,34.724 116.703,35.259 ZM112.143,32.489 C111.926,32.098 111.660,31.904 111.298,31.904 C110.960,31.902 110.623,32.049 110.236,32.389 C109.874,32.779 109.682,33.216 109.609,33.703 C109.561,34.164 109.634,34.554 109.849,34.944 C110.092,35.333 110.405,35.552 110.767,35.552 C111.105,35.552 111.419,35.382 111.779,35.089 C112.093,34.726 112.286,34.288 112.359,33.801 C112.408,33.315 112.335,32.877 112.143,32.489 ZM103.698,21.707 C100.175,22.268 92.431,22.681 89.101,20.807 C85.772,22.681 78.027,22.268 74.504,21.707 C68.352,20.735 64.371,18.423 66.446,16.233 C67.194,15.479 69.437,14.822 72.237,14.482 C70.813,12.317 70.379,10.102 71.464,8.448 C72.503,6.916 76.363,6.720 80.223,8.156 C81.116,3.510 84.759,0.006 89.101,0.006 C93.444,0.006 97.088,3.510 97.980,8.156 C101.841,6.720 105.701,6.916 106.738,8.448 C107.824,10.102 107.391,12.317 105.967,14.482 C108.766,14.822 111.010,15.479 111.757,16.233 C113.831,18.424 109.850,20.735 103.698,21.707 ZM67.411,16.404 C65.819,18.059 70.089,19.494 75.759,20.248 C77.110,20.443 78.389,20.516 79.570,20.516 C78.702,20.151 77.858,19.713 77.062,19.177 C75.253,17.961 73.708,16.501 72.622,15.016 C70.378,15.163 68.400,15.577 67.411,16.404 ZM80.054,9.373 C77.086,8.034 73.685,7.232 72.189,8.958 C70.741,11.173 73.902,14.555 78.244,17.232 C80.609,18.692 82.804,19.204 84.614,19.300 C81.863,17.523 80.006,14.167 80.006,10.346 C80.006,10.005 80.030,9.689 80.054,9.373 ZM93.687,10.516 C93.977,10.297 94.289,10.078 94.627,9.859 C95.038,9.567 95.496,9.300 95.931,9.081 C95.472,4.531 92.577,1.028 89.102,1.028 C85.627,1.028 82.732,4.531 82.275,9.081 C82.708,9.300 83.166,9.568 83.576,9.859 C83.915,10.078 84.204,10.297 84.518,10.516 L84.566,12.121 C84.035,11.636 83.214,11.051 82.202,10.467 C82.249,15.553 85.337,19.640 89.101,19.640 C92.865,19.640 95.929,15.553 96.002,10.467 C94.989,11.051 94.169,11.636 93.614,12.121 L93.687,10.516 ZM106.015,8.958 C104.519,7.232 101.116,8.034 98.150,9.373 C98.174,9.689 98.174,10.005 98.174,10.346 C98.174,14.167 96.339,17.523 93.589,19.300 C95.398,19.204 97.594,18.692 99.958,17.232 C104.302,14.555 107.463,11.173 106.015,8.958 ZM110.792,16.404 C109.779,15.577 107.824,15.163 105.580,15.016 C104.494,16.501 102.951,17.961 101.141,19.177 C100.345,19.713 99.500,20.151 98.632,20.516 C99.814,20.516 101.093,20.443 102.444,20.248 C108.113,19.494 112.385,18.059 110.792,16.404 ZM60.293,38.472 C60.246,38.472 59.063,38.617 59.015,38.641 C58.581,38.690 58.122,38.739 57.689,38.739 C56.457,38.739 55.542,38.472 54.937,37.937 C54.311,37.426 54.021,36.769 54.069,35.965 C54.190,35.237 54.431,34.677 54.769,34.262 C55.132,33.848 55.564,33.534 56.095,33.338 C56.627,33.119 57.253,32.973 58.026,32.852 C58.798,32.730 59.473,32.608 60.102,32.535 C60.319,32.511 60.535,32.437 60.705,32.315 C60.872,32.219 60.970,32.097 60.994,31.975 C60.994,31.853 60.920,31.732 60.728,31.636 C60.559,31.536 60.270,31.488 59.884,31.488 C58.919,31.488 57.543,31.781 55.734,32.389 L56.410,29.398 C58.461,29.057 60.102,28.887 61.331,28.887 C62.731,28.887 63.817,29.057 64.637,29.446 C65.434,29.812 65.844,30.395 65.844,31.197 L64.975,38.472 L60.293,38.472 ZM59.448,35.235 C59.256,35.284 59.111,35.358 58.991,35.454 C58.894,35.551 58.823,35.673 58.798,35.771 C58.798,35.892 58.823,36.087 58.966,36.185 C59.111,36.306 59.280,36.330 59.473,36.306 C59.810,36.259 60.244,36.087 60.583,35.991 L60.751,34.773 C60.318,34.967 59.883,35.089 59.448,35.235 ZM52.670,34.140 C52.163,34.408 51.584,34.627 50.981,34.772 C50.379,34.919 49.630,35.040 48.737,35.187 C48.521,35.211 48.304,35.260 48.111,35.380 C47.942,35.502 47.845,35.624 47.821,35.722 C47.798,35.867 47.894,35.964 48.086,36.062 C48.279,36.160 48.568,36.208 48.955,36.208 C49.848,36.208 51.272,35.891 53.274,35.258 L52.575,38.226 C50.764,38.542 49.124,38.689 47.700,38.689 C46.228,38.689 45.047,38.494 44.154,38.104 C43.261,37.739 42.827,37.131 42.827,36.328 C42.995,35.403 43.334,34.698 43.889,34.186 C44.443,33.677 45.071,33.336 45.770,33.141 C46.494,32.922 47.508,32.727 48.883,32.485 C49.098,32.460 49.317,32.411 49.485,32.289 C49.654,32.192 49.726,32.071 49.752,31.924 C49.776,31.779 49.679,31.658 49.462,31.560 C49.245,31.437 48.907,31.389 48.473,31.389 C45.673,31.391 43.525,33.046 40.992,33.946 C40.847,31.562 40.751,29.153 40.678,26.720 L37.300,32.341 L32.305,32.341 L39.327,22.073 L44.923,22.073 L45.553,29.031 C46.999,28.788 48.351,28.666 49.557,28.666 C50.569,28.666 51.439,28.739 52.211,28.934 C52.982,29.104 53.587,29.372 54.021,29.762 C55.033,30.638 54.648,32.073 53.949,33.021 C53.610,33.484 53.177,33.848 52.670,34.140 ZM33.417,27.451 C33.320,27.694 33.272,27.889 33.223,28.010 L26.010,28.010 C25.913,28.985 26.565,29.470 27.940,29.470 C29.362,29.469 31.269,29.251 32.620,28.886 L30.376,32.121 C27.770,32.560 24.175,33.216 21.931,31.368 C20.919,30.541 20.701,29.227 21.232,27.402 C21.426,26.818 21.667,26.161 22.028,25.456 C22.391,24.726 22.946,24.117 23.693,23.606 C24.440,23.071 25.286,22.682 26.226,22.414 C28.060,21.855 30.546,21.734 32.258,22.779 C32.909,23.194 33.392,23.728 33.633,24.457 C33.898,25.164 33.874,25.992 33.609,26.915 C33.561,27.038 33.512,27.207 33.417,27.451 ZM29.000,25.188 C28.589,24.555 27.745,24.822 27.239,25.211 C26.902,25.456 26.660,25.820 26.539,26.257 L29.000,26.257 L29.072,26.088 C29.194,25.698 29.146,25.405 29.000,25.188 ZM13.945,22.340 L13.680,23.265 C13.945,23.241 15.802,23.216 16.261,23.216 C17.420,23.216 18.336,23.460 19.011,23.898 C19.688,24.336 20.122,24.920 20.290,25.650 C20.483,26.355 20.458,27.109 20.217,27.913 C19.976,28.691 19.614,29.397 19.083,30.077 C18.552,30.759 17.877,31.294 17.128,31.708 C16.356,32.121 15.536,32.341 14.643,32.341 L5.260,32.341 L9.289,18.740 L21.184,18.740 L20.123,22.340 L13.945,22.340 ZM12.063,28.689 C12.135,28.689 12.232,28.689 12.353,28.714 C12.497,28.714 12.570,28.738 12.619,28.738 C13.270,28.738 13.776,28.618 14.138,28.422 C14.525,28.204 14.742,27.937 14.838,27.645 C14.910,27.353 14.862,27.086 14.645,26.843 C14.453,26.599 14.138,26.478 13.752,26.478 C13.487,26.478 12.884,26.526 12.666,26.622 L12.063,28.689 ZM40.750,38.349 L3.523,38.349 L4.729,34.359 L41.570,34.359 L40.750,38.349 ZM6.490,42.147 C8.082,42.610 9.071,43.826 9.071,45.675 C9.071,48.448 6.972,51.197 2.822,51.197 C2.170,51.197 0.987,51.028 -0.001,50.687 L0.674,48.424 C1.374,48.764 2.196,48.862 2.774,48.862 C3.884,48.862 4.801,48.375 5.258,47.401 L2.170,47.401 L2.533,45.577 L2.533,45.578 L5.621,45.578 C5.379,43.825 3.039,44.020 1.856,44.410 L2.533,42.074 C3.811,41.879 5.235,41.758 6.490,42.147 ZM13.583,44.311 L13.101,46.623 L14.260,46.623 L14.718,44.311 L17.927,44.311 L16.576,51.026 L13.366,51.026 L13.848,48.568 L12.714,48.568 L12.208,51.026 L9.023,51.026 L10.374,44.311 L13.583,44.311 ZM22.656,44.164 C24.875,44.164 25.551,45.333 25.744,45.867 C25.840,46.160 25.888,46.476 25.888,46.792 C25.888,47.206 25.816,47.620 25.720,48.058 L25.623,48.447 L25.623,48.445 L21.183,48.445 C21.135,48.785 21.160,49.516 22.509,49.516 C23.283,49.516 24.320,49.297 25.043,49.055 L24.682,50.806 C23.571,51.098 22.559,51.195 21.665,51.195 C20.918,51.195 19.784,51.123 18.963,50.441 C18.506,50.052 18.095,49.445 18.095,48.471 C18.095,46.937 19.229,44.164 22.656,44.164 ZM23.113,47.083 L23.138,46.937 C23.163,46.815 23.187,46.670 23.187,46.547 C23.187,45.892 22.800,45.769 22.534,45.769 C22.317,45.769 21.714,45.843 21.498,46.962 L21.473,47.083 L23.113,47.083 ZM30.376,44.311 L30.158,45.453 L30.208,45.453 C30.812,44.554 31.679,44.164 32.644,44.164 C33.223,44.164 34.961,44.287 34.961,46.719 C34.961,49.419 33.320,51.195 31.245,51.195 C30.713,51.195 29.845,51.074 29.411,50.173 L28.664,53.848 L25.479,53.848 L27.410,44.311 L30.376,44.311 ZM30.327,49.176 C30.592,49.176 30.954,49.030 31.220,48.445 C31.389,48.058 31.485,47.475 31.485,47.085 C31.485,46.379 31.051,46.330 30.906,46.330 C30.593,46.330 30.255,46.524 30.014,47.085 C29.844,47.497 29.748,48.031 29.748,48.445 C29.748,49.078 30.085,49.176 30.327,49.176 ZM41.982,44.311 L41.595,46.233 L39.256,46.233 L38.290,51.026 L35.081,51.026 L36.432,44.311 L41.982,44.311 ZM45.890,44.311 L45.263,47.450 L45.312,47.450 L47.433,44.311 L50.571,44.311 L49.220,51.026 L46.300,51.026 L46.927,47.886 L46.879,47.886 L44.781,51.026 L41.595,51.026 L42.971,44.311 L45.890,44.311 ZM51.076,46.987 C51.076,45.722 52.186,44.311 54.237,44.311 L59.111,44.311 L57.761,51.026 L54.552,51.026 L54.984,48.814 L54.647,48.814 L53.393,51.026 L50.111,51.026 L52.065,48.374 C51.607,48.204 51.076,47.764 51.076,46.987 ZM55.106,47.426 L55.348,47.426 L55.637,45.892 L55.371,45.892 C54.576,45.892 54.359,46.451 54.359,46.793 C54.359,47.207 54.744,47.426 55.106,47.426 ZM63.695,44.311 L70.452,44.311 L70.066,46.233 L68.280,46.233 L67.315,51.026 L64.105,51.026 L65.071,46.233 L63.285,46.233 L63.695,44.311 ZM71.175,31.539 C69.994,31.539 68.570,31.806 66.905,32.341 L67.628,29.396 C69.680,29.056 71.369,28.886 72.646,28.886 C74.311,28.886 75.470,29.105 76.169,29.543 C76.796,30.102 77.062,30.736 76.966,31.488 C76.917,31.951 76.700,32.389 76.338,32.753 C76.000,33.142 75.519,33.411 74.963,33.532 C75.686,33.776 76.169,34.091 76.410,34.457 C76.651,34.847 76.748,35.333 76.676,35.917 L76.627,36.259 C76.506,36.842 76.169,37.328 75.615,37.742 C75.084,38.132 74.384,38.399 73.539,38.594 C72.719,38.787 71.778,38.887 70.741,38.887 C69.462,38.887 68.087,38.740 66.639,38.472 L66.712,35.552 C67.919,35.966 69.439,36.477 70.742,36.477 C71.104,36.477 71.465,36.355 71.803,36.137 C72.141,35.892 72.334,35.626 72.382,35.309 C72.455,34.676 71.996,34.117 70.983,33.631 C71.394,33.532 71.730,33.362 71.996,33.120 C72.237,32.877 72.407,32.634 72.430,32.390 C72.478,31.976 72.309,31.709 71.923,31.564 C71.803,31.539 71.586,31.539 71.175,31.539 ZM76.049,44.311 C76.483,44.311 77.930,44.311 77.930,45.648 C77.930,46.379 77.472,47.182 76.315,47.475 L76.315,47.522 C77.037,47.595 77.592,48.107 77.592,48.837 C77.592,49.857 76.676,51.026 74.770,51.026 L69.848,51.026 L71.223,44.311 L76.049,44.311 ZM74.987,46.233 C74.987,45.771 74.480,45.746 74.239,45.746 L73.853,45.746 L73.612,46.914 L73.997,46.914 C74.889,46.914 74.987,46.427 74.987,46.233 ZM73.539,49.590 C74.384,49.590 74.600,49.153 74.600,48.812 C74.600,48.253 74.069,48.253 73.805,48.253 L73.346,48.253 L73.080,49.590 L73.539,49.590 ZM83.480,44.164 C86.109,44.164 87.026,45.600 87.026,47.013 C87.026,49.177 85.216,51.197 82.177,51.197 C78.992,51.197 78.583,49.324 78.583,48.423 C78.583,46.306 80.223,44.164 83.480,44.164 ZM82.466,49.275 C82.948,49.275 83.166,48.838 83.286,48.496 C83.456,48.034 83.624,47.279 83.624,46.719 C83.624,46.524 83.601,46.087 83.142,46.087 C82.707,46.087 82.514,46.451 82.417,46.623 C82.225,47.037 81.984,48.107 81.984,48.641 C81.984,49.153 82.249,49.275 82.466,49.275 ZM86.929,28.618 C87.628,28.618 88.255,28.716 88.835,28.960 C89.414,29.178 89.848,29.543 90.186,30.055 C90.500,30.563 90.620,31.197 90.572,31.926 L89.775,38.472 L84.950,38.472 L85.529,33.556 C85.577,33.191 85.505,32.923 85.312,32.705 C85.119,32.487 84.853,32.388 84.565,32.388 C84.179,32.388 83.817,32.559 83.454,32.899 C83.092,33.239 82.875,33.726 82.803,34.335 L82.297,38.470 L77.471,38.470 L78.630,28.960 L83.286,28.960 L83.166,29.836 C83.576,29.469 84.106,29.178 84.806,28.960 C85.505,28.716 86.205,28.618 86.929,28.618 ZM91.997,44.164 C94.241,44.164 94.917,45.333 95.085,45.867 C95.205,46.160 95.230,46.476 95.230,46.792 C95.230,47.206 95.182,47.620 95.061,48.058 L94.988,48.447 L94.988,48.445 L90.525,48.445 C90.501,48.785 90.525,49.516 91.876,49.516 C92.625,49.516 93.662,49.297 94.386,49.055 L94.024,50.806 C92.913,51.098 91.924,51.195 91.008,51.195 C90.259,51.195 89.126,51.123 88.329,50.441 C87.848,50.052 87.436,49.445 87.436,48.471 C87.436,46.937 88.570,44.164 91.997,44.164 ZM92.455,47.083 L92.479,46.937 C92.528,46.815 92.528,46.670 92.528,46.547 C92.528,45.892 92.141,45.769 91.876,45.769 C91.683,45.769 91.056,45.843 90.839,46.962 L90.816,47.083 L92.455,47.083 ZM102.300,44.311 L101.889,46.233 L99.550,46.233 L98.584,51.026 L95.400,51.026 L96.750,44.311 L102.300,44.311 ZM101.696,38.204 C101.044,38.619 100.297,38.839 99.452,38.839 C98.439,38.839 97.354,38.521 96.196,37.913 L95.616,42.608 L90.815,42.608 L92.406,29.250 C92.624,29.227 93.107,29.178 93.854,29.105 C94.578,29.032 95.254,28.960 95.857,28.911 C96.460,28.861 97.088,28.838 97.715,28.838 C100.850,28.838 102.805,29.566 103.553,31.052 C103.986,32.000 104.108,33.046 103.962,34.263 C103.866,35.065 103.626,35.820 103.240,36.526 C102.877,37.232 102.348,37.790 101.696,38.204 ZM98.390,31.951 C97.666,31.853 96.847,32.559 96.725,33.532 C96.628,34.504 96.871,35.332 97.594,35.429 C98.317,35.528 99.162,34.821 99.283,33.848 C99.403,32.876 99.114,32.049 98.390,31.951 ZM107.076,44.164 C109.706,44.164 110.623,45.600 110.624,47.013 C110.624,49.177 108.815,51.197 105.750,51.197 C102.566,51.197 102.179,49.324 102.179,48.423 C102.179,46.306 103.796,44.164 107.076,44.164 ZM106.038,49.275 C106.544,49.275 106.762,48.838 106.859,48.496 C107.028,48.034 107.221,47.279 107.221,46.719 C107.221,46.524 107.196,46.087 106.714,46.087 C106.303,46.087 106.087,46.451 106.015,46.623 C105.797,47.037 105.580,48.107 105.580,48.641 C105.580,49.153 105.847,49.275 106.038,49.275 ZM121.938,41.488 C122.637,41.416 123.169,41.318 123.869,41.026 L123.384,43.364 C122.853,43.656 122.323,43.728 121.431,43.777 C120.538,43.850 119.718,43.899 119.042,44.068 C118.439,44.238 117.643,44.604 117.377,45.697 L117.304,46.015 L117.377,46.015 C118.246,44.968 119.380,44.799 120.152,44.799 C121.889,44.799 123.216,45.577 123.216,47.305 C123.216,48.861 121.986,51.197 118.295,51.197 C115.255,51.197 114.868,49.324 114.868,48.180 C114.868,46.087 115.857,43.484 117.667,42.437 C119.066,41.611 120.490,41.611 121.938,41.488 ZM118.729,49.275 C119.382,49.275 119.574,48.495 119.694,47.936 C119.743,47.693 119.767,47.475 119.767,47.206 C119.767,46.963 119.718,46.598 119.236,46.598 C118.995,46.598 118.682,46.719 118.488,47.231 C118.343,47.571 118.198,48.301 118.198,48.641 C118.198,48.910 118.271,49.275 118.729,49.275 ZM123.893,51.999 C124.158,51.999 124.712,51.950 124.977,51.415 L125.075,51.197 L124.014,44.311 L127.316,44.311 L127.389,48.544 L127.413,48.544 L129.078,44.311 L132.214,44.311 L128.571,51.293 C127.559,53.191 126.304,53.994 124.422,53.994 C123.940,53.994 123.240,53.896 122.564,53.750 L122.952,51.853 C123.265,51.950 123.578,51.999 123.893,51.999 ZM131.854,49.103 C133.061,48.204 133.327,47.035 133.616,45.624 L133.857,44.311 L140.371,44.311 L139.408,49.103 L140.300,49.103 L139.528,52.900 L136.633,52.900 L137.019,51.026 L133.810,51.026 L133.423,52.900 L130.527,52.900 L131.299,49.103 L131.854,49.103 ZM136.487,49.103 L137.066,46.233 L136.004,46.233 L135.932,46.623 C135.715,47.619 135.496,48.350 134.750,49.103 L136.487,49.103 ZM141.167,51.999 C141.408,51.999 141.988,51.950 142.252,51.415 L142.350,51.197 L141.289,44.311 L144.592,44.311 L144.640,48.544 L144.688,48.544 L146.352,44.311 L149.490,44.311 L145.822,51.293 C144.834,53.191 143.578,53.994 141.696,53.994 C141.190,53.994 140.492,53.896 139.815,53.750 L140.201,51.853 C140.539,51.950 140.853,51.999 141.167,51.999 ZM150.023,44.311 L150.023,44.311 L152.940,44.311 L151.976,49.103 L153.013,49.103 L153.978,44.311 L156.898,44.311 L155.932,49.103 L156.945,49.103 L157.910,44.310 L160.831,44.310 L159.865,49.102 L160.782,49.102 L159.988,52.898 L157.163,52.898 L157.550,51.026 L148.671,51.026 L150.023,44.311 ZM166.017,44.164 C168.237,44.164 168.915,45.333 169.106,45.867 C169.203,46.160 169.227,46.476 169.227,46.792 C169.227,47.206 169.181,47.620 169.083,48.058 L168.986,48.447 L168.986,48.445 L164.523,48.445 C164.498,48.785 164.523,49.516 165.872,49.516 C166.620,49.516 167.658,49.297 168.381,49.055 L168.019,50.806 C166.934,51.098 165.921,51.195 165.027,51.195 C164.256,51.195 163.146,51.123 162.327,50.441 C161.844,50.052 161.433,49.445 161.433,48.471 C161.433,46.937 162.567,44.164 166.017,44.164 ZM166.478,47.083 L166.501,46.937 C166.525,46.815 166.525,46.670 166.525,46.547 C166.525,45.892 166.138,45.769 165.874,45.769 C165.681,45.769 165.053,45.843 164.837,46.962 L164.813,47.083 L166.478,47.083 ZM176.297,44.311 L175.910,46.233 L173.572,46.233 L172.606,51.026 L169.397,51.026 L170.748,44.311 L176.297,44.311 ZM181.074,44.164 C183.704,44.164 184.619,45.600 184.619,47.013 C184.619,49.177 182.810,51.197 179.746,51.197 C176.586,51.197 176.176,49.324 176.176,48.423 C176.176,46.306 177.817,44.164 181.074,44.164 ZM180.036,49.275 C180.542,49.275 180.760,48.838 180.880,48.496 C181.050,48.034 181.218,47.279 181.218,46.719 C181.218,46.524 181.194,46.087 180.712,46.087 C180.302,46.087 180.108,46.451 180.011,46.623 C179.795,47.037 179.577,48.107 179.577,48.641 C179.577,49.153 179.842,49.275 180.036,49.275 ZM188.361,48.641 L187.879,51.026 L185.103,51.026 L185.586,48.641 L188.361,48.641 ZM138.248,34.408 L187.226,34.408 L188.457,38.301 L138.924,38.301 L138.248,34.408 ZM186.598,42.048 L190.000,42.048 L188.383,47.716 L185.971,47.716 L186.598,42.048 Z"/> 
    </symbol>
    <symbol id="icon_comment" viewBox="0 0 15 13">
       <path fill="none" stroke="currentColor" d="M14.5 6.07c0-3.075-3.132-5.57-7-5.57-3.866 0-7 2.495-7 5.57 0 1.607.857 3.048 2.222 4.063-.256.65-.692 1.498-1.428 2.367 1.398 0 3.2-.18 4.586-1.016.522.1 1.06.158 1.62.158 3.866 0 7-2.495 7-5.57z"/> 
    </symbol>
    <symbol id="icon_epam" viewBox="0 0 182 65">
       <g fill="none" fill-rule="evenodd"> <path fill="#3F3F3E" d="M137.473 51.41h-7.063V10.988c0-2.51-1.207-3.625-3.345-3.625-1.952 0-3.996.743-6.506 2.51v41.54h-7.07V1.227h7.06V4.48c2.05-1.95 4.74-3.81 8.65-3.81 3.622 0 6.04 1.488 7.34 4.09 2.51-2.137 5.482-4.09 9.57-4.09 5.484 0 8.27 3.347 8.27 8.83v41.91h-7.06V10.988c0-2.51-1.208-3.625-3.346-3.625-1.95 0-3.996.743-6.505 2.51v41.54m-35.62-8.458V26.402l-6.41 2.428c-2.605 1.02-3.44 2.32-3.44 5.2v7.62c0 2.415 1.207 3.622 3.437 3.622 2.137 0 4.09-.743 6.412-2.322zM84.93 33.94c0-6.226 2.044-8.735 7.434-10.593l9.48-3.253V11.73c0-2.974-1.488-4.554-4.46-4.554h-1.152c-2.974 0-4.46 1.58-4.46 4.554v7.107h-6.878V12.01c0-7.53 3.81-11.34 11.338-11.34h1.336c7.527 0 11.338 3.81 11.338 11.34v39.4h-7.063v-3.158c-1.95 1.858-4.553 3.717-8.642 3.717-5.67 0-8.27-3.26-8.27-8.83v-9.2zm-21.92 8.736c1.95 1.673 4.182 2.6 6.505 2.6 2.602 0 4.09-1.206 4.09-4.087V11.45c0-2.88-1.488-4.088-4.09-4.088-2.323 0-4.554.93-6.505 2.602v32.712zM55.95 1.228h7.062V4.48C64.685 2.716 67.566.67 71.654.67c6.04 0 9.015 3.997 9.015 9.945v31.41c0 5.948-2.98 9.944-9.02 9.944-4.09 0-6.97-1.96-8.64-3.63v16.19h-7.06V1.22zm-21.69 21.16h10.037V11.73c0-2.974-1.486-4.46-4.46-4.46h-1.115c-2.974 0-4.46 1.486-4.46 4.46v10.657zm-.022 6.8l.023 11.722c0 2.974 1.49 4.46 4.47 4.46h1.3c2.978 0 4.46-1.486 4.46-4.46v-5.762h6.88v5.484c0 7.527-3.81 11.337-11.335 11.337h-1.49c-7.53 0-11.34-3.81-11.34-10.46V12.89C27.2 4.48 31.01.67 38.537.67h1.487C47.55.67 51.36 4.48 51.36 12.01l-.022 17.178h-17.1z"/> <path fill="#44BBC7" d="M18.146 5.85v9.228L6.26 26.405l11.886 11.123v9.43L0 29.9v-6.79L18.146 5.85m163.348 17.26v6.79l-18.146 17.058v-9.43l11.885-11.123-11.885-11.327V5.85l18.146 17.26"/> </g> 
    </symbol>
    <symbol id="icon_fb" viewBox="0 0 11 22">
       <path fill="currentColor" d="M3.254 22V11.954H0V8.047h3.254v-2.98C3.254 1.94 5.114 0 8.047 0 9.812 0 11 .145 11 .145v3.522H9.012c-1.26 0-1.852.46-1.852 1.852v2.53h3.71l-.478 3.904H7.16V22H3.254z"/> 
    </symbol>
    <symbol id="icon_green-hexagon-mobile" viewBox="0 0 74 80">
       <path d="M68.7 16.3L42.3 1.4C39-.4 35.1-.4 31.8 1.4L5.4 16.3C2.2 18.1.1 21.5.1 25.2v29.7c0 3.7 2 7.1 5.3 8.9l26.4 14.9c3.3 1.8 7.2 1.8 10.5 0l26.4-14.9c3.2-1.8 5.2-5.2 5.2-8.9V25.1c0-3.6-2-7-5.2-8.8z" fill="currentColor"/> <path d="M40.1 48.8l-1 .2c-.5 0-.9-.1-1.3-.3-.3-.3-.5-.8-.4-1.2 0-.3 0-.7.1-1l.3-1.2L39 41c.1-.4.2-.9.2-1.3.1-.5.1-.8.1-1 0-.8-.3-1.6-.9-2.2-.8-.6-1.7-.9-2.7-.8-.7 0-1.4.1-2.1.3l-2.3.8-.3 1.4.8-.3h1c.5-.1.9 0 1.3.3.2.3.3.7.3 1.1 0 .3 0 .7-.1 1l-.3 1.1-1.2 4.3c-.1.5-.2.9-.2 1.2-.1.3-.1.7-.1 1 0 .8.4 1.7 1 2.2.8.6 1.7.9 2.7.9.7 0 1.4-.1 2-.3l2.3-.9.3-1.3-.7.3zm.3-20.1c-1.2-1.1-2.9-1.1-4.1 0-1 1-1.1 2.6-.1 3.7l.1.1c1.2 1.1 2.9 1.1 4.1 0 1-1 1-2.6 0-3.7 0 0-.1 0 0-.1z" fill="#FFF"/> <path d="M63.5 20.5L41.4 8.2c-2.7-1.5-6.1-1.5-8.8 0L10.5 20.5c-2.7 1.5-4.4 4.3-4.4 7.4v24.9c0 3.1 1.7 5.9 4.4 7.4l22.1 12.5c2.7 1.5 6.1 1.5 8.8 0l22.1-12.5c2.7-1.5 4.4-4.3 4.4-7.4V27.9c0-3-1.7-5.9-4.4-7.4z" stroke="#FFF" stroke-width="2" fill="none"/> 
    </symbol>
    <symbol id="icon_green-hexagon" viewBox="0 0 180 195">
       <path d="M167.2 39.6L102.8 3.3c-7.9-4.4-17.6-4.4-25.5 0L12.8 39.6C4.9 43.9 0 52.2 0 61.2v72.6c0 9 4.9 17.3 12.8 21.6l64.5 36.3c7.9 4.4 17.6 4.4 25.5 0l64.5-36.3c7.8-4.4 12.7-12.6 12.7-21.6V61.2c0-9-4.9-17.3-12.8-21.6z" fill="currentColor"/> <path d="M160.4 45l-58.8-33c-7.2-4-16.1-4-23.3 0L19.6 45C12.5 48.9 8.1 56.4 8 64.5v65.9c0 8.2 4.5 15.7 11.6 19.6l58.8 33c7.2 4 16.1 4 23.3 0l58.7-33c7.1-3.9 11.6-11.4 11.6-19.6V64.5c-.1-8.1-4.5-15.6-11.6-19.5z" fill="none" stroke="#FFF" stroke-width="2"/> 
    </symbol>
    <symbol id="icon_green" viewBox="0 0 1120 660">
       <path fill="#09AFBC" fill-rule="evenodd" d="M1040.546 411.197L639.453 639.05c-49.17 27.933-109.746 27.933-158.907 0L79.454 411.197C30.284 383.264 0 331.642 0 275.777V0h1120v275.776c0 55.866-30.292 107.488-79.454 135.42z"/> 
    </symbol>
    <symbol id="icon_honeycomb-30" viewBox="0 0 32 36">
       <path fill="currentColor" fill-rule="evenodd" d="M28.87 7.798l-10.743-6.22c-1.316-.764-2.94-.764-4.256 0L3.13 7.798C1.81 8.56 1 9.97 1 11.495v12.442c0 1.526.81 2.935 2.128 3.698l10.743 6.22c1.32.764 2.94.764 4.26 0l10.746-6.22c1.318-.763 2.13-2.172 2.13-3.698v-12.44c0-1.527-.81-2.936-2.13-3.7h-.004z"/> 
    </symbol>
    <symbol id="icon_kyky" viewBox="0 0 114 29">
       <path fill="currentColor" d="M100.888 16.18v12.818H90.502V16.18l-7.918-9.77-6.555 8.09 11.744 14.498h-13.11l-9.28-11.452v11.452H55V4.936L45.888 16.18v12.818H35.502V16.18l-7.918-9.77-6.555 8.09 11.744 14.498h-13.11l-9.28-11.452v11.452H0V0h10.387v11.452L19.667 0H35.5l5.193 6.41L45.888 0h19.498v11.452L74.666 0h15.836l5.193 6.41L100.888 0h13.11l-13.11 16.18z"/> 
    </symbol>
    <symbol id="icon_logo" viewBox="0 0 94 103">
       <g fill="none" fill-rule="evenodd"> <path fill="#FFF" d="M87.333 20.94L53.67 1.765c-4.127-2.35-9.21-2.35-13.338 0L6.67 20.94C2.54 23.293 0 27.637 0 32.34v38.354c0 4.702 2.542 9.047 6.67 11.398l33.662 19.177c4.127 2.35 9.21 2.35 13.337 0L87.332 82.09C91.458 79.74 94 75.394 94 70.692V32.338c0-4.702-2.542-9.046-6.667-11.397z"/> <path fill="currentColor" d="M55.143 38.88v17.627s4.414-2.588 4.42-2.594c2.567-1.488 3.177-2.207 3.177-4.543V38.91c0-4.88-7.565-4.89-7.597-.03zm26.175-13.786l-2.292-1.326v2.992c0 .56-.702 1.014-2.714 1.014-2.013 0-2.714-.454-2.714-1.014v-3.436c0-2.073-1.182-3.38-3.224-4.56L52.67 8.524c-3.51-2.032-7.837-2.032-11.348 0l-28.646 16.57C9.164 27.124 7 30.88 7 34.942v33.14c0 4.063 2.164 7.817 5.676 9.848L41.322 94.5c3.51 2.032 7.837 2.032 11.35 0l17.702-10.24c2.042-1.18 3.224-2.486 3.224-4.56V33.966c0-.56.7-1.014 2.714-1.014 2.012 0 2.714.454 2.714 1.014v45.29l2.292-1.326c3.51-2.03 5.674-5.785 5.674-9.847v-33.14c0-4.064-2.163-7.818-5.674-9.85zM33.43 66.096c0 7.804-18.455 7.804-18.455 0l-.006-32.13c0-.56.702-1.014 2.714-1.014 2.01 0 2.713.454 2.713 1.014l.006 32.13c0 4.887 7.6 4.887 7.6 0v-32.13c0-.56.7-1.014 2.713-1.014s2.714.454 2.714 1.014v32.13zm10.857 4.94c0 .56-.702 1.015-2.714 1.015s-2.715-.453-2.715-1.013v-52.72c0-.56.703-1.622 2.715-2.813 2.012-1.19 2.714-.886 2.714-.327v55.86zM68.17 48.414c0 3.335.02 3.666-3.874 5.985-.706.42-7.583 4.408-8.215 4.775-.733.423-.937.814-.937 1.346v6.388c0 4.887 7.6 4.887 7.6 0v-4.015-.01c0-.56.7-1.62 2.713-2.812 2.012-1.19 2.714-.886 2.714-.326v7.164c0 7.804-18.457 7.804-18.457 0V38.91c0-7.808 18.457-7.808 18.457 0v9.503z"/> </g> 
    </symbol>
    <symbol id="icon_lwo" viewBox="0 0 843.6 284.2">
       <g fill="#f26529" fill-rule="evenodd"> <path d="M74.5 155.7a26.3 26.3 0 0 1 6.7 1.6c2 .8 4 1.7 3.6 2.2-2.2 2.5-13.9 1.3-17.2-.7s4.8-3.3 6.9-3.1m52.5-38.3c2.4-2.8 7.5-4.7 10.3-6.6s4.6-2.1 5.9-1.6 2.7 10.8.5 13.6-4.5 1.9-7.7 1.3-7.2-1-9.1-1.6-2.3-2.4.2-5.2zm6.9-9.5c-.4.3-1.7.8-1.5-.1a11.1 11.1 0 0 1 3.1-5.6c2.3-2.3 4-1.2 3.2.7s-2.4 3.3-4.7 4.9zm-4.1-9.6c.9-1.3 1.4-2.4.1-3.9s-10.2-1.5-12.9.9c-4.6 4.2-2.1 12.1.3 16.7 1.2 2.3 2 1.8 3.2-.1 3.3-4.9 6.3-9.2 9.4-13.7zm15.6-4.8c1.7 1 .9 6.1-3.1 3.9s1.4-5.1 3.2-4zm-35.2 21.8c.5.9 1.8 2.5-1.2 2.8-6.1.6-11.6.8-17-.1-2.1-.4-5.7-.3-5.6 2.4s3.7 2.4 4.8 2.4a70.1 70.1 0 0 0 22.2-2.8c1.3-.4 1.2 2.1.8 3.2a82.3 82.3 0 0 1-20.1 29.7c-1.5 1.3-3.3 3.3-5.5 2.5-7.3-2.6-13.9-4.5-21.9-3.1-2.4.4-5.1 1.1-6.6 3.3a3.4 3.4 0 0 0 .2 3.9c4.3 4.1 15.1 6.7 22.9 4.7 1.2-.3 3.8-1.8 4.9-2s4.5 1.3 5.8 1.9c17.9 12.3 37.6 27.3 61.3 29.9a48.8 48.8 0 0 0 16.7-1.1c3.2-.8 8.7-3.9 10.5-6.7s1.9-3.2 1.4-5.5-4-4.8-5.4-5.6c-14.3-8.7-29.8-8.6-48.4-3.3-1.7.5-1.3 2.8-.8 3.1a6.6 6.6 0 0 0 3.6.4c10.8-2.1 28.9-1.4 37.7 2.9 1.9.9 6.6 3 5.6 6.3-1.6 5-7.7 6.4-12.5 6.2-24.1-.8-45.7-17.8-64.4-30.8-.6-.4-2.7-1.2-1.6-2.4a186 186 0 0 0 18.6-23.7c.5-.7 3.5-6.8 5.5-6.8 4.2-.1 15.5-.2 18.3 2.1s2.7 4.7 1.1 6.8c-5.6 7.5-17.4 19-24.4 25.3-.7.6-.6 2.3.1 3.2s4.9.2 6.3-.9c12-9.3 27-24.4 38.3-33.2-3.7 10.7-10.3 20.1-15.4 31.2a2.7 2.7 0 0 0 .8 3.2 6 6 0 0 0 7.2-1.8c19.6-25.6 38.7-43.3 64.6-60.3 3.2-2.1 4.5-3.3 4.1-4.2s-3.8-.6-5.6.1c-24.8 10.4-37.1 24.3-53.3 42.2 3.7-12.2 12.3-24.2 18.5-35.2.6-1.1 1.1-3-.3-3.9a3.6 3.6 0 0 0-4.5.8c-6.4 8-20.4 23.9-29.6 33.8.1-1.6 1.7-8.3 3-9.6s4.3-2.8 5.6-3.9 4.5-3.3 5.3-4.2 1.1-2.1.1-2.4-4.8 1.3-7.5 2.9c-.5.3-2.4 1.8-2.9 2-.1-4.7.2-10.1-1.6-14.6a12.8 12.8 0 0 0-1.8-2.8.7.7 0 0 1 0-.8c1.2-1.9 3.4-3.4 3.9-5.6 1-4.8-1.5-7.8-6.5-7.8a18.4 18.4 0 0 0-5.5.9c-5 1.6-5.8-.4-10.5-1.2-16.1-2.9-27.9 11.4-19.1 26.1zM47.8 102.9c-4.1-1.4-6.1-4.4-9.1-6.4a15.5 15.5 0 0 0-6.3-2.5c-3.7-.7-7.1.1-11-1.1A45.5 45.5 0 0 0 10 89c1.7 2.4 4.1 4.9 11.1 8.4a26.2 26.2 0 0 0 7.6 2 16.9 16.9 0 0 1 7.3 3 28 28 0 0 0 11.2 4.8 34.2 34.2 0 0 0 11.3-.2c-3.1-1.8-7.5-2.8-10.8-4M70.1 70.1c-3.2-2.9-3.9-6.4-5.9-9.5a15.5 15.5 0 0 0-4.8-4.8c-3.2-2.1-6.5-2.7-9.7-5.3a45.4 45.4 0 0 0-9-8.1c.6 2.9 1.9 6.1 7 12.1a26.1 26.1 0 0 0 6.2 4.8 16.9 16.9 0 0 1 5.6 5.7 28 28 0 0 0 8.4 8.8A34.2 34.2 0 0 0 78.4 78c-2.1-2.9-5.8-5.6-8.4-7.9M79.5 61.8c-2.6-3.4-2.7-7-4.1-10.4a15.5 15.5 0 0 0-3.8-5.5c-2.7-2.6-6-3.8-8.6-6.9a45.5 45.5 0 0 0-7.4-9.6c.1 3 .7 6.3 4.7 13.2a26.2 26.2 0 0 0 5.3 5.8 16.9 16.9 0 0 1 4.4 6.5A28 28 0 0 0 76.7 65a34.3 34.3 0 0 0 9.6 6.1c-1.6-3.2-4.7-6.5-6.8-9.3M89.8 54.7c-2.1-3.7-1.8-7.3-2.7-10.8a15.5 15.5 0 0 0-3.1-6c-2.4-2.9-5.4-4.5-7.6-8a45.5 45.5 0 0 0-6.1-10.5c-.3 3-.1 6.4 2.9 13.7a26.2 26.2 0 0 0 4.5 6.5 16.9 16.9 0 0 1 3.6 7.1 28.1 28.1 0 0 0 5.3 10.9 34.3 34.3 0 0 0 8.7 7.3c-1.1-3.4-3.8-7.1-5.5-10.1M101.7 48.4c-1.6-4-.8-7.5-1.2-11.1a15.5 15.5 0 0 0-2.3-6.3c-1.9-3.2-4.8-5.2-6.4-9a45.4 45.4 0 0 0-4.6-11.2c-.7 2.9-1 6.3 1 13.9a26.3 26.3 0 0 0 3.5 7 16.9 16.9 0 0 1 2.6 7.5 28 28 0 0 0 3.8 11.6 34.3 34.3 0 0 0 7.6 8.4c-.7-3.5-2.8-7.5-4.1-10.8M114.1 44.1c-1.1-4.2.2-7.5.2-11.2a15.5 15.5 0 0 0-1.4-6.6c-1.5-3.5-4.1-5.8-5.3-9.7A45.5 45.5 0 0 0 104.4 5c-1 2.8-1.7 6.1-.7 14a26.2 26.2 0 0 0 2.6 7.4 16.9 16.9 0 0 1 1.6 7.7 28.1 28.1 0 0 0 2.5 11.9 34.4 34.4 0 0 0 6.5 9.3c-.2-3.5-1.9-7.8-2.7-11.2M127.9 41.1c-.8-4.2.7-7.5.9-11.1a15.5 15.5 0 0 0-1-6.7c-1.3-3.5-3.7-6-4.6-10a45.4 45.4 0 0 0-2.4-11.9c-1.2 2.7-2.1 6-1.6 13.9a26.2 26.2 0 0 0 2.1 7.6 16.9 16.9 0 0 1 1.1 7.8 28 28 0 0 0 1.6 12.1 34.3 34.3 0 0 0 5.9 9.7c0-3.5-1.3-7.9-2-11.3M140.7 40.3c-.1-4.3 1.9-7.3 2.8-10.8a15.5 15.5 0 0 0 .1-6.7c-.7-3.7-2.6-6.6-2.9-10.7a45.5 45.5 0 0 0-.3-12.1c-1.7 2.5-3.1 5.6-3.9 13.4a26.2 26.2 0 0 0 .8 7.8 16.9 16.9 0 0 1-.2 7.9 27.9 27.9 0 0 0-.5 12.2 34.2 34.2 0 0 0 4.2 10.5c.6-3.5 0-8-.1-11.5M154.5 40.9c.5-4.3 2.9-7 4.3-10.3a15.5 15.5 0 0 0 1.1-6.6c-.2-3.8-1.7-6.9-1.4-11a45.6 45.6 0 0 0 1.3-12c-2 2.2-3.9 5.1-5.8 12.7a26.2 26.2 0 0 0-.2 7.8 16.9 16.9 0 0 1-1.3 7.8 28 28 0 0 0-2.2 12 34.2 34.2 0 0 0 2.7 11c1.1-3.4 1.1-7.9 1.5-11.4M167.5 43.4c1.1-4.2 3.9-6.5 5.7-9.6a15.5 15.5 0 0 0 2-6.4c.4-3.8-.7-7 .2-11a45.3 45.3 0 0 0 3.1-11.7c-2.3 1.9-4.6 4.5-7.5 11.8a26.3 26.3 0 0 0-1.4 7.7 16.9 16.9 0 0 1-2.4 7.5 28 28 0 0 0-3.9 11.5 34.2 34.2 0 0 0 1 11.3c1.6-3.2 2.3-7.7 3.2-11.1M179.8 47.4c1.6-4 4.7-5.9 6.8-8.8a15.5 15.5 0 0 0 2.8-6.1c.8-3.7.2-7.1 1.6-10.9a45.3 45.3 0 0 0 4.5-11.3c-2.5 1.6-5.1 3.9-8.9 10.8a26.2 26.2 0 0 0-2.3 7.5 16.9 16.9 0 0 1-3.3 7.2 27.9 27.9 0 0 0-5.3 11 34.3 34.3 0 0 0-.3 11.3c1.9-3 3.2-7.4 4.5-10.6M191.6 53.2c2.2-3.7 5.4-5.2 8-7.8a15.6 15.6 0 0 0 3.6-5.7c1.3-3.5 1.2-7 3.1-10.6a45.4 45.4 0 0 0 6-10.5c-2.7 1.3-5.5 3.1-10.3 9.4a26.3 26.3 0 0 0-3.3 7.1 16.9 16.9 0 0 1-4.3 6.7 28 28 0 0 0-6.8 10.1 34.3 34.3 0 0 0-1.9 11.2c2.3-2.7 4.2-6.9 5.9-9.9M203.8 60.4c2.6-3.4 6-4.5 8.9-6.8a15.6 15.6 0 0 0 4.3-5.2c1.8-3.3 2-6.8 4.4-10.1a45.4 45.4 0 0 0 7.2-9.7c-2.8.9-5.9 2.4-11.4 8.1a26.3 26.3 0 0 0-4.2 6.7 16.9 16.9 0 0 1-5.1 6.1 28 28 0 0 0-7.9 9.2 34.2 34.2 0 0 0-3.3 10.8c2.6-2.4 5-6.3 7.1-9.1M213.9 68.9c3-3.1 6.6-3.7 9.7-5.6a15.5 15.5 0 0 0 4.9-4.6c2.2-3.1 2.8-6.5 5.6-9.5a45.5 45.5 0 0 0 8.4-8.7c-2.9.5-6.1 1.7-12.3 6.6a26.2 26.2 0 0 0-5 6.1 16.9 16.9 0 0 1-5.8 5.4 27.9 27.9 0 0 0-9 8.1 34.2 34.2 0 0 0-4.7 10.3c2.9-2 5.7-5.6 8.2-8.1M222.6 78.5c3.4-2.7 7-2.9 10.3-4.3a15.6 15.6 0 0 0 5.5-3.9c2.5-2.8 3.7-6 6.8-8.7a45.3 45.3 0 0 0 9.4-7.6c-3 .2-6.3.9-13.1 5a26.4 26.4 0 0 0-5.7 5.4 16.9 16.9 0 0 1-6.4 4.6 28 28 0 0 0-10 6.9 34.3 34.3 0 0 0-5.9 9.7c3.2-1.6 6.4-4.8 9.1-7M230.3 89.5c3.7-2.2 7.3-1.9 10.8-2.9a15.6 15.6 0 0 0 5.9-3.2c2.9-2.4 4.4-5.5 7.9-7.8a45.3 45.3 0 0 0 10.4-6.3c-3-.2-6.4 0-13.6 3.2a26.1 26.1 0 0 0-6.4 4.6 16.9 16.9 0 0 1-7 3.7 28 28 0 0 0-10.8 5.5 34.1 34.1 0 0 0-7.1 8.8c3.3-1.2 7-3.9 10-5.7M236.6 101.7c4-1.7 7.5-1 11.1-1.6a15.6 15.6 0 0 0 6.3-2.4c3.2-2 5.1-4.9 8.7-6.7a45.5 45.5 0 0 0 11-5c-2.9-.6-6.3-.8-13.9 1.5a26.3 26.3 0 0 0-6.9 3.8 16.9 16.9 0 0 1-7.4 2.9 28 28 0 0 0-11.4 4.2 34.3 34.3 0 0 0-8.1 7.9c3.5-.8 7.4-3.1 10.6-4.5M241.2 114.5c4.1-1.4 7.5-.4 11.1-.7a15.5 15.5 0 0 0 6.4-1.9c3.3-1.8 5.4-4.5 9.3-6a45.3 45.3 0 0 0 11.4-4.1c-2.9-.8-6.2-1.3-14 .4a26.2 26.2 0 0 0-7.2 3.2 16.9 16.9 0 0 1-7.6 2.2 28 28 0 0 0-11.7 3.2 34.3 34.3 0 0 0-8.7 7.2c3.5-.5 7.6-2.5 10.9-3.6M243.9 127.5c4.3-.7 7.5.8 11.1 1.2a15.4 15.4 0 0 0 6.7-.8c3.6-1.2 6.1-3.5 10.1-4.4a45.5 45.5 0 0 0 11.9-2.1c-2.7-1.3-6-2.3-13.8-1.9a26.1 26.1 0 0 0-7.6 2 16.9 16.9 0 0 1-7.9 1 28 28 0 0 0-12.1 1.2 34.3 34.3 0 0 0-9.8 5.7c3.5.1 7.9-1.2 11.4-1.7M244.9 140.9c4.3-.1 7.3 1.9 10.8 2.8a15.4 15.4 0 0 0 6.7.1c3.7-.7 6.6-2.6 10.7-2.9a45.4 45.4 0 0 0 12.1-.4c-2.5-1.7-5.6-3.1-13.4-3.9a26.2 26.2 0 0 0-7.8.9 16.9 16.9 0 0 1-7.9-.2 27.9 27.9 0 0 0-12.2-.5 34.3 34.3 0 0 0-10.5 4.2c3.5.6 8 0 11.5-.1M244.2 154.3c4.3.5 6.9 3 10.3 4.3a15.5 15.5 0 0 0 6.6 1.1c3.8-.1 6.9-1.6 11-1.3a45.7 45.7 0 0 0 12 1.4c-2.2-2-5-3.9-12.7-5.8a26.3 26.3 0 0 0-7.8-.3 16.8 16.8 0 0 1-7.8-1.3 28 28 0 0 0-12-2.3 34.3 34.3 0 0 0-11 2.6c3.4 1.1 7.9 1.2 11.4 1.6M241.6 167.5c4.2 1.1 6.5 3.9 9.6 5.7a15.5 15.5 0 0 0 6.4 2c3.8.4 7-.7 11 .2a45.6 45.6 0 0 0 11.7 3c-1.9-2.3-4.5-4.5-11.8-7.5a26.2 26.2 0 0 0-7.7-1.4 16.9 16.9 0 0 1-7.5-2.4 28 28 0 0 0-11.5-3.9 34.2 34.2 0 0 0-11.3 1c3.2 1.6 7.7 2.3 11.1 3.2M237.3 179.6c4 1.6 5.9 4.7 8.8 6.9a15.6 15.6 0 0 0 6.1 2.8c3.7.9 7.1.2 10.9 1.6a45.4 45.4 0 0 0 11.2 4.5c-1.6-2.5-3.8-5.1-10.7-9a26.1 26.1 0 0 0-7.5-2.4 16.9 16.9 0 0 1-7.2-3.4 28.1 28.1 0 0 0-10.9-5.3 34.3 34.3 0 0 0-11.3-.4c3 2 7.4 3.2 10.6 4.6M231.7 192.3c3.8 2.1 5.4 5.3 8 7.8a15.5 15.5 0 0 0 5.8 3.5c3.6 1.3 7 1 10.7 2.9a45.5 45.5 0 0 0 10.7 5.8c-1.3-2.7-3.2-5.5-9.6-10.1a26.1 26.1 0 0 0-7.2-3.2 17 17 0 0 1-6.8-4.1 28 28 0 0 0-10.3-6.5 34.3 34.3 0 0 0-11.2-1.7c2.7 2.3 6.9 4 10 5.7M224 203.9c3.4 2.6 4.5 6 6.7 8.9a15.6 15.6 0 0 0 5.2 4.3c3.3 1.8 6.8 2 10.1 4.4a45.5 45.5 0 0 0 9.7 7.3c-.9-2.8-2.4-5.9-8-11.4a26.3 26.3 0 0 0-6.6-4.2 16.9 16.9 0 0 1-6.1-5.1 28 28 0 0 0-9.2-8 34.3 34.3 0 0 0-10.8-3.3c2.3 2.7 6.3 5 9 7.1M215.4 213.6c3.1 3 3.8 6.5 5.8 9.6a15.5 15.5 0 0 0 4.7 4.8c3.1 2.1 6.5 2.7 9.6 5.4a45.3 45.3 0 0 0 8.9 8.2c-.6-2.9-1.8-6.1-6.8-12.2a26.1 26.1 0 0 0-6.2-4.9 17 17 0 0 1-5.5-5.7 27.9 27.9 0 0 0-8.3-8.9 34.5 34.5 0 0 0-10.4-4.4c2.1 2.9 5.7 5.6 8.2 8M205.4 222.5c2.7 3.4 2.8 7 4.2 10.3a15.6 15.6 0 0 0 3.9 5.5c2.8 2.6 6 3.7 8.7 6.8a45.4 45.4 0 0 0 7.5 9.5c-.1-3-.8-6.3-4.9-13.1a26.2 26.2 0 0 0-5.3-5.8 16.9 16.9 0 0 1-4.6-6.5 27.9 27.9 0 0 0-6.9-10.1 34.4 34.4 0 0 0-9.6-6c1.6 3.2 4.8 6.4 6.9 9.2M194.2 230.2c2.3 3.6 2.1 7.2 3.2 10.7a15.5 15.5 0 0 0 3.3 5.8c2.5 2.8 5.6 4.3 8 7.6a45.2 45.2 0 0 0 6.6 10.2c.1-3-.2-6.4-3.6-13.5a26.3 26.3 0 0 0-4.8-6.2 16.9 16.9 0 0 1-3.9-6.9 28 28 0 0 0-5.8-10.7 34.2 34.2 0 0 0-9-6.9c1.3 3.3 4.1 6.9 6 9.8M182 236.1c1.7 4 1 7.5 1.6 11.1a15.5 15.5 0 0 0 2.4 6.3c2 3.2 4.9 5.1 6.7 8.7a45.3 45.3 0 0 0 5 11c.6-2.9.7-6.3-1.5-13.9a26.2 26.2 0 0 0-3.8-6.9 16.9 16.9 0 0 1-2.9-7.4 28 28 0 0 0-4.2-11.4 34.4 34.4 0 0 0-7.9-8.1c.8 3.5 3.1 7.4 4.5 10.6M169.6 240.3c1.3 4.1.3 7.5.4 11.2a15.5 15.5 0 0 0 1.8 6.5c1.7 3.4 4.4 5.5 5.8 9.4a45.5 45.5 0 0 0 3.8 11.5c.9-2.8 1.4-6.2-.1-14a26.2 26.2 0 0 0-3.1-7.2 16.9 16.9 0 0 1-2.1-7.6 28.1 28.1 0 0 0-3-11.8 34.2 34.2 0 0 0-7-8.9c.4 3.5 2.3 7.7 3.4 11M156.7 243.1c.9 4.2-.6 7.5-.8 11.1a15.5 15.5 0 0 0 1.1 6.6c1.3 3.5 3.8 6 4.8 10a45.3 45.3 0 0 0 2.6 11.8c1.2-2.7 2.1-6 1.4-13.9a26.3 26.3 0 0 0-2.3-7.5 16.9 16.9 0 0 1-1.2-7.8 28 28 0 0 0-1.7-12.1 34.2 34.2 0 0 0-6-9.6c0 3.5 1.5 7.9 2.2 11.3M143.2 243.9c.3 4.3-1.6 7.4-2.2 10.9a15.6 15.6 0 0 0 .2 6.7c.9 3.7 2.9 6.4 3.4 10.5a45.4 45.4 0 0 0 1 12.1c1.5-2.6 2.8-5.7 3.2-13.6a26.2 26.2 0 0 0-1.2-7.8 16.9 16.9 0 0 1-.2-7.9 28 28 0 0 0-.1-12.2 34.2 34.2 0 0 0-4.7-10.3c-.4 3.5.4 8 .6 11.5M129.2 243.1c-.5 4.3-2.9 6.9-4.3 10.3a15.5 15.5 0 0 0-1.1 6.6c.1 3.8 1.7 6.9 1.3 11a45.3 45.3 0 0 0-1.3 12c2-2.2 3.9-5.1 5.8-12.7a26.2 26.2 0 0 0 .3-7.8 16.9 16.9 0 0 1 1.3-7.8 28 28 0 0 0 2.2-12 34.3 34.3 0 0 0-2.6-11c-1.1 3.4-1.1 7.9-1.6 11.4M116 240.5c-1.1 4.2-3.8 6.5-5.6 9.6a15.6 15.6 0 0 0-2 6.4c-.4 3.8.7 7-.1 11a45.4 45.4 0 0 0-2.9 11.8c2.3-1.9 4.5-4.5 7.4-11.8a26.2 26.2 0 0 0 1.3-7.7 16.9 16.9 0 0 1 2.3-7.6 28 28 0 0 0 3.8-11.6 34.3 34.3 0 0 0-1.1-11.3c-1.5 3.2-2.2 7.7-3.1 11.1M103.2 236c-1.7 4-4.8 5.8-7 8.7a15.5 15.5 0 0 0-2.9 6.1c-.9 3.7-.4 7.1-1.8 10.9a45.4 45.4 0 0 0-4.7 11.2c2.5-1.6 5.1-3.8 9.2-10.6a26.3 26.3 0 0 0 2.5-7.4 16.9 16.9 0 0 1 3.5-7.1 28 28 0 0 0 5.5-10.8 34.2 34.2 0 0 0 .6-11.3c-2 2.9-3.3 7.3-4.7 10.5M91 230.2c-2.2 3.7-5.5 5.2-8.1 7.7a15.4 15.4 0 0 0-3.7 5.6c-1.4 3.5-1.3 6.9-3.2 10.6a45.5 45.5 0 0 0-6 10.5c2.7-1.2 5.6-3.1 10.4-9.3a26.2 26.2 0 0 0 3.4-7.1 16.9 16.9 0 0 1 4.4-6.6 28 28 0 0 0 6.9-10 34.2 34.2 0 0 0 2-11.1c-2.4 2.6-4.2 6.8-6 9.8M79.9 222.7c-2.6 3.4-6 4.5-8.9 6.7a15.6 15.6 0 0 0-4.3 5.2c-1.8 3.3-2 6.8-4.4 10.1a45.5 45.5 0 0 0-7.3 9.7c2.8-.9 5.9-2.4 11.4-8a26.3 26.3 0 0 0 4.2-6.6 16.9 16.9 0 0 1 5.1-6.1 28 28 0 0 0 8-9.2 34.2 34.2 0 0 0 3.3-10.9c-2.6 2.4-5 6.3-7.1 9.1M70.2 214.1c-3 3.1-6.5 3.8-9.7 5.6a15.5 15.5 0 0 0-4.9 4.6c-2.2 3.1-2.8 6.5-5.6 9.5a45.3 45.3 0 0 0-8.4 8.8c2.9-.6 6.1-1.7 12.3-6.6a26.5 26.5 0 0 0 5-6.1 16.9 16.9 0 0 1 5.8-5.4 28 28 0 0 0 9-8.2 34.3 34.3 0 0 0 4.6-10.4c-2.9 2-5.7 5.6-8.1 8.1M61.7 204.5c-3.3 2.8-6.9 3.1-10.2 4.7a15.5 15.5 0 0 0-5.3 4.1c-2.5 2.9-3.4 6.2-6.5 8.9a45.4 45.4 0 0 0-9.2 7.9c3-.3 6.3-1.1 12.9-5.4a26.3 26.3 0 0 0 5.5-5.6 16.8 16.8 0 0 1 6.3-4.8A28 28 0 0 0 65 207a34.3 34.3 0 0 0 5.5-9.9c-3.1 1.7-6.2 5.1-8.9 7.3M53.9 193.2c-3.6 2.3-7.2 2.2-10.7 3.3a15.6 15.6 0 0 0-5.8 3.4c-2.8 2.5-4.2 5.7-7.6 8.1a45.4 45.4 0 0 0-10.1 6.7c3 .1 6.4-.3 13.5-3.7a26.2 26.2 0 0 0 6.2-4.8 16.9 16.9 0 0 1 6.8-4 28 28 0 0 0 10.6-6 34.2 34.2 0 0 0 6.8-9.1c-3.3 1.3-6.8 4.2-9.8 6.1M48.2 181.1c-4 1.6-7.5.8-11.1 1.3a15.6 15.6 0 0 0-6.3 2.3c-3.2 2-5.2 4.8-8.9 6.5a45.5 45.5 0 0 0-11.2 4.7c2.9.7 6.3.9 13.9-1.2a26.2 26.2 0 0 0 7-3.6 16.8 16.8 0 0 1 7.5-2.7 28.1 28.1 0 0 0 11.5-3.9 34.3 34.3 0 0 0 8.3-7.7c-3.5.7-7.5 2.9-10.7 4.2M43.9 168.6c-4.1 1.2-7.5 0-11.2.1a15.5 15.5 0 0 0-6.5 1.6c-3.4 1.6-5.7 4.2-9.6 5.5A45.4 45.4 0 0 0 5 179.2c2.8 1 6.2 1.6 14 .4a26.2 26.2 0 0 0 7.3-2.8A16.8 16.8 0 0 1 34 175a28.1 28.1 0 0 0 11.9-2.6 34.1 34.1 0 0 0 9.1-6.7c-3.5.3-7.8 2.1-11.1 3M41.1 155.5c-4.3.7-7.5-.8-11.1-1.1a15.6 15.6 0 0 0-6.7.9c-3.6 1.2-6.1 3.6-10.1 4.5A45.3 45.3 0 0 0 1.3 162c2.7 1.3 6 2.2 13.8 1.9a26.2 26.2 0 0 0 7.6-2 16.9 16.9 0 0 1 7.9-1 28 28 0 0 0 12.1-1.3 34.3 34.3 0 0 0 9.8-5.7c-3.5-.1-7.9 1.2-11.4 1.8M40.3 142.9c-4.3.3-7.4-1.6-10.9-2.4a15.5 15.5 0 0 0-6.7.1c-3.7.8-6.5 2.9-10.5 3.3a45.7 45.7 0 0 0-12.1.8c2.5 1.6 5.7 2.9 13.5 3.4a26.3 26.3 0 0 0 7.8-1.2 16.9 16.9 0 0 1 7.9-.1 28.1 28.1 0 0 0 12.2.1 34.3 34.3 0 0 0 10.4-4.6c-3.5-.5-8 .3-11.5.5M41.3 129.1c-4.3-.4-7-2.7-10.4-3.9a15.5 15.5 0 0 0-6.7-.9c-3.8.3-6.8 1.9-10.9 1.7a45.3 45.3 0 0 0-12.1-.9c2.3 1.9 5.2 3.7 12.9 5.4a26.2 26.2 0 0 0 7.9 0 16.9 16.9 0 0 1 7.9 1.1 28 28 0 0 0 12 1.8 34.2 34.2 0 0 0 10.9-3c-3.4-1-8-.9-11.5-1.2M43.6 116c-4.2-.9-6.7-3.5-9.9-5.2a15.5 15.5 0 0 0-6.5-1.7c-3.8-.2-7 1-11 .4a45.6 45.6 0 0 0-11.9-2.4c2 2.2 4.7 4.3 12.2 6.9a26.1 26.1 0 0 0 7.8 1 16.9 16.9 0 0 1 7.7 2 28 28 0 0 0 11.7 3.3 34.2 34.2 0 0 0 11.2-1.6c-3.3-1.4-7.8-1.8-11.2-2.6M53.6 91.5c-3.8-2.1-5.4-5.3-8-7.8a15.5 15.5 0 0 0-5.8-3.5c-3.6-1.3-7-1-10.7-2.8a45.6 45.6 0 0 0-10.7-5.7c1.3 2.7 3.3 5.5 9.7 10.1a26.2 26.2 0 0 0 7.3 3.2 16.9 16.9 0 0 1 6.8 4.1 28 28 0 0 0 10.3 6.5 34.3 34.3 0 0 0 11.2 1.6c-2.7-2.3-7-4-10-5.7M61.3 80.4c-3.5-2.6-4.6-6-6.9-8.8a15.5 15.5 0 0 0-5.2-4.2c-3.4-1.7-6.8-1.9-10.2-4.2a45.3 45.3 0 0 0-9.8-7.1c1 2.8 2.5 5.9 8.2 11.3a26.2 26.2 0 0 0 6.7 4.1 16.9 16.9 0 0 1 6.2 5 28 28 0 0 0 9.3 7.8 34.1 34.1 0 0 0 10.9 3.1c-2.4-2.6-6.4-4.9-9.2-7"/> </g> <g fill="#f26529"> <path d="M378.6 193l24.8-134.8h-53l-31.7 177.6h128.5s4.6-22.3 6.4-42.8c-10.1.1-15.3.1-75 0zM770.1 53.8c-9.9-.2-86.6 1.2-103.8 94.9-15.9 86.9 54.8 93 68.1 93.4s83.4 10.3 106.7-93.4c17.3-93.7-60.8-95.1-71-94.9zm14.1 94.9c-2.8 15.9-14.2 48-40.5 49-25.9-1-23.4-33.1-20.4-49s12.6-50.4 38.8-51.1 25.2 34.1 22.1 51.1zM640.4 58.2l-42.6 112.6 4.7-112.6H550.4l-42.5 112.6 4.7-112.6h-41.1l-7.4 178.1h64.2l28.9-76.3-3.2 76.3h64.2l67.4-178.1h-45.2"/> </g> 
    </symbol>
    <symbol id="icon_tw" viewBox="0 0 20 16">
       <path fill="currentColor" d="M20 1.895c-.736.32-1.526.538-2.357.635.847-.5 1.498-1.29 1.805-2.235-.793.464-1.67.8-2.606.98C16.092.492 15.027 0 13.847 0 11.58 0 9.743 1.808 9.743 4.04c0 .315.036.624.107.92C6.44 4.79 3.416 3.183 1.392.74 1.04 1.335.837 2.03.837 2.77c0 1.4.724 2.638 1.825 3.363-.672-.022-1.306-.203-1.86-.506v.05c0 1.958 1.416 3.59 3.292 3.962-.343.09-.706.14-1.08.14-.264 0-.522-.027-.773-.074.526 1.605 2.04 2.773 3.836 2.805-1.403 1.084-3.173 1.73-5.096 1.73-.33 0-.66-.02-.98-.057C1.817 15.33 3.974 16 6.29 16c7.547 0 11.674-6.155 11.674-11.492 0-.176-.004-.35-.01-.523.8-.57 1.496-1.28 2.046-2.09z"/> 
    </symbol>
    <symbol id="icon_vk" viewBox="0 0 25 14.125">
       <path fill="currentColor" d="M12.233 13.936h1.493s.45-.05.682-.293c.21-.224.205-.644.205-.644s-.03-1.97.9-2.26c.92-.285 2.095 1.903 3.345 2.744.944.637 1.662.497 1.662.497l3.338-.046s1.747-.105.92-1.453c-.07-.11-.482-.996-2.485-2.816-2.094-1.907-1.814-1.6.71-4.896 1.536-2.01 2.147-3.236 1.958-3.76C24.78.51 23.65.64 23.65.64l-3.76.025s-.28-.037-.488.083c-.2.12-.33.395-.33.395s-.596 1.555-1.39 2.875c-1.674 2.79-2.343 2.94-2.616 2.764-.635-.406-.477-1.62-.477-2.488 0-2.7.415-3.83-.816-4.12-.41-.098-.71-.162-1.756-.172C10.68-.01 9.544.01 8.903.317c-.43.205-.76.663-.558.69.247.03.81.15 1.11.546.385.516.372 1.67.372 1.67s.223 3.18-.517 3.575c-.504.273-1.2-.28-2.692-2.81-.764-1.297-1.34-2.73-1.34-2.73s-.113-.267-.31-.41c-.24-.174-.58-.23-.58-.23L.816.64S.28.66.083.888c-.175.2-.014.622-.014.622s2.794 6.42 5.96 9.653c2.903 2.967 6.2 2.773 6.2 2.773z"/> 
    </symbol></svg>