<svg xmlns="http://www.w3.org/2000/svg" width="202" height="219" viewBox="0 0 202 219">
  <g fill="none" fill-rule="evenodd">
    <path stroke="#666" stroke-width="2" d="M186.818 45.108l-71.63-40.385c-8.813-4.952-19.568-4.952-28.38 0l-71.63 40.385c-8.72 4.847-14.146 14.023-14.19 24v80.772c.044 9.977 5.47 19.153 14.19 24l71.63 40.387c8.812 4.95 19.567 4.95 28.38 0l71.63-40.387c8.72-4.847 14.145-14.023 14.19-24V69.112c-.044-9.978-5.47-19.155-14.19-24.004z" opacity=".1"/>
    <path fill="#06B7C5" d="M110.34 72.928c-1.105-.436-2.23-.816-3.375-1.138-1.13-.33-2.275-.596-3.433-.8-2.313-.382-4.656-.56-7-.53-2.287.003-4.57.207-6.822.608-2.257.386-4.47.992-6.61 1.81-.976.393-1.93.84-2.856 1.338-1.112.57-2.195 1.193-3.244 1.87-1.472.99-2.822 2.15-4.024 3.454-.456.485-.91.972-1.366 1.46-.33.353-.622.75-.927 1.125-.305.374-.625.736-.91 1.122-.404.552-.81 1.104-1.218 1.655-1.34 1.82-2.522 3.745-3.715 5.666l.218-.35c-.935 1.5-1.756 3.07-2.58 4.633-.37.7-.7 1.42-1.052 2.13-.356.74-.627 1.52-.93 2.28-.67 1.72-1.202 3.5-1.587 5.3-.48 2.27-.74 4.58-.78 6.9-.04 1.81.11 3.62.46 5.4.17.9.32 1.82.56 2.7.22.8.41 1.62.66 2.42.24.76.45 1.53.72 2.28.26.73.5 1.46.8 2.17l.62 1.45c.31.72.67 1.42 1.04 2.12 1.06 2.04 2.42 3.9 4.04 5.53.75.79 1.56 1.52 2.42 2.19.64.49 1.31.94 2 1.36.33.21.65.43.99.62l1.3.71c.72.4 1.47.73 2.22 1.09.48.23 1 .41 1.5.6 1.06.42 2.13.77 3.22 1.1 1.71.5 3.46.82 5.23.96 1.79.13 3.59.14 5.39.05 2.65-.1 5.3-.37 7.95-.48.84-.09 1.46-.85 1.37-1.7-.1-.84-.86-1.45-1.7-1.38-1.36.08-2.72.11-4.08.15-2.05.06-4.09.15-6.13.11-1.24-.04-2.47-.15-3.7-.32-1.25-.19-2.49-.46-3.7-.82-1.09-.34-2.15-.75-3.21-1.17-.69-.27-1.35-.59-2.01-.9-.67-.31-1.33-.67-1.98-1.02-.47-.25-.92-.53-1.36-.81l.01.01c-1.36-.93-2.62-2-3.75-3.19-1.22-1.36-2.27-2.87-3.14-4.47-.53-1.02-.99-2.08-1.45-3.13-.13-.29-.23-.6-.34-.9-.15-.38-.3-.76-.43-1.15-.25-.76-.53-1.51-.75-2.28-.23-.79-.45-1.58-.68-2.37-.15-.72-.3-1.44-.46-2.16-.17-.84-.29-1.69-.37-2.55-.098-.99-.13-1.98-.11-2.98.092-2.76.52-5.51 1.28-8.17.2-.65.42-1.3.664-1.94l.67-1.73c.117-.3.26-.59.4-.88.227-.47.45-.942.68-1.41.376-.78.81-1.53 1.21-2.29.216-.4.46-.79.69-1.183l.65-1.12c.515-.814 1.02-1.64 1.57-2.43l1.28-1.84c.276-.39.58-.77.87-1.15.33-.43.64-.88.987-1.29l1.395-1.63c.3-.354.615-.682.94-1.014.483-.5.96-1 1.464-1.48.63-.58 1.29-1.13 1.99-1.63.84-.59 1.712-1.124 2.62-1.606 1.09-.59 2.22-1.12 3.37-1.597 1.24-.487 2.52-.888 3.82-1.2 3.17-.716 6.413-1.047 9.663-.988 1.45.043 2.9.164 4.34.36 1.51.22 3.01.544 4.48.98 1.37.42 2.71.933 4.01 1.532 1.35.63 2.67 1.34 3.95 2.13 2.902 1.82 5.58 4 7.96 6.47.73.8 1.41 1.64 2.042 2.52.62.88 1.19 1.8 1.7 2.75 1.72 3.39 3.03 6.97 3.9 10.665.553 2.37.83 4.792.81 7.224-.13 2.82-.607 5.61-1.42 8.31-.918 3.14-2.21 6.15-3.86 8.97-.846 1.35-1.75 2.66-2.65 3.985-.19.24-.28.55-.25.85.044.46.36.84.8.98.44.134.913-.01 1.21-.36 1.313-1.92 2.69-3.808 3.83-5.84 1.14-2.06 2.1-4.216 2.87-6.44.802-2.246 1.43-4.55 1.86-6.9.4-2.31.53-4.66.37-7-.194-2.278-.59-4.53-1.185-6.74-.54-2.21-1.24-4.378-2.1-6.486-.866-2.164-1.96-4.232-3.256-6.17-.624-.892-1.306-1.744-2.04-2.55-.85-.95-1.745-1.85-2.69-2.7-1.746-1.58-3.616-3.02-5.59-4.3-1.66-1.09-3.405-2.05-5.21-2.88-.374-.17-.75-.33-1.126-.48zm20.45 35.518v.123-.13zm-6.956 28.8c-.465-.113-.947-.144-1.423-.093-.43.05-.86.138-1.28.266-.41.1-.81.25-1.21.39-.92.31-1.83.67-2.71 1.1-1.72.87-3.33 1.94-4.79 3.2-1.55 1.29-2.94 2.76-4.14 4.38-.57.78-1.08 1.61-1.52 2.47-.02.05-.05.09-.07.14-.12-.05-.25-.11-.37-.17-.07-.06-.14-.11-.22-.17l-.01-.18c0-.06.02-.14.04-.22.32-.84.71-1.65 1.18-2.41 1.2-1.84 2.61-3.53 4.22-5.02.66-.61 1.35-1.18 2.07-1.72.73-.56 1.5-1.08 2.3-1.54l.66-.3c.56-.23.84-.85.63-1.41-.21-.56-.84-.85-1.4-.64-.39.16-.77.34-1.14.54-.4.23-.79.47-1.18.73-.84.55-1.65 1.15-2.43 1.8-1.52 1.26-2.91 2.67-4.17 4.19-.61.75-1.18 1.53-1.69 2.35-.28.44-.54.89-.78 1.35-.25.44-.47.91-.64 1.39-.14.44-.19.9-.15 1.36.04.44.2.87.46 1.23.14.2.31.37.49.53.19.16.4.31.62.42.27.16.55.28.85.37v.16c.03.75.28 1.47.73 2.06.56.62 1.32 1.03 2.15 1.17.39.06.78.08 1.17.04.37-.03.74-.09 1.106-.18.64-.14 1.28-.32 1.9-.54-.19.23-.37.48-.54.72-.59.79-1.07 1.66-1.43 2.59-.15.44-.27.89-.35 1.35-.072.49-.07.99.018 1.47.07.44.21.87.43 1.26.2.33.47.61.79.82.58.38 1.23.63 1.91.73l-.02.07c-.06.23-.07.46-.05.69.02.24.067.47.13.7.14.53.42 1.02.817 1.4.32.31.68.57 1.07.78.39.21.81.37 1.25.47.19.05.39.08.58.1-.21.326-.4.664-.58 1.01-.21.45-.38.924-.5 1.41-.11.463-.16.94-.14 1.42.03.44.13.876.28 1.29.17.545.48 1.03.9 1.42.737.59 1.61.98 2.54 1.136.94.182 1.91.18 2.855-.01l.08-.017c-.08.13-.16.25-.24.38-.29.47-.5.99-.63 1.52-.103.44-.11.89-.01 1.32.056.26.13.51.22.76.11.24.23.48.37.7.1.16.21.31.347.44.17.2.36.38.57.55.44.33.93.59 1.45.78 1.84.53 3.79.54 5.64.03.93-.19 1.86-.38 2.77-.63.95-.26 1.88-.57 2.81-.887 1.74-.58 3.46-1.18 5.19-1.78 1.73-.607 3.46-1.22 5.19-1.82.79-.317 1.19-1.21.89-2.01-.3-.8-1.19-1.21-2-.92-1.73.6-3.46 1.2-5.2 1.79l-3.45 1.18c-.51.175-1.02.34-1.536.51-1.18.387-2.35.776-3.555 1.08-.7.155-1.4.29-2.1.42-.77.155-1.55.24-2.34.26-.35-.02-.7-.074-1.05-.155-.24-.087-.47-.188-.7-.3-.08-.06-.16-.12-.23-.19-.05-.067-.09-.13-.133-.198-.04-.087-.07-.17-.1-.26 0-.014 0-.03.01-.04.088-.24.19-.47.31-.7.52-.74 1.078-1.45 1.67-2.12.61-.69 1.25-1.357 1.92-1.986l.23-.2c1.042-.58 2.07-1.19 3.08-1.83.6-.39 1.21-.77 1.804-1.16l.98-.64c.2-.13.4-.25.6-.37.056-.04.11-.07.16-.11.15-.13.29-.26.43-.4.15-.22.29-.44.42-.66.34-.76 0-1.65-.76-2-.36-.16-.78-.17-1.15-.04-.413.11-.82.25-1.22.42-.44.213-.88.45-1.3.71-.83.5-1.623 1.07-2.41 1.64-.783.566-1.57 1.19-2.31 1.837-.7.363-1.4.72-2.13 1.04-.85.36-1.73.654-2.63.87-.49.11-.99.174-1.49.19-.39-.03-.78-.09-1.16-.19-.18-.06-.36-.14-.53-.23l-.03-.02-.04-.05c-.043-.1-.08-.21-.114-.32-.02-.125-.04-.25-.05-.37.02-.187.056-.37.1-.54.14-.42.32-.81.535-1.19.57-.86 1.22-1.65 1.93-2.39.2-.07.4-.14.59-.22.93-.36 1.84-.79 2.71-1.28 1.3-.72 2.567-1.51 3.79-2.36.35-.242.7-.49 1.06-.732.24-.164.49-.33.73-.504.2-.16.39-.34.56-.53.11-.17.21-.338.317-.5l.198-.42c.208-.45.158-.98-.13-1.388-.29-.41-.765-.63-1.26-.59-.373-.04-.75-.03-1.122.01-.443.08-.88.22-1.29.41-.42.19-.83.42-1.23.64-.44.24-.872.49-1.3.75-1.673 1.01-3.24 2.19-4.68 3.51-.41.37-.81.75-1.203 1.15-.55.1-1.108.15-1.66.16-.27-.02-.54-.06-.81-.12-.23-.08-.45-.18-.66-.3l-.3-.24c-.04-.05-.078-.1-.11-.15-.04-.1-.07-.19-.1-.28 0-.03-.01-.06-.01-.09.02-.15.05-.3.1-.46l.06-.18c.3-.07.59-.148.88-.23.91-.29 1.78-.687 2.59-1.17 1.637-.95 3.19-2.038 4.64-3.24 1.25-1 2.44-2.066 3.58-3.19.76-.75 1.53-1.5 2.24-2.3.61-.53.79-1.39.45-2.12-.25-.3-.593-.5-.98-.56-.18-.04-.37-.05-.55-.04-.28.01-.56.05-.83.12-.4.103-.79.24-1.18.4-.42.17-.84.34-1.26.54-.91.44-1.79.94-2.64 1.49-1.62 1.05-3.13 2.27-4.5 3.63-.67.654-1.32 1.334-1.93 2.04-.67.75-1.29 1.55-1.86 2.38l-.06.09-.173.01c-.29-.03-.57-.07-.85-.14-.19-.07-.37-.15-.55-.24-.05-.035-.1-.07-.14-.115l-.09-.257c-.04-.21-.06-.43-.07-.65.03-.32.09-.63.17-.94.204-.584.47-1.15.79-1.68 1-1.532 2.19-2.94 3.54-4.182.62-.57 1.26-1.12 1.92-1.66l.38-.23 1.56-.96c.56-.35 1.09-.74 1.63-1.11 1.01-.69 2.02-1.38 2.97-2.14.306-.225.47-.59.44-.97-.05-.37-.28-.69-.615-.85-.72-.42-1.52.11-2.09.53-.334.244-.7.45-1.044.674-.45.29-.89.6-1.33.91-.99.69-1.96 1.4-2.91 2.14-.53.317-1.06.628-1.6.92-.88.467-1.77.9-2.69 1.3-.97.45-1.97.818-3 1.1-.53.13-1.08.21-1.625.24-.16-.014-.32-.04-.48-.076-.13-.05-.25-.1-.37-.16-.06-.04-.11-.09-.16-.13l-.04-.06c-.05-.11-.096-.22-.13-.34l-.03-.17c.34-.05.68-.143 1.01-.23.91-.25 1.78-.6 2.61-1.04.83-.43 1.65-.9 2.447-1.39.39-.243.78-.5 1.16-.76.384-.26.777-.52 1.145-.8.636-.48 1.268-.97 1.9-1.45.2-.15.39-.3.59-.45.256-.194.49-.43.73-.64.56-.49 1.14-.96 1.67-1.49.5-.5 1.018-.98 1.49-1.5.53-.57 1.046-1.15 1.56-1.734.168-.187.31-.39.43-.61.11-.177.18-.37.22-.58.04-.23.02-.46-.05-.68-.08-.18-.18-.34-.3-.49-.21-.237-.47-.42-.76-.55-.122-.06-.25-.107-.384-.14l.02-.008zm-.406 2.11c.038.02.074.042.11.066l-.11-.067zm-.812-.072l-.042.043c-.145.152-.29.306-.438.453-.327.324-.653.65-.978.975-.454.426-.9.867-1.376 1.263l-1.14.94c-.28.23-.553.486-.848.7-.75.54-1.492 1.087-2.24 1.63-1.34.97-2.744 1.85-4.2 2.638-.595.315-1.21.59-1.84.828l.05-.085c1-1.54 2.185-2.95 3.527-4.2 1.45-1.35 3.06-2.51 4.78-3.47.71-.36 1.44-.68 2.18-.96.67-.26 1.36-.49 2.05-.68.18-.04.35-.07.53-.09v-.01zm5.052 13.41l.44-.18c-1 .93-2.01 1.854-3.048 2.742-1.083.925-2.217 1.8-3.37 2.636-1.045.75-2.134 1.436-3.26 2.054.868-1.047 1.803-2.037 2.8-2.965 1.557-1.42 3.278-2.65 5.127-3.67.43-.22.864-.43 1.312-.61h-.01zm-10.14.135l-.144.13.143-.13zm-11.39-3.98l.1.11c-.036-.04-.07-.07-.1-.11zm-.016.03l.04.07c-.014-.03-.028-.05-.04-.08zm6.99 11.47l.03.06-.03-.06zm16.236 12.32l-.135.12.134-.13zm-4.124 4.82v.04-.05zm-40.07-57.32c-.437.04-.84.26-1.115.6-.28.34-.41.78-.36 1.22.04.43.25.83.59 1.1 1.45 1 2.91 1.99 4.38 2.98 1.12.75 2.28 1.44 3.43 2.15.38.23.77.44 1.17.66.53.29 1.05.6 1.6.87.57.28 1.13.57 1.71.86.62.3 1.25.6 1.85.94.32.15.69.16 1.02.03.33-.13.6-.38.75-.7.29-.68-.01-1.47-.67-1.78-.65-.34-1.26-.73-1.87-1.12l-1.54-.95-2.04-1.28c-.84-.53-1.67-1.1-2.5-1.65-.67-.44-1.31-.9-1.96-1.35-1.08-.75-2.15-1.49-3.22-2.24-.13-.09-.27-.17-.41-.24-.26-.12-.55-.17-.83-.14v-.01zm26.1-8.07c-.398-.07-.8.09-1.06.4-.134.18-.257.37-.367.57-.058.16-.102.33-.13.5-.02.13-.03.26-.036.39-.02.51.01 1.03.08 1.54.06.47.1.95.14 1.43.08.82.14 1.65.25 2.47.1.76.19 1.52.3 2.27l.43 2.71c.04.45.32.84.73 1.02.41.18.89.13 1.25-.13.37-.27.56-.71.5-1.16-.22-1.57-.42-3.14-.63-4.72l-.24-1.97-.15-1.29c-.05-.42-.12-.84-.18-1.26l.07-.07c.2-.23.29-.53.25-.83-.09-.39-.18-.78-.28-1.17-.1-.29-.31-.53-.6-.64-.09-.04-.2-.07-.3-.09zm-5.435-6.08c-.58-.23-1.15-.45-1.72-.67-.64-.23-1.29-.42-1.96-.56-1.33-.31-2.71-.3-4.03.03-1.34.37-2.54 1.14-3.45 2.2-.4.48-.71 1.02-.93 1.61-.15.38-.25.78-.28 1.19-.43.16-.88.27-1.31.4-.39.11-.78.22-1.16.35l-1.56.5c-.41.13-.81.3-1.21.44-1.77.62-3.46 1.45-5.02 2.48-.43.31-.64.85-.51 1.36.12.52.54.91 1.06.99.33.04.67-.04.95-.22l.11-.07c1.75-.83 3.55-1.56 5.39-2.18.8-.28 1.62-.51 2.44-.74.64-.18 1.3-.34 1.94-.54.31-.1.61-.24.89-.41.32-.22.6-.52.79-.87.19-.42.31-.88.35-1.34.09-.24.2-.48.32-.72.16-.23.34-.45.53-.65.29-.24.6-.47.92-.66.26-.12.53-.22.81-.3.42-.08.85-.12 1.28-.12.79.05 1.58.18 2.34.38.6.2 1.2.42 1.8.64.34.14.72.16 1.07.03.52-.2.88-.69.91-1.24.03-.56-.27-1.08-.77-1.34l-.06-.03v.01zm-11.94 3.59l-.02.02.02-.02zm-8.79 6.32l-.18.09.17-.1zm81.33-42.29c-2.2.96-4.43 1.88-6.64 2.83l-4.12 1.77c-.32.13-.62.29-.93.44l-2.31 1.1-3.91 1.86c-.28.13-.55.3-.82.45l-1.82 1.04-4.74 2.71-1.41.8c-1.03.59-2.02 1.24-3.03 1.86l-.38.24c-.39.27-.57.76-.46 1.22.11.46.48.81.95.89.3.04.61-.03.86-.2 1.25-.78 2.49-1.57 3.77-2.3l2.95-1.69c1.67-.96 3.35-1.9 5.01-2.86l7.05-3.37c.38-.18.78-.34 1.16-.5l2.53-1.1 3.3-1.42c1.26-.54 2.51-1.09 3.78-1.62.59-.23.88-.89.67-1.49-.12-.29-.34-.53-.63-.65-.27-.13-.59-.14-.86-.02h-.01zM51.78 135.22c-1.88.94-3.763 1.87-5.65 2.792-.948.463-1.9.916-2.84 1.388-.925.463-1.86.91-2.775 1.393-1.5.8-3.01 1.588-4.5 2.414-.65.358-1.3.71-1.94 1.08-.9.525-1.81 1.035-2.688 1.6-.37.267-.487.766-.273 1.168.216.402.695.584 1.12.425l.566-.257c.156-.067.294-.172.4-.305.734-.426 1.48-.834 2.22-1.25l-.043.023 2.94-1.56-.133.08c.97-.51 1.96-1 2.935-1.5.92-.47 1.85-.92 2.78-1.38 1.85-.91 3.7-1.83 5.54-2.75 1.01-.5 2.02-1.02 3.03-1.52.24-.1.43-.28.54-.51.22-.49 0-1.06-.49-1.29-.24-.11-.5-.11-.74-.02zM35.35 145.7l-.14.075.14-.075zm2.748-1.46l.082-.043-.082.043zM58 44.17c-.265.19-.443.478-.494.8-.043.312.03.63.21.89l2.834 4.613c.536.873 1.067 1.745 1.628 2.6L64.56 56.7c.262.4.576.772.863 1.155.473.635.946 1.268 1.42 1.9.3.4.645.776.973 1.158.414.482.823.968 1.257 1.434.91.973 1.827 1.938 2.734 2.915l-.178-.19.23.258c.16.215.4.363.66.414.26.042.53-.024.75-.182.22-.158.36-.396.4-.66.04-.262-.02-.53-.18-.744-.88-.957-1.72-1.958-2.57-2.945-.34-.387-.66-.78-.98-1.18-.26-.325-.52-.65-.78-.97-.12-.153-.25-.3-.37-.457l-2.31-3.222c-.24-.327-.44-.68-.66-1.017l-1.43-2.212c-1.64-2.532-3.16-5.133-4.74-7.7-.11-.176-.27-.316-.46-.4-.41-.176-.87-.132-1.23.115zm70.343-2.14c-.188.078-.34.223-.43.407-1.317 2.273-2.657 4.53-4 6.788-.354.594-.724 1.18-1.086 1.768l-2.03 3.293c-.947 1.54-1.875 3.09-2.81 4.635-.5.83-.965 1.69-1.446 2.53-.2.35-.36.71-.54 1.07-.19.39-.38.77-.56 1.16l-1.02 2.36c-.14.32-.1.68.1.96.2.28.54.43.88.4.35-.03.64-.24.79-.56.21-.49.42-.98.64-1.47.19-.43.36-.87.57-1.3l.76-1.55c.16-.31.33-.61.5-.91.42-.76.83-1.51 1.26-2.26l1.93-3.32c.99-1.7 2-3.38 3-5.07.97-1.63 1.9-3.29 2.85-4.93.56-.97 1.12-1.94 1.67-2.92.13-.28.07-.62-.14-.85-.22-.23-.55-.3-.84-.19zM48.918 97.073c-1.872-.748-3.73-1.528-5.6-2.287-.33-.135-.667-.25-1-.374l-1.833-.68c-.732-.274-1.48-.5-2.222-.747-1.84-.604-3.68-1.216-5.517-1.837-.978-.333-1.956-.664-2.934-.993-.244-.084-.48-.2-.718-.3-.61-.25-1.223-.504-1.834-.758l-1.576-.65c-.82-.34-1.626-.7-2.44-1.058-.444-.2-.965 0-1.163.44-.19.44.01.96.45 1.16 1.31.57 2.62 1.13 3.94 1.68l1.85.77c.25.1.51.23.77.32l5.65 1.92c.91.3 1.82.59 2.73.88.75.24 1.51.47 2.25.74l1.82.65c.36.12.72.24 1.07.38l2.64 1.03c1.01.39 2.01.78 3.01 1.19.42.19.91.02 1.11-.4.2-.42.02-.91-.39-1.11l-.03-.01zm29.987 53.5c-.39-.06-.788.033-1.11.26-.325.244-.546.6-.618 1-.454 1.892-.916 3.78-1.325 5.684-.375 1.758-.75 3.515-1.128 5.27-.133.613-.264 1.225-.393 1.838-.2.914-.34 1.837-.5 2.758-.35 1.833-.56 3.69-.62 5.555-.01.744.07 1.487.23 2.214l.3 1.385c.05.323.2.62.45.836.4.326.95.382 1.4.14.45-.242.71-.732.66-1.24-.17-.96-.27-1.935-.28-2.91.04-.7.13-1.39.23-2.08.12-.795.23-1.59.37-2.38.2-1.177.43-2.355.68-3.52l.75-3.393.96-4.38c.39-1.776.83-3.54 1.26-5.31.07-.39-.03-.79-.26-1.11-.23-.334-.59-.558-1-.622v.005zm87.805-25.93c-1.664-.554-3.3-1.18-4.953-1.784-1.713-.63-3.42-1.27-5.124-1.92-3.99-1.53-7.93-3.18-11.878-4.81-.92-.42-2-.01-2.414.91-.41.92 0 2 .92 2.41 2.44.99 4.89 1.97 7.34 2.93l2.06.81c.84.33 1.7.6 2.55.9.8.28 1.6.56 2.39.84.93.33 1.87.61 2.8.91 1.68.54 3.36 1.05 5.02 1.64.38.16.81.18 1.2.04.58-.23.97-.76 1.01-1.38.04-.62-.28-1.2-.83-1.49l-.08-.04h.01z"/>
  </g>
</svg>
