<svg xmlns="http://www.w3.org/2000/svg" width="134" height="47" viewBox="0 0 182 65">
  <g fill="none" fill-rule="evenodd">
    <path fill="#3F3F3E" d="M137.473 51.41h-7.063V10.988c0-2.51-1.207-3.625-3.345-3.625-1.952 0-3.996.743-6.506 2.51v41.54h-7.07V1.227h7.06V4.48c2.05-1.95 4.74-3.81 8.65-3.81 3.622 0 6.04 1.488 7.34 4.09 2.51-2.137 5.482-4.09 9.57-4.09 5.484 0 8.27 3.347 8.27 8.83v41.91h-7.06V10.988c0-2.51-1.208-3.625-3.346-3.625-1.95 0-3.996.743-6.505 2.51v41.54m-35.62-8.458V26.402l-6.41 2.428c-2.605 1.02-3.44 2.32-3.44 5.2v7.62c0 2.415 1.207 3.622 3.437 3.622 2.137 0 4.09-.743 6.412-2.322zM84.93 33.94c0-6.226 2.044-8.735 7.434-10.593l9.48-3.253V11.73c0-2.974-1.488-4.554-4.46-4.554h-1.152c-2.974 0-4.46 1.58-4.46 4.554v7.107h-6.878V12.01c0-7.53 3.81-11.34 11.338-11.34h1.336c7.527 0 11.338 3.81 11.338 11.34v39.4h-7.063v-3.158c-1.95 1.858-4.553 3.717-8.642 3.717-5.67 0-8.27-3.26-8.27-8.83v-9.2zm-21.92 8.736c1.95 1.673 4.182 2.6 6.505 2.6 2.602 0 4.09-1.206 4.09-4.087V11.45c0-2.88-1.488-4.088-4.09-4.088-2.323 0-4.554.93-6.505 2.602v32.712zM55.95 1.228h7.062V4.48C64.685 2.716 67.566.67 71.654.67c6.04 0 9.015 3.997 9.015 9.945v31.41c0 5.948-2.98 9.944-9.02 9.944-4.09 0-6.97-1.96-8.64-3.63v16.19h-7.06V1.22zm-21.69 21.16h10.037V11.73c0-2.974-1.486-4.46-4.46-4.46h-1.115c-2.974 0-4.46 1.486-4.46 4.46v10.657zm-.022 6.8l.023 11.722c0 2.974 1.49 4.46 4.47 4.46h1.3c2.978 0 4.46-1.486 4.46-4.46v-5.762h6.88v5.484c0 7.527-3.81 11.337-11.335 11.337h-1.49c-7.53 0-11.34-3.81-11.34-10.46V12.89C27.2 4.48 31.01.67 38.537.67h1.487C47.55.67 51.36 4.48 51.36 12.01l-.022 17.178h-17.1z"/>
    <path fill="#44BBC7" d="M18.146 5.85v9.228L6.26 26.405l11.886 11.123v9.43L0 29.9v-6.79L18.146 5.85m163.348 17.26v6.79l-18.146 17.058v-9.43l11.885-11.123-11.885-11.327V5.85l18.146 17.26"/>
  </g>
</svg>
