<svg xmlns="http://www.w3.org/2000/svg" width="74" height="80" viewBox="0 0 74 80.2">
  <path fill="currentColor" d="M68.8 16.3L42.3 1.4a10.7 10.7 0 0 0-10.5 0L5.3 16.3A10.2 10.2 0 0 0 0 25.2V55a10.2 10.2 0 0 0 5.3 8.9l26.5 14.9a10.7 10.7 0 0 0 10.5 0l26.5-14.9A10.2 10.2 0 0 0 74 55V25.2a10.2 10.2 0 0 0-5.2-8.9z"/>
  <path fill="#fff" d="M41.1 49.9l-1 .2a2.1 2.1 0 0 1-1.3-.3 1.4 1.4 0 0 1-.4-1.2 6.2 6.2 0 0 1 .1-1l.3-1.2 1.2-4.3a6.7 6.7 0 0 0 .2-1.3q.1-.7.1-1a2.8 2.8 0 0 0-.9-2.2 3.9 3.9 0 0 0-2.7-.8 6.8 6.8 0 0 0-2.1.3l-2.3.8-.3 1.4.8-.3h1a1.9 1.9 0 0 1 1.3.3 1.5 1.5 0 0 1 .3 1.1 5.2 5.2 0 0 1-.1 1l-.3 1.1-1.2 4.3q-.2.7-.2 1.2a7.7 7.7 0 0 0-.1 1 2.8 2.8 0 0 0 1 2.2 4 4 0 0 0 2.7.9 6.1 6.1 0 0 0 2-.3l2.3-.9.3-1.3zm.3-20.1a3 3 0 0 0-4.1 0 2.6 2.6 0 0 0 0 3.8 3 3 0 0 0 4.1 0 2.6 2.6 0 0 0-.1-3.8z"/>
  <path fill="none" stroke="#fff" stroke-width="2" d="M64.6 20.6L42.4 8.2a9 9 0 0 0-8.8 0L11.4 20.6A8.5 8.5 0 0 0 7 28v25a8.5 8.5 0 0 0 4.4 7.4l22.2 12.5a9 9 0 0 0 8.8 0l22.2-12.5A8.5 8.5 0 0 0 69 53V28a8.5 8.5 0 0 0-4.4-7.4z"/>
</svg>
