<svg xmlns="http://www.w3.org/2000/svg" width="180" height="195" viewBox="0 0 180 195">
  <path fill="currentColor" d="M167.2 39.6L102.8 3.3a26.1 26.1 0 0 0-25.5 0L12.8 39.6A24.8 24.8 0 0 0 0 61.2v72.6a24.8 24.8 0 0 0 12.8 21.6l64.5 36.3a26.1 26.1 0 0 0 25.5 0l64.5-36.3a24.8 24.8 0 0 0 12.7-21.6V61.2a24.8 24.8 0 0 0-12.8-21.6z"/>
  <path fill="none" stroke="#fff" stroke-width="2" d="M161.4 45l-58.8-33a23.9 23.9 0 0 0-23.3 0L20.6 45A22.5 22.5 0 0 0 9 64.5v65.9A22.5 22.5 0 0 0 20.6 150l58.8 33a23.9 23.9 0 0 0 23.3 0l58.7-33a22.5 22.5 0 0 0 11.6-19.6V64.5A22.5 22.5 0 0 0 161.4 45z"/>
</svg>
