<svg xmlns="http://www.w3.org/2000/svg" width="74" height="80" viewBox="0 0 74 80">
  <path d="M68.7 16.3L42.3 1.4C39-.4 35.1-.4 31.8 1.4L5.4 16.3C2.2 18.1.1 21.5.1 25.2v29.7c0 3.7 2 7.1 5.3 8.9l26.4 14.9c3.3 1.8 7.2 1.8 10.5 0l26.4-14.9c3.2-1.8 5.2-5.2 5.2-8.9V25.1c0-3.6-2-7-5.2-8.8z" fill="currentColor"/>
  <path d="M40.1 48.8l-1 .2c-.5 0-.9-.1-1.3-.3-.3-.3-.5-.8-.4-1.2 0-.3 0-.7.1-1l.3-1.2L39 41c.1-.4.2-.9.2-1.3.1-.5.1-.8.1-1 0-.8-.3-1.6-.9-2.2-.8-.6-1.7-.9-2.7-.8-.7 0-1.4.1-2.1.3l-2.3.8-.3 1.4.8-.3h1c.5-.1.9 0 1.3.3.2.3.3.7.3 1.1 0 .3 0 .7-.1 1l-.3 1.1-1.2 4.3c-.1.5-.2.9-.2 1.2-.1.3-.1.7-.1 1 0 .8.4 1.7 1 2.2.8.6 1.7.9 2.7.9.7 0 1.4-.1 2-.3l2.3-.9.3-1.3-.7.3zm.3-20.1c-1.2-1.1-2.9-1.1-4.1 0-1 1-1.1 2.6-.1 3.7l.1.1c1.2 1.1 2.9 1.1 4.1 0 1-1 1-2.6 0-3.7 0 0-.1 0 0-.1z" fill="#FFF"/>
  <path d="M63.5 20.5L41.4 8.2c-2.7-1.5-6.1-1.5-8.8 0L10.5 20.5c-2.7 1.5-4.4 4.3-4.4 7.4v24.9c0 3.1 1.7 5.9 4.4 7.4l22.1 12.5c2.7 1.5 6.1 1.5 8.8 0l22.1-12.5c2.7-1.5 4.4-4.3 4.4-7.4V27.9c0-3-1.7-5.9-4.4-7.4z" stroke="#FFF" stroke-width="2" fill="none"/>
</svg>
