<svg xmlns="http://www.w3.org/2000/svg" width="180" height="195" viewBox="0 0 180 195">
  <path d="M167.2 39.6L102.8 3.3c-7.9-4.4-17.6-4.4-25.5 0L12.8 39.6C4.9 43.9 0 52.2 0 61.2v72.6c0 9 4.9 17.3 12.8 21.6l64.5 36.3c7.9 4.4 17.6 4.4 25.5 0l64.5-36.3c7.8-4.4 12.7-12.6 12.7-21.6V61.2c0-9-4.9-17.3-12.8-21.6z" fill="currentColor"/>
  <path d="M160.4 45l-58.8-33c-7.2-4-16.1-4-23.3 0L19.6 45C12.5 48.9 8.1 56.4 8 64.5v65.9c0 8.2 4.5 15.7 11.6 19.6l58.8 33c7.2 4 16.1 4 23.3 0l58.7-33c7.1-3.9 11.6-11.4 11.6-19.6V64.5c-.1-8.1-4.5-15.6-11.6-19.5z" fill="none" stroke="#FFF" stroke-width="2"/>
</svg>
