<svg xmlns="http://www.w3.org/2000/svg" width="94" height="103" viewBox="0 0 94 103">
  <g fill="none" fill-rule="evenodd">
    <path fill="#FFF" d="M87.333 20.94L53.67 1.765c-4.127-2.35-9.21-2.35-13.338 0L6.67 20.94C2.54 23.293 0 27.637 0 32.34v38.354c0 4.702 2.542 9.047 6.67 11.398l33.662 19.177c4.127 2.35 9.21 2.35 13.337 0L87.332 82.09C91.458 79.74 94 75.394 94 70.692V32.338c0-4.702-2.542-9.046-6.667-11.397z"/>
    <path fill="currentColor" d="M55.143 38.88v17.627s4.414-2.588 4.42-2.594c2.567-1.488 3.177-2.207 3.177-4.543V38.91c0-4.88-7.565-4.89-7.597-.03zm26.175-13.786l-2.292-1.326v2.992c0 .56-.702 1.014-2.714 1.014-2.013 0-2.714-.454-2.714-1.014v-3.436c0-2.073-1.182-3.38-3.224-4.56L52.67 8.524c-3.51-2.032-7.837-2.032-11.348 0l-28.646 16.57C9.164 27.124 7 30.88 7 34.942v33.14c0 4.063 2.164 7.817 5.676 9.848L41.322 94.5c3.51 2.032 7.837 2.032 11.35 0l17.702-10.24c2.042-1.18 3.224-2.486 3.224-4.56V33.966c0-.56.7-1.014 2.714-1.014 2.012 0 2.714.454 2.714 1.014v45.29l2.292-1.326c3.51-2.03 5.674-5.785 5.674-9.847v-33.14c0-4.064-2.163-7.818-5.674-9.85zM33.43 66.096c0 7.804-18.455 7.804-18.455 0l-.006-32.13c0-.56.702-1.014 2.714-1.014 2.01 0 2.713.454 2.713 1.014l.006 32.13c0 4.887 7.6 4.887 7.6 0v-32.13c0-.56.7-1.014 2.713-1.014s2.714.454 2.714 1.014v32.13zm10.857 4.94c0 .56-.702 1.015-2.714 1.015s-2.715-.453-2.715-1.013v-52.72c0-.56.703-1.622 2.715-2.813 2.012-1.19 2.714-.886 2.714-.327v55.86zM68.17 48.414c0 3.335.02 3.666-3.874 5.985-.706.42-7.583 4.408-8.215 4.775-.733.423-.937.814-.937 1.346v6.388c0 4.887 7.6 4.887 7.6 0v-4.015-.01c0-.56.7-1.62 2.713-2.812 2.012-1.19 2.714-.886 2.714-.326v7.164c0 7.804-18.457 7.804-18.457 0V38.91c0-7.808 18.457-7.808 18.457 0v9.503z"/>
  </g>
</svg>
