<svg xmlns="http://www.w3.org/2000/svg" viewBox="0 0 843.6 284.2">
  <g fill="#f26529" fill-rule="evenodd">
    <path d="M74.5 155.7a26.3 26.3 0 0 1 6.7 1.6c2 .8 4 1.7 3.6 2.2-2.2 2.5-13.9 1.3-17.2-.7s4.8-3.3 6.9-3.1m52.5-38.3c2.4-2.8 7.5-4.7 10.3-6.6s4.6-2.1 5.9-1.6 2.7 10.8.5 13.6-4.5 1.9-7.7 1.3-7.2-1-9.1-1.6-2.3-2.4.2-5.2zm6.9-9.5c-.4.3-1.7.8-1.5-.1a11.1 11.1 0 0 1 3.1-5.6c2.3-2.3 4-1.2 3.2.7s-2.4 3.3-4.7 4.9zm-4.1-9.6c.9-1.3 1.4-2.4.1-3.9s-10.2-1.5-12.9.9c-4.6 4.2-2.1 12.1.3 16.7 1.2 2.3 2 1.8 3.2-.1 3.3-4.9 6.3-9.2 9.4-13.7zm15.6-4.8c1.7 1 .9 6.1-3.1 3.9s1.4-5.1 3.2-4zm-35.2 21.8c.5.9 1.8 2.5-1.2 2.8-6.1.6-11.6.8-17-.1-2.1-.4-5.7-.3-5.6 2.4s3.7 2.4 4.8 2.4a70.1 70.1 0 0 0 22.2-2.8c1.3-.4 1.2 2.1.8 3.2a82.3 82.3 0 0 1-20.1 29.7c-1.5 1.3-3.3 3.3-5.5 2.5-7.3-2.6-13.9-4.5-21.9-3.1-2.4.4-5.1 1.1-6.6 3.3a3.4 3.4 0 0 0 .2 3.9c4.3 4.1 15.1 6.7 22.9 4.7 1.2-.3 3.8-1.8 4.9-2s4.5 1.3 5.8 1.9c17.9 12.3 37.6 27.3 61.3 29.9a48.8 48.8 0 0 0 16.7-1.1c3.2-.8 8.7-3.9 10.5-6.7s1.9-3.2 1.4-5.5-4-4.8-5.4-5.6c-14.3-8.7-29.8-8.6-48.4-3.3-1.7.5-1.3 2.8-.8 3.1a6.6 6.6 0 0 0 3.6.4c10.8-2.1 28.9-1.4 37.7 2.9 1.9.9 6.6 3 5.6 6.3-1.6 5-7.7 6.4-12.5 6.2-24.1-.8-45.7-17.8-64.4-30.8-.6-.4-2.7-1.2-1.6-2.4a186 186 0 0 0 18.6-23.7c.5-.7 3.5-6.8 5.5-6.8 4.2-.1 15.5-.2 18.3 2.1s2.7 4.7 1.1 6.8c-5.6 7.5-17.4 19-24.4 25.3-.7.6-.6 2.3.1 3.2s4.9.2 6.3-.9c12-9.3 27-24.4 38.3-33.2-3.7 10.7-10.3 20.1-15.4 31.2a2.7 2.7 0 0 0 .8 3.2 6 6 0 0 0 7.2-1.8c19.6-25.6 38.7-43.3 64.6-60.3 3.2-2.1 4.5-3.3 4.1-4.2s-3.8-.6-5.6.1c-24.8 10.4-37.1 24.3-53.3 42.2 3.7-12.2 12.3-24.2 18.5-35.2.6-1.1 1.1-3-.3-3.9a3.6 3.6 0 0 0-4.5.8c-6.4 8-20.4 23.9-29.6 33.8.1-1.6 1.7-8.3 3-9.6s4.3-2.8 5.6-3.9 4.5-3.3 5.3-4.2 1.1-2.1.1-2.4-4.8 1.3-7.5 2.9c-.5.3-2.4 1.8-2.9 2-.1-4.7.2-10.1-1.6-14.6a12.8 12.8 0 0 0-1.8-2.8.7.7 0 0 1 0-.8c1.2-1.9 3.4-3.4 3.9-5.6 1-4.8-1.5-7.8-6.5-7.8a18.4 18.4 0 0 0-5.5.9c-5 1.6-5.8-.4-10.5-1.2-16.1-2.9-27.9 11.4-19.1 26.1zM47.8 102.9c-4.1-1.4-6.1-4.4-9.1-6.4a15.5 15.5 0 0 0-6.3-2.5c-3.7-.7-7.1.1-11-1.1A45.5 45.5 0 0 0 10 89c1.7 2.4 4.1 4.9 11.1 8.4a26.2 26.2 0 0 0 7.6 2 16.9 16.9 0 0 1 7.3 3 28 28 0 0 0 11.2 4.8 34.2 34.2 0 0 0 11.3-.2c-3.1-1.8-7.5-2.8-10.8-4M70.1 70.1c-3.2-2.9-3.9-6.4-5.9-9.5a15.5 15.5 0 0 0-4.8-4.8c-3.2-2.1-6.5-2.7-9.7-5.3a45.4 45.4 0 0 0-9-8.1c.6 2.9 1.9 6.1 7 12.1a26.1 26.1 0 0 0 6.2 4.8 16.9 16.9 0 0 1 5.6 5.7 28 28 0 0 0 8.4 8.8A34.2 34.2 0 0 0 78.4 78c-2.1-2.9-5.8-5.6-8.4-7.9M79.5 61.8c-2.6-3.4-2.7-7-4.1-10.4a15.5 15.5 0 0 0-3.8-5.5c-2.7-2.6-6-3.8-8.6-6.9a45.5 45.5 0 0 0-7.4-9.6c.1 3 .7 6.3 4.7 13.2a26.2 26.2 0 0 0 5.3 5.8 16.9 16.9 0 0 1 4.4 6.5A28 28 0 0 0 76.7 65a34.3 34.3 0 0 0 9.6 6.1c-1.6-3.2-4.7-6.5-6.8-9.3M89.8 54.7c-2.1-3.7-1.8-7.3-2.7-10.8a15.5 15.5 0 0 0-3.1-6c-2.4-2.9-5.4-4.5-7.6-8a45.5 45.5 0 0 0-6.1-10.5c-.3 3-.1 6.4 2.9 13.7a26.2 26.2 0 0 0 4.5 6.5 16.9 16.9 0 0 1 3.6 7.1 28.1 28.1 0 0 0 5.3 10.9 34.3 34.3 0 0 0 8.7 7.3c-1.1-3.4-3.8-7.1-5.5-10.1M101.7 48.4c-1.6-4-.8-7.5-1.2-11.1a15.5 15.5 0 0 0-2.3-6.3c-1.9-3.2-4.8-5.2-6.4-9a45.4 45.4 0 0 0-4.6-11.2c-.7 2.9-1 6.3 1 13.9a26.3 26.3 0 0 0 3.5 7 16.9 16.9 0 0 1 2.6 7.5 28 28 0 0 0 3.8 11.6 34.3 34.3 0 0 0 7.6 8.4c-.7-3.5-2.8-7.5-4.1-10.8M114.1 44.1c-1.1-4.2.2-7.5.2-11.2a15.5 15.5 0 0 0-1.4-6.6c-1.5-3.5-4.1-5.8-5.3-9.7A45.5 45.5 0 0 0 104.4 5c-1 2.8-1.7 6.1-.7 14a26.2 26.2 0 0 0 2.6 7.4 16.9 16.9 0 0 1 1.6 7.7 28.1 28.1 0 0 0 2.5 11.9 34.4 34.4 0 0 0 6.5 9.3c-.2-3.5-1.9-7.8-2.7-11.2M127.9 41.1c-.8-4.2.7-7.5.9-11.1a15.5 15.5 0 0 0-1-6.7c-1.3-3.5-3.7-6-4.6-10a45.4 45.4 0 0 0-2.4-11.9c-1.2 2.7-2.1 6-1.6 13.9a26.2 26.2 0 0 0 2.1 7.6 16.9 16.9 0 0 1 1.1 7.8 28 28 0 0 0 1.6 12.1 34.3 34.3 0 0 0 5.9 9.7c0-3.5-1.3-7.9-2-11.3M140.7 40.3c-.1-4.3 1.9-7.3 2.8-10.8a15.5 15.5 0 0 0 .1-6.7c-.7-3.7-2.6-6.6-2.9-10.7a45.5 45.5 0 0 0-.3-12.1c-1.7 2.5-3.1 5.6-3.9 13.4a26.2 26.2 0 0 0 .8 7.8 16.9 16.9 0 0 1-.2 7.9 27.9 27.9 0 0 0-.5 12.2 34.2 34.2 0 0 0 4.2 10.5c.6-3.5 0-8-.1-11.5M154.5 40.9c.5-4.3 2.9-7 4.3-10.3a15.5 15.5 0 0 0 1.1-6.6c-.2-3.8-1.7-6.9-1.4-11a45.6 45.6 0 0 0 1.3-12c-2 2.2-3.9 5.1-5.8 12.7a26.2 26.2 0 0 0-.2 7.8 16.9 16.9 0 0 1-1.3 7.8 28 28 0 0 0-2.2 12 34.2 34.2 0 0 0 2.7 11c1.1-3.4 1.1-7.9 1.5-11.4M167.5 43.4c1.1-4.2 3.9-6.5 5.7-9.6a15.5 15.5 0 0 0 2-6.4c.4-3.8-.7-7 .2-11a45.3 45.3 0 0 0 3.1-11.7c-2.3 1.9-4.6 4.5-7.5 11.8a26.3 26.3 0 0 0-1.4 7.7 16.9 16.9 0 0 1-2.4 7.5 28 28 0 0 0-3.9 11.5 34.2 34.2 0 0 0 1 11.3c1.6-3.2 2.3-7.7 3.2-11.1M179.8 47.4c1.6-4 4.7-5.9 6.8-8.8a15.5 15.5 0 0 0 2.8-6.1c.8-3.7.2-7.1 1.6-10.9a45.3 45.3 0 0 0 4.5-11.3c-2.5 1.6-5.1 3.9-8.9 10.8a26.2 26.2 0 0 0-2.3 7.5 16.9 16.9 0 0 1-3.3 7.2 27.9 27.9 0 0 0-5.3 11 34.3 34.3 0 0 0-.3 11.3c1.9-3 3.2-7.4 4.5-10.6M191.6 53.2c2.2-3.7 5.4-5.2 8-7.8a15.6 15.6 0 0 0 3.6-5.7c1.3-3.5 1.2-7 3.1-10.6a45.4 45.4 0 0 0 6-10.5c-2.7 1.3-5.5 3.1-10.3 9.4a26.3 26.3 0 0 0-3.3 7.1 16.9 16.9 0 0 1-4.3 6.7 28 28 0 0 0-6.8 10.1 34.3 34.3 0 0 0-1.9 11.2c2.3-2.7 4.2-6.9 5.9-9.9M203.8 60.4c2.6-3.4 6-4.5 8.9-6.8a15.6 15.6 0 0 0 4.3-5.2c1.8-3.3 2-6.8 4.4-10.1a45.4 45.4 0 0 0 7.2-9.7c-2.8.9-5.9 2.4-11.4 8.1a26.3 26.3 0 0 0-4.2 6.7 16.9 16.9 0 0 1-5.1 6.1 28 28 0 0 0-7.9 9.2 34.2 34.2 0 0 0-3.3 10.8c2.6-2.4 5-6.3 7.1-9.1M213.9 68.9c3-3.1 6.6-3.7 9.7-5.6a15.5 15.5 0 0 0 4.9-4.6c2.2-3.1 2.8-6.5 5.6-9.5a45.5 45.5 0 0 0 8.4-8.7c-2.9.5-6.1 1.7-12.3 6.6a26.2 26.2 0 0 0-5 6.1 16.9 16.9 0 0 1-5.8 5.4 27.9 27.9 0 0 0-9 8.1 34.2 34.2 0 0 0-4.7 10.3c2.9-2 5.7-5.6 8.2-8.1M222.6 78.5c3.4-2.7 7-2.9 10.3-4.3a15.6 15.6 0 0 0 5.5-3.9c2.5-2.8 3.7-6 6.8-8.7a45.3 45.3 0 0 0 9.4-7.6c-3 .2-6.3.9-13.1 5a26.4 26.4 0 0 0-5.7 5.4 16.9 16.9 0 0 1-6.4 4.6 28 28 0 0 0-10 6.9 34.3 34.3 0 0 0-5.9 9.7c3.2-1.6 6.4-4.8 9.1-7M230.3 89.5c3.7-2.2 7.3-1.9 10.8-2.9a15.6 15.6 0 0 0 5.9-3.2c2.9-2.4 4.4-5.5 7.9-7.8a45.3 45.3 0 0 0 10.4-6.3c-3-.2-6.4 0-13.6 3.2a26.1 26.1 0 0 0-6.4 4.6 16.9 16.9 0 0 1-7 3.7 28 28 0 0 0-10.8 5.5 34.1 34.1 0 0 0-7.1 8.8c3.3-1.2 7-3.9 10-5.7M236.6 101.7c4-1.7 7.5-1 11.1-1.6a15.6 15.6 0 0 0 6.3-2.4c3.2-2 5.1-4.9 8.7-6.7a45.5 45.5 0 0 0 11-5c-2.9-.6-6.3-.8-13.9 1.5a26.3 26.3 0 0 0-6.9 3.8 16.9 16.9 0 0 1-7.4 2.9 28 28 0 0 0-11.4 4.2 34.3 34.3 0 0 0-8.1 7.9c3.5-.8 7.4-3.1 10.6-4.5M241.2 114.5c4.1-1.4 7.5-.4 11.1-.7a15.5 15.5 0 0 0 6.4-1.9c3.3-1.8 5.4-4.5 9.3-6a45.3 45.3 0 0 0 11.4-4.1c-2.9-.8-6.2-1.3-14 .4a26.2 26.2 0 0 0-7.2 3.2 16.9 16.9 0 0 1-7.6 2.2 28 28 0 0 0-11.7 3.2 34.3 34.3 0 0 0-8.7 7.2c3.5-.5 7.6-2.5 10.9-3.6M243.9 127.5c4.3-.7 7.5.8 11.1 1.2a15.4 15.4 0 0 0 6.7-.8c3.6-1.2 6.1-3.5 10.1-4.4a45.5 45.5 0 0 0 11.9-2.1c-2.7-1.3-6-2.3-13.8-1.9a26.1 26.1 0 0 0-7.6 2 16.9 16.9 0 0 1-7.9 1 28 28 0 0 0-12.1 1.2 34.3 34.3 0 0 0-9.8 5.7c3.5.1 7.9-1.2 11.4-1.7M244.9 140.9c4.3-.1 7.3 1.9 10.8 2.8a15.4 15.4 0 0 0 6.7.1c3.7-.7 6.6-2.6 10.7-2.9a45.4 45.4 0 0 0 12.1-.4c-2.5-1.7-5.6-3.1-13.4-3.9a26.2 26.2 0 0 0-7.8.9 16.9 16.9 0 0 1-7.9-.2 27.9 27.9 0 0 0-12.2-.5 34.3 34.3 0 0 0-10.5 4.2c3.5.6 8 0 11.5-.1M244.2 154.3c4.3.5 6.9 3 10.3 4.3a15.5 15.5 0 0 0 6.6 1.1c3.8-.1 6.9-1.6 11-1.3a45.7 45.7 0 0 0 12 1.4c-2.2-2-5-3.9-12.7-5.8a26.3 26.3 0 0 0-7.8-.3 16.8 16.8 0 0 1-7.8-1.3 28 28 0 0 0-12-2.3 34.3 34.3 0 0 0-11 2.6c3.4 1.1 7.9 1.2 11.4 1.6M241.6 167.5c4.2 1.1 6.5 3.9 9.6 5.7a15.5 15.5 0 0 0 6.4 2c3.8.4 7-.7 11 .2a45.6 45.6 0 0 0 11.7 3c-1.9-2.3-4.5-4.5-11.8-7.5a26.2 26.2 0 0 0-7.7-1.4 16.9 16.9 0 0 1-7.5-2.4 28 28 0 0 0-11.5-3.9 34.2 34.2 0 0 0-11.3 1c3.2 1.6 7.7 2.3 11.1 3.2M237.3 179.6c4 1.6 5.9 4.7 8.8 6.9a15.6 15.6 0 0 0 6.1 2.8c3.7.9 7.1.2 10.9 1.6a45.4 45.4 0 0 0 11.2 4.5c-1.6-2.5-3.8-5.1-10.7-9a26.1 26.1 0 0 0-7.5-2.4 16.9 16.9 0 0 1-7.2-3.4 28.1 28.1 0 0 0-10.9-5.3 34.3 34.3 0 0 0-11.3-.4c3 2 7.4 3.2 10.6 4.6M231.7 192.3c3.8 2.1 5.4 5.3 8 7.8a15.5 15.5 0 0 0 5.8 3.5c3.6 1.3 7 1 10.7 2.9a45.5 45.5 0 0 0 10.7 5.8c-1.3-2.7-3.2-5.5-9.6-10.1a26.1 26.1 0 0 0-7.2-3.2 17 17 0 0 1-6.8-4.1 28 28 0 0 0-10.3-6.5 34.3 34.3 0 0 0-11.2-1.7c2.7 2.3 6.9 4 10 5.7M224 203.9c3.4 2.6 4.5 6 6.7 8.9a15.6 15.6 0 0 0 5.2 4.3c3.3 1.8 6.8 2 10.1 4.4a45.5 45.5 0 0 0 9.7 7.3c-.9-2.8-2.4-5.9-8-11.4a26.3 26.3 0 0 0-6.6-4.2 16.9 16.9 0 0 1-6.1-5.1 28 28 0 0 0-9.2-8 34.3 34.3 0 0 0-10.8-3.3c2.3 2.7 6.3 5 9 7.1M215.4 213.6c3.1 3 3.8 6.5 5.8 9.6a15.5 15.5 0 0 0 4.7 4.8c3.1 2.1 6.5 2.7 9.6 5.4a45.3 45.3 0 0 0 8.9 8.2c-.6-2.9-1.8-6.1-6.8-12.2a26.1 26.1 0 0 0-6.2-4.9 17 17 0 0 1-5.5-5.7 27.9 27.9 0 0 0-8.3-8.9 34.5 34.5 0 0 0-10.4-4.4c2.1 2.9 5.7 5.6 8.2 8M205.4 222.5c2.7 3.4 2.8 7 4.2 10.3a15.6 15.6 0 0 0 3.9 5.5c2.8 2.6 6 3.7 8.7 6.8a45.4 45.4 0 0 0 7.5 9.5c-.1-3-.8-6.3-4.9-13.1a26.2 26.2 0 0 0-5.3-5.8 16.9 16.9 0 0 1-4.6-6.5 27.9 27.9 0 0 0-6.9-10.1 34.4 34.4 0 0 0-9.6-6c1.6 3.2 4.8 6.4 6.9 9.2M194.2 230.2c2.3 3.6 2.1 7.2 3.2 10.7a15.5 15.5 0 0 0 3.3 5.8c2.5 2.8 5.6 4.3 8 7.6a45.2 45.2 0 0 0 6.6 10.2c.1-3-.2-6.4-3.6-13.5a26.3 26.3 0 0 0-4.8-6.2 16.9 16.9 0 0 1-3.9-6.9 28 28 0 0 0-5.8-10.7 34.2 34.2 0 0 0-9-6.9c1.3 3.3 4.1 6.9 6 9.8M182 236.1c1.7 4 1 7.5 1.6 11.1a15.5 15.5 0 0 0 2.4 6.3c2 3.2 4.9 5.1 6.7 8.7a45.3 45.3 0 0 0 5 11c.6-2.9.7-6.3-1.5-13.9a26.2 26.2 0 0 0-3.8-6.9 16.9 16.9 0 0 1-2.9-7.4 28 28 0 0 0-4.2-11.4 34.4 34.4 0 0 0-7.9-8.1c.8 3.5 3.1 7.4 4.5 10.6M169.6 240.3c1.3 4.1.3 7.5.4 11.2a15.5 15.5 0 0 0 1.8 6.5c1.7 3.4 4.4 5.5 5.8 9.4a45.5 45.5 0 0 0 3.8 11.5c.9-2.8 1.4-6.2-.1-14a26.2 26.2 0 0 0-3.1-7.2 16.9 16.9 0 0 1-2.1-7.6 28.1 28.1 0 0 0-3-11.8 34.2 34.2 0 0 0-7-8.9c.4 3.5 2.3 7.7 3.4 11M156.7 243.1c.9 4.2-.6 7.5-.8 11.1a15.5 15.5 0 0 0 1.1 6.6c1.3 3.5 3.8 6 4.8 10a45.3 45.3 0 0 0 2.6 11.8c1.2-2.7 2.1-6 1.4-13.9a26.3 26.3 0 0 0-2.3-7.5 16.9 16.9 0 0 1-1.2-7.8 28 28 0 0 0-1.7-12.1 34.2 34.2 0 0 0-6-9.6c0 3.5 1.5 7.9 2.2 11.3M143.2 243.9c.3 4.3-1.6 7.4-2.2 10.9a15.6 15.6 0 0 0 .2 6.7c.9 3.7 2.9 6.4 3.4 10.5a45.4 45.4 0 0 0 1 12.1c1.5-2.6 2.8-5.7 3.2-13.6a26.2 26.2 0 0 0-1.2-7.8 16.9 16.9 0 0 1-.2-7.9 28 28 0 0 0-.1-12.2 34.2 34.2 0 0 0-4.7-10.3c-.4 3.5.4 8 .6 11.5M129.2 243.1c-.5 4.3-2.9 6.9-4.3 10.3a15.5 15.5 0 0 0-1.1 6.6c.1 3.8 1.7 6.9 1.3 11a45.3 45.3 0 0 0-1.3 12c2-2.2 3.9-5.1 5.8-12.7a26.2 26.2 0 0 0 .3-7.8 16.9 16.9 0 0 1 1.3-7.8 28 28 0 0 0 2.2-12 34.3 34.3 0 0 0-2.6-11c-1.1 3.4-1.1 7.9-1.6 11.4M116 240.5c-1.1 4.2-3.8 6.5-5.6 9.6a15.6 15.6 0 0 0-2 6.4c-.4 3.8.7 7-.1 11a45.4 45.4 0 0 0-2.9 11.8c2.3-1.9 4.5-4.5 7.4-11.8a26.2 26.2 0 0 0 1.3-7.7 16.9 16.9 0 0 1 2.3-7.6 28 28 0 0 0 3.8-11.6 34.3 34.3 0 0 0-1.1-11.3c-1.5 3.2-2.2 7.7-3.1 11.1M103.2 236c-1.7 4-4.8 5.8-7 8.7a15.5 15.5 0 0 0-2.9 6.1c-.9 3.7-.4 7.1-1.8 10.9a45.4 45.4 0 0 0-4.7 11.2c2.5-1.6 5.1-3.8 9.2-10.6a26.3 26.3 0 0 0 2.5-7.4 16.9 16.9 0 0 1 3.5-7.1 28 28 0 0 0 5.5-10.8 34.2 34.2 0 0 0 .6-11.3c-2 2.9-3.3 7.3-4.7 10.5M91 230.2c-2.2 3.7-5.5 5.2-8.1 7.7a15.4 15.4 0 0 0-3.7 5.6c-1.4 3.5-1.3 6.9-3.2 10.6a45.5 45.5 0 0 0-6 10.5c2.7-1.2 5.6-3.1 10.4-9.3a26.2 26.2 0 0 0 3.4-7.1 16.9 16.9 0 0 1 4.4-6.6 28 28 0 0 0 6.9-10 34.2 34.2 0 0 0 2-11.1c-2.4 2.6-4.2 6.8-6 9.8M79.9 222.7c-2.6 3.4-6 4.5-8.9 6.7a15.6 15.6 0 0 0-4.3 5.2c-1.8 3.3-2 6.8-4.4 10.1a45.5 45.5 0 0 0-7.3 9.7c2.8-.9 5.9-2.4 11.4-8a26.3 26.3 0 0 0 4.2-6.6 16.9 16.9 0 0 1 5.1-6.1 28 28 0 0 0 8-9.2 34.2 34.2 0 0 0 3.3-10.9c-2.6 2.4-5 6.3-7.1 9.1M70.2 214.1c-3 3.1-6.5 3.8-9.7 5.6a15.5 15.5 0 0 0-4.9 4.6c-2.2 3.1-2.8 6.5-5.6 9.5a45.3 45.3 0 0 0-8.4 8.8c2.9-.6 6.1-1.7 12.3-6.6a26.5 26.5 0 0 0 5-6.1 16.9 16.9 0 0 1 5.8-5.4 28 28 0 0 0 9-8.2 34.3 34.3 0 0 0 4.6-10.4c-2.9 2-5.7 5.6-8.1 8.1M61.7 204.5c-3.3 2.8-6.9 3.1-10.2 4.7a15.5 15.5 0 0 0-5.3 4.1c-2.5 2.9-3.4 6.2-6.5 8.9a45.4 45.4 0 0 0-9.2 7.9c3-.3 6.3-1.1 12.9-5.4a26.3 26.3 0 0 0 5.5-5.6 16.8 16.8 0 0 1 6.3-4.8A28 28 0 0 0 65 207a34.3 34.3 0 0 0 5.5-9.9c-3.1 1.7-6.2 5.1-8.9 7.3M53.9 193.2c-3.6 2.3-7.2 2.2-10.7 3.3a15.6 15.6 0 0 0-5.8 3.4c-2.8 2.5-4.2 5.7-7.6 8.1a45.4 45.4 0 0 0-10.1 6.7c3 .1 6.4-.3 13.5-3.7a26.2 26.2 0 0 0 6.2-4.8 16.9 16.9 0 0 1 6.8-4 28 28 0 0 0 10.6-6 34.2 34.2 0 0 0 6.8-9.1c-3.3 1.3-6.8 4.2-9.8 6.1M48.2 181.1c-4 1.6-7.5.8-11.1 1.3a15.6 15.6 0 0 0-6.3 2.3c-3.2 2-5.2 4.8-8.9 6.5a45.5 45.5 0 0 0-11.2 4.7c2.9.7 6.3.9 13.9-1.2a26.2 26.2 0 0 0 7-3.6 16.8 16.8 0 0 1 7.5-2.7 28.1 28.1 0 0 0 11.5-3.9 34.3 34.3 0 0 0 8.3-7.7c-3.5.7-7.5 2.9-10.7 4.2M43.9 168.6c-4.1 1.2-7.5 0-11.2.1a15.5 15.5 0 0 0-6.5 1.6c-3.4 1.6-5.7 4.2-9.6 5.5A45.4 45.4 0 0 0 5 179.2c2.8 1 6.2 1.6 14 .4a26.2 26.2 0 0 0 7.3-2.8A16.8 16.8 0 0 1 34 175a28.1 28.1 0 0 0 11.9-2.6 34.1 34.1 0 0 0 9.1-6.7c-3.5.3-7.8 2.1-11.1 3M41.1 155.5c-4.3.7-7.5-.8-11.1-1.1a15.6 15.6 0 0 0-6.7.9c-3.6 1.2-6.1 3.6-10.1 4.5A45.3 45.3 0 0 0 1.3 162c2.7 1.3 6 2.2 13.8 1.9a26.2 26.2 0 0 0 7.6-2 16.9 16.9 0 0 1 7.9-1 28 28 0 0 0 12.1-1.3 34.3 34.3 0 0 0 9.8-5.7c-3.5-.1-7.9 1.2-11.4 1.8M40.3 142.9c-4.3.3-7.4-1.6-10.9-2.4a15.5 15.5 0 0 0-6.7.1c-3.7.8-6.5 2.9-10.5 3.3a45.7 45.7 0 0 0-12.1.8c2.5 1.6 5.7 2.9 13.5 3.4a26.3 26.3 0 0 0 7.8-1.2 16.9 16.9 0 0 1 7.9-.1 28.1 28.1 0 0 0 12.2.1 34.3 34.3 0 0 0 10.4-4.6c-3.5-.5-8 .3-11.5.5M41.3 129.1c-4.3-.4-7-2.7-10.4-3.9a15.5 15.5 0 0 0-6.7-.9c-3.8.3-6.8 1.9-10.9 1.7a45.3 45.3 0 0 0-12.1-.9c2.3 1.9 5.2 3.7 12.9 5.4a26.2 26.2 0 0 0 7.9 0 16.9 16.9 0 0 1 7.9 1.1 28 28 0 0 0 12 1.8 34.2 34.2 0 0 0 10.9-3c-3.4-1-8-.9-11.5-1.2M43.6 116c-4.2-.9-6.7-3.5-9.9-5.2a15.5 15.5 0 0 0-6.5-1.7c-3.8-.2-7 1-11 .4a45.6 45.6 0 0 0-11.9-2.4c2 2.2 4.7 4.3 12.2 6.9a26.1 26.1 0 0 0 7.8 1 16.9 16.9 0 0 1 7.7 2 28 28 0 0 0 11.7 3.3 34.2 34.2 0 0 0 11.2-1.6c-3.3-1.4-7.8-1.8-11.2-2.6M53.6 91.5c-3.8-2.1-5.4-5.3-8-7.8a15.5 15.5 0 0 0-5.8-3.5c-3.6-1.3-7-1-10.7-2.8a45.6 45.6 0 0 0-10.7-5.7c1.3 2.7 3.3 5.5 9.7 10.1a26.2 26.2 0 0 0 7.3 3.2 16.9 16.9 0 0 1 6.8 4.1 28 28 0 0 0 10.3 6.5 34.3 34.3 0 0 0 11.2 1.6c-2.7-2.3-7-4-10-5.7M61.3 80.4c-3.5-2.6-4.6-6-6.9-8.8a15.5 15.5 0 0 0-5.2-4.2c-3.4-1.7-6.8-1.9-10.2-4.2a45.3 45.3 0 0 0-9.8-7.1c1 2.8 2.5 5.9 8.2 11.3a26.2 26.2 0 0 0 6.7 4.1 16.9 16.9 0 0 1 6.2 5 28 28 0 0 0 9.3 7.8 34.1 34.1 0 0 0 10.9 3.1c-2.4-2.6-6.4-4.9-9.2-7"/>
  </g>
  <g fill="#f26529">
    <path d="M378.6 193l24.8-134.8h-53l-31.7 177.6h128.5s4.6-22.3 6.4-42.8c-10.1.1-15.3.1-75 0zM770.1 53.8c-9.9-.2-86.6 1.2-103.8 94.9-15.9 86.9 54.8 93 68.1 93.4s83.4 10.3 106.7-93.4c17.3-93.7-60.8-95.1-71-94.9zm14.1 94.9c-2.8 15.9-14.2 48-40.5 49-25.9-1-23.4-33.1-20.4-49s12.6-50.4 38.8-51.1 25.2 34.1 22.1 51.1zM640.4 58.2l-42.6 112.6 4.7-112.6H550.4l-42.5 112.6 4.7-112.6h-41.1l-7.4 178.1h64.2l28.9-76.3-3.2 76.3h64.2l67.4-178.1h-45.2"/>
  </g>
</svg>
