<svg xmlns="http://www.w3.org/2000/svg" width="20" height="16" preserveAspectRatio="xMidYMid" viewBox="0 0 20 16">
  <path fill="currentColor" d="M20 1.895c-.736.32-1.526.538-2.357.635.847-.5 1.498-1.29 1.805-2.235-.793.464-1.67.8-2.606.98C16.092.492 15.027 0 13.847 0 11.58 0 9.743 1.808 9.743 4.04c0 .315.036.624.107.92C6.44 4.79 3.416 3.183 1.392.74 1.04 1.335.837 2.03.837 2.77c0 1.4.724 2.638 1.825 3.363-.672-.022-1.306-.203-1.86-.506v.05c0 1.958 1.416 3.59 3.292 3.962-.343.09-.706.14-1.08.14-.264 0-.522-.027-.773-.074.526 1.605 2.04 2.773 3.836 2.805-1.403 1.084-3.173 1.73-5.096 1.73-.33 0-.66-.02-.98-.057C1.817 15.33 3.974 16 6.29 16c7.547 0 11.674-6.155 11.674-11.492 0-.176-.004-.35-.01-.523.8-.57 1.496-1.28 2.046-2.09z"/>
</svg>
