<svg xmlns="http://www.w3.org/2000/svg" width="25" height="14.125" preserveAspectRatio="xMidYMid" viewBox="0 0 25 14.125">
  <path fill="currentColor" d="M12.233 13.936h1.493s.45-.05.682-.293c.21-.224.205-.644.205-.644s-.03-1.97.9-2.26c.92-.285 2.095 1.903 3.345 2.744.944.637 1.662.497 1.662.497l3.338-.046s1.747-.105.92-1.453c-.07-.11-.482-.996-2.485-2.816-2.094-1.907-1.814-1.6.71-4.896 1.536-2.01 2.147-3.236 1.958-3.76C24.78.51 23.65.64 23.65.64l-3.76.025s-.28-.037-.488.083c-.2.12-.33.395-.33.395s-.596 1.555-1.39 2.875c-1.674 2.79-2.343 2.94-2.616 2.764-.635-.406-.477-1.62-.477-2.488 0-2.7.415-3.83-.816-4.12-.41-.098-.71-.162-1.756-.172C10.68-.01 9.544.01 8.903.317c-.43.205-.76.663-.558.69.247.03.81.15 1.11.546.385.516.372 1.67.372 1.67s.223 3.18-.517 3.575c-.504.273-1.2-.28-2.692-2.81-.764-1.297-1.34-2.73-1.34-2.73s-.113-.267-.31-.41c-.24-.174-.58-.23-.58-.23L.816.64S.28.66.083.888c-.175.2-.014.622-.014.622s2.794 6.42 5.96 9.653c2.903 2.967 6.2 2.773 6.2 2.773z" />
</svg>
